M48
;Layer_Color=9474304
;FILE_FORMAT=4:4
METRIC,LZ
;TYPE=PLATED
T1F00S00C0.2000
T2F00S00C0.3300
%
T01
X-000905Y-0013125
X-00086
X-0008125
X-0007325Y-0013825
X-0002875Y-0013025
X-0002425Y-00124
X000095Y-001175
X-000015Y-00105
X0002575Y-000995
X00030564
X00035379
X0003325Y-001075
X0005625Y-001005
X000615Y-0010225
X0006675Y-00107377
X0007925Y-001095
X0008025Y-0012225
X00092836Y-0011375
X00103Y-00085
X0008825Y-000785
X00071Y-0006125
X00047606Y-00060084
X00034483Y-00040778
X00028Y-0004125
X000225
X00016Y-000415
X0001025
X0000475Y-0004175
X0000337Y-0003212
X-0000625Y-0003125
X-0000725Y-0001075
X0001Y-0001125
X000165Y-00015
X0002325Y-00016
X0002975Y-00015
X0003575
X000415
X00047
X000535
X000505Y-0002775
X00066Y-0001
X00076
X00086
X00096
X00068Y-0000125
Y0000525
X00132256Y-000025
X00142Y-0000225
X00155Y-0000275
Y-0002875
X00146Y-00033
X00133Y-0003
X00125
X0011625Y-0003775
X00127Y-00052
X0013775Y-0005575
X0014825Y-00048139
X0012275Y-00066
X0013025Y-000735
X001375Y-000125
X000065Y-00064
X-0002375Y-0006625
X-00023325Y-00047945
X-00048725
X-00057Y-00058
X-0005725Y-000655
X-000625Y-00082
X-0010825Y-0009075
X-00112225Y-00022545
X-00137625
X-0015175Y-000115
X-0015225Y-000015
X-00152Y000085
X-00124925Y00002855
X-001075Y00004
X-00088Y-00016
X-0005875Y-0002125
X-0005775Y-000115
X-000535Y-00007
X-00049Y-000025
X-000445Y00002
X-0004Y000065
X-000485Y-0002675
X-0003525Y00011
X-00029Y000325
X-00018Y0005125
X-0001725Y000575
X-000135Y0006225
X-0000925Y0006675
X-0000575Y00071253
X-00001Y000745
X0000475
X-0001425Y000935
X-00023325Y00104455
X-0003625Y00112158
X-00036025Y00129855
X-000435Y0013975
X-00046599Y00119859
X-0005855Y001258
X-00086825Y00129855
X-00083731Y00115419
X-00077304Y00107758
X-00070876Y00100098
X-00064448Y00092437
X-00072108Y00086009
X-00071Y0007375
X-00076851Y000665
X-00079769Y00079581
X-00086196Y00087242
X-00092624Y00094902
X-00084964Y0010133
X-00078536Y0009367
X-00091392Y00108991
X-00099052Y00102563
X-00121092Y00088842
X-00113021Y00079021
X-00104825Y00069325
X-00121752Y00053284
X-00139199Y00061256
X-00137625Y00028255
X-001575Y00026
X-001115Y0001325
X-00086825Y00028255
X-0008075Y0003775
X-00061425Y00079055
X-00010625Y00129855
X00014775
X00040175
X00065575
X00052875Y00104455
X00053754Y00058682
X00048921Y00056057
X00061447Y00055914
X0006325Y0003125
X00057Y000295
X00068Y00011
X00094Y0001625
Y0002175
Y0002725
Y0003375
X001165Y00021
X001235Y0004
X0013575
X00129075Y00053655
X0013475Y00012
X00142Y000125
T02
X00013446Y00005068
X00021931Y00013554
X00030416Y00022039
X00038902Y00030524
X00030416Y00039009
X00021931Y00030524
Y00047495
X00013446Y0005598
X00004961Y00047495
X00013446Y00039009
X-00003525
X00004961Y00030524
X-00003525Y00022039
X00013446
X00004961Y00013554
X-0001201Y00030524
M30
