G04*
G04 #@! TF.GenerationSoftware,Altium Limited,Altium Designer,20.1.7 (139)*
G04*
G04 Layer_Color=8388736*
%FSLAX44Y44*%
%MOMM*%
G71*
G04*
G04 #@! TF.SameCoordinates,99CDB543-8891-4245-8F14-29871282C811*
G04*
G04*
G04 #@! TF.FilePolarity,Negative*
G04*
G01*
G75*
%ADD68C,0.6096*%
%ADD69R,0.7400X0.7000*%
%ADD70R,0.7000X0.8000*%
%ADD71R,0.8000X0.7000*%
G04:AMPARAMS|DCode=72|XSize=4.3mm|YSize=3.4mm|CornerRadius=0mm|HoleSize=0mm|Usage=FLASHONLY|Rotation=130.000|XOffset=0mm|YOffset=0mm|HoleType=Round|Shape=Rectangle|*
%AMROTATEDRECTD72*
4,1,4,2.6843,-0.5543,0.0797,-2.7397,-2.6843,0.5543,-0.0797,2.7397,2.6843,-0.5543,0.0*
%
%ADD72ROTATEDRECTD72*%

G04:AMPARAMS|DCode=73|XSize=0.55mm|YSize=1.15mm|CornerRadius=0mm|HoleSize=0mm|Usage=FLASHONLY|Rotation=130.000|XOffset=0mm|YOffset=0mm|HoleType=Round|Shape=Round|*
%AMOVALD73*
21,1,0.6000,0.5500,0.0000,0.0000,220.0*
1,1,0.5500,0.2298,0.1928*
1,1,0.5500,-0.2298,-0.1928*
%
%ADD73OVALD73*%

%ADD74R,0.4000X0.9500*%
G04:AMPARAMS|DCode=75|XSize=0.95mm|YSize=0.4mm|CornerRadius=0mm|HoleSize=0mm|Usage=FLASHONLY|Rotation=90.000|XOffset=0mm|YOffset=0mm|HoleType=Round|Shape=Octagon|*
%AMOCTAGOND75*
4,1,8,0.1000,0.4750,-0.1000,0.4750,-0.2000,0.3750,-0.2000,-0.3750,-0.1000,-0.4750,0.1000,-0.4750,0.2000,-0.3750,0.2000,0.3750,0.1000,0.4750,0.0*
%
%ADD75OCTAGOND75*%

G04:AMPARAMS|DCode=76|XSize=0.6mm|YSize=2.1mm|CornerRadius=0mm|HoleSize=0mm|Usage=FLASHONLY|Rotation=270.000|XOffset=0mm|YOffset=0mm|HoleType=Round|Shape=Octagon|*
%AMOCTAGOND76*
4,1,8,1.0500,0.1500,1.0500,-0.1500,0.9000,-0.3000,-0.9000,-0.3000,-1.0500,-0.1500,-1.0500,0.1500,-0.9000,0.3000,0.9000,0.3000,1.0500,0.1500,0.0*
%
%ADD76OCTAGOND76*%

G04:AMPARAMS|DCode=77|XSize=0.6mm|YSize=2.1mm|CornerRadius=0mm|HoleSize=0mm|Usage=FLASHONLY|Rotation=0.000|XOffset=0mm|YOffset=0mm|HoleType=Round|Shape=Octagon|*
%AMOCTAGOND77*
4,1,8,-0.1500,1.0500,0.1500,1.0500,0.3000,0.9000,0.3000,-0.9000,0.1500,-1.0500,-0.1500,-1.0500,-0.3000,-0.9000,-0.3000,0.9000,-0.1500,1.0500,0.0*
%
%ADD77OCTAGOND77*%

G04:AMPARAMS|DCode=78|XSize=0.3mm|YSize=0.75mm|CornerRadius=0mm|HoleSize=0mm|Usage=FLASHONLY|Rotation=45.000|XOffset=0mm|YOffset=0mm|HoleType=Round|Shape=Round|*
%AMOVALD78*
21,1,0.4500,0.3000,0.0000,0.0000,135.0*
1,1,0.3000,0.1591,-0.1591*
1,1,0.3000,-0.1591,0.1591*
%
%ADD78OVALD78*%

G04:AMPARAMS|DCode=79|XSize=0.74mm|YSize=0.7mm|CornerRadius=0mm|HoleSize=0mm|Usage=FLASHONLY|Rotation=45.000|XOffset=0mm|YOffset=0mm|HoleType=Round|Shape=Rectangle|*
%AMROTATEDRECTD79*
4,1,4,-0.0141,-0.5091,-0.5091,-0.0141,0.0141,0.5091,0.5091,0.0141,-0.0141,-0.5091,0.0*
%
%ADD79ROTATEDRECTD79*%

G04:AMPARAMS|DCode=80|XSize=0.9mm|YSize=1mm|CornerRadius=0mm|HoleSize=0mm|Usage=FLASHONLY|Rotation=315.000|XOffset=0mm|YOffset=0mm|HoleType=Round|Shape=Rectangle|*
%AMROTATEDRECTD80*
4,1,4,-0.6718,-0.0354,0.0354,0.6718,0.6718,0.0354,-0.0354,-0.6718,-0.6718,-0.0354,0.0*
%
%ADD80ROTATEDRECTD80*%

G04:AMPARAMS|DCode=81|XSize=0.74mm|YSize=0.7mm|CornerRadius=0mm|HoleSize=0mm|Usage=FLASHONLY|Rotation=315.000|XOffset=0mm|YOffset=0mm|HoleType=Round|Shape=Rectangle|*
%AMROTATEDRECTD81*
4,1,4,-0.5091,0.0141,-0.0141,0.5091,0.5091,-0.0141,0.0141,-0.5091,-0.5091,0.0141,0.0*
%
%ADD81ROTATEDRECTD81*%

%ADD82P,6.7882X4X90.0*%
G04:AMPARAMS|DCode=83|XSize=0.3mm|YSize=0.75mm|CornerRadius=0mm|HoleSize=0mm|Usage=FLASHONLY|Rotation=135.000|XOffset=0mm|YOffset=0mm|HoleType=Round|Shape=Round|*
%AMOVALD83*
21,1,0.4500,0.3000,0.0000,0.0000,225.0*
1,1,0.3000,0.1591,0.1591*
1,1,0.3000,-0.1591,-0.1591*
%
%ADD83OVALD83*%

G04:AMPARAMS|DCode=84|XSize=0.64mm|YSize=0.58mm|CornerRadius=0mm|HoleSize=0mm|Usage=FLASHONLY|Rotation=135.000|XOffset=0mm|YOffset=0mm|HoleType=Round|Shape=Rectangle|*
%AMROTATEDRECTD84*
4,1,4,0.4313,-0.0212,0.0212,-0.4313,-0.4313,0.0212,-0.0212,0.4313,0.4313,-0.0212,0.0*
%
%ADD84ROTATEDRECTD84*%

G04:AMPARAMS|DCode=85|XSize=0.64mm|YSize=0.58mm|CornerRadius=0mm|HoleSize=0mm|Usage=FLASHONLY|Rotation=45.000|XOffset=0mm|YOffset=0mm|HoleType=Round|Shape=Rectangle|*
%AMROTATEDRECTD85*
4,1,4,-0.0212,-0.4313,-0.4313,-0.0212,0.0212,0.4313,0.4313,0.0212,-0.0212,-0.4313,0.0*
%
%ADD85ROTATEDRECTD85*%

G04:AMPARAMS|DCode=86|XSize=1.9mm|YSize=1.3mm|CornerRadius=0mm|HoleSize=0mm|Usage=FLASHONLY|Rotation=135.000|XOffset=0mm|YOffset=0mm|HoleType=Round|Shape=Rectangle|*
%AMROTATEDRECTD86*
4,1,4,1.1314,-0.2121,0.2121,-1.1314,-1.1314,0.2121,-0.2121,1.1314,1.1314,-0.2121,0.0*
%
%ADD86ROTATEDRECTD86*%

G04:AMPARAMS|DCode=87|XSize=0.9mm|YSize=1mm|CornerRadius=0mm|HoleSize=0mm|Usage=FLASHONLY|Rotation=75.000|XOffset=0mm|YOffset=0mm|HoleType=Round|Shape=Rectangle|*
%AMROTATEDRECTD87*
4,1,4,0.3665,-0.5641,-0.5994,-0.3053,-0.3665,0.5641,0.5994,0.3053,0.3665,-0.5641,0.0*
%
%ADD87ROTATEDRECTD87*%

G04:AMPARAMS|DCode=88|XSize=0.74mm|YSize=0.7mm|CornerRadius=0mm|HoleSize=0mm|Usage=FLASHONLY|Rotation=255.000|XOffset=0mm|YOffset=0mm|HoleType=Round|Shape=Rectangle|*
%AMROTATEDRECTD88*
4,1,4,-0.2423,0.4480,0.4338,0.2668,0.2423,-0.4480,-0.4338,-0.2668,-0.2423,0.4480,0.0*
%
%ADD88ROTATEDRECTD88*%

G04:AMPARAMS|DCode=89|XSize=0.7mm|YSize=0.85mm|CornerRadius=0mm|HoleSize=0mm|Usage=FLASHONLY|Rotation=75.000|XOffset=0mm|YOffset=0mm|HoleType=Round|Shape=Rectangle|*
%AMROTATEDRECTD89*
4,1,4,0.3199,-0.4481,-0.5011,-0.2281,-0.3199,0.4481,0.5011,0.2281,0.3199,-0.4481,0.0*
%
%ADD89ROTATEDRECTD89*%

%ADD90R,0.8500X0.7000*%
%ADD91R,0.7000X0.8500*%
%ADD92R,0.4500X0.3500*%
%ADD93R,1.3500X1.0000*%
%ADD94R,0.5000X0.4500*%
%ADD95R,0.5000X0.5500*%
%ADD96R,0.7000X0.7400*%
%ADD97C,0.3000*%
G04:AMPARAMS|DCode=98|XSize=0.74mm|YSize=0.7mm|CornerRadius=0mm|HoleSize=0mm|Usage=FLASHONLY|Rotation=145.000|XOffset=0mm|YOffset=0mm|HoleType=Round|Shape=Rectangle|*
%AMROTATEDRECTD98*
4,1,4,0.5038,0.0745,0.1023,-0.4989,-0.5038,-0.0745,-0.1023,0.4989,0.5038,0.0745,0.0*
%
%ADD98ROTATEDRECTD98*%

%ADD99R,0.5000X0.7000*%
%ADD100R,1.8000X0.8000*%
G04:AMPARAMS|DCode=101|XSize=0.9mm|YSize=0.85mm|CornerRadius=0mm|HoleSize=0mm|Usage=FLASHONLY|Rotation=45.000|XOffset=0mm|YOffset=0mm|HoleType=Round|Shape=Rectangle|*
%AMROTATEDRECTD101*
4,1,4,-0.0177,-0.6187,-0.6187,-0.0177,0.0177,0.6187,0.6187,0.0177,-0.0177,-0.6187,0.0*
%
%ADD101ROTATEDRECTD101*%

G04:AMPARAMS|DCode=102|XSize=0.85mm|YSize=1.5mm|CornerRadius=0mm|HoleSize=0mm|Usage=FLASHONLY|Rotation=315.000|XOffset=0mm|YOffset=0mm|HoleType=Round|Shape=Rectangle|*
%AMROTATEDRECTD102*
4,1,4,-0.8309,-0.2298,0.2298,0.8309,0.8309,0.2298,-0.2298,-0.8309,-0.8309,-0.2298,0.0*
%
%ADD102ROTATEDRECTD102*%

G04:AMPARAMS|DCode=103|XSize=0.7mm|YSize=0.85mm|CornerRadius=0mm|HoleSize=0mm|Usage=FLASHONLY|Rotation=130.000|XOffset=0mm|YOffset=0mm|HoleType=Round|Shape=Rectangle|*
%AMROTATEDRECTD103*
4,1,4,0.5505,0.0051,-0.1006,-0.5413,-0.5505,-0.0051,0.1006,0.5413,0.5505,0.0051,0.0*
%
%ADD103ROTATEDRECTD103*%

G04:AMPARAMS|DCode=104|XSize=0.74mm|YSize=0.7mm|CornerRadius=0mm|HoleSize=0mm|Usage=FLASHONLY|Rotation=220.000|XOffset=0mm|YOffset=0mm|HoleType=Round|Shape=Rectangle|*
%AMROTATEDRECTD104*
4,1,4,0.0585,0.5060,0.5084,-0.0303,-0.0585,-0.5060,-0.5084,0.0303,0.0585,0.5060,0.0*
%
%ADD104ROTATEDRECTD104*%

%ADD105R,0.9000X1.0000*%
%ADD106R,0.3200X0.7500*%
%ADD107R,0.3200X0.6500*%
%ADD108R,0.6500X0.3200*%
G04:AMPARAMS|DCode=109|XSize=0.75mm|YSize=0.32mm|CornerRadius=0mm|HoleSize=0mm|Usage=FLASHONLY|Rotation=250.000|XOffset=0mm|YOffset=0mm|HoleType=Round|Shape=Rectangle|*
%AMROTATEDRECTD109*
4,1,4,-0.0221,0.4071,0.2786,0.2977,0.0221,-0.4071,-0.2786,-0.2977,-0.0221,0.4071,0.0*
%
%ADD109ROTATEDRECTD109*%

G04:AMPARAMS|DCode=110|XSize=0.65mm|YSize=0.32mm|CornerRadius=0mm|HoleSize=0mm|Usage=FLASHONLY|Rotation=250.000|XOffset=0mm|YOffset=0mm|HoleType=Round|Shape=Rectangle|*
%AMROTATEDRECTD110*
4,1,4,-0.0392,0.3601,0.2615,0.2507,0.0392,-0.3601,-0.2615,-0.2507,-0.0392,0.3601,0.0*
%
%ADD110ROTATEDRECTD110*%

G04:AMPARAMS|DCode=111|XSize=0.65mm|YSize=0.32mm|CornerRadius=0mm|HoleSize=0mm|Usage=FLASHONLY|Rotation=340.000|XOffset=0mm|YOffset=0mm|HoleType=Round|Shape=Rectangle|*
%AMROTATEDRECTD111*
4,1,4,-0.3601,-0.0392,-0.2507,0.2615,0.3601,0.0392,0.2507,-0.2615,-0.3601,-0.0392,0.0*
%
%ADD111ROTATEDRECTD111*%

G04:AMPARAMS|DCode=112|XSize=0.375mm|YSize=0.35mm|CornerRadius=0mm|HoleSize=0mm|Usage=FLASHONLY|Rotation=55.000|XOffset=0mm|YOffset=0mm|HoleType=Round|Shape=Rectangle|*
%AMROTATEDRECTD112*
4,1,4,0.0358,-0.2540,-0.2509,-0.0532,-0.0358,0.2540,0.2509,0.0532,0.0358,-0.2540,0.0*
%
%ADD112ROTATEDRECTD112*%

%ADD113R,0.4800X1.2000*%
%ADD114R,0.3300X0.7300*%
%ADD115R,0.7500X0.3200*%
G04:AMPARAMS|DCode=116|XSize=0.75mm|YSize=0.32mm|CornerRadius=0mm|HoleSize=0mm|Usage=FLASHONLY|Rotation=302.000|XOffset=0mm|YOffset=0mm|HoleType=Round|Shape=Rectangle|*
%AMROTATEDRECTD116*
4,1,4,-0.3344,0.2332,-0.0630,0.4028,0.3344,-0.2332,0.0630,-0.4028,-0.3344,0.2332,0.0*
%
%ADD116ROTATEDRECTD116*%

G04:AMPARAMS|DCode=117|XSize=0.65mm|YSize=0.32mm|CornerRadius=0mm|HoleSize=0mm|Usage=FLASHONLY|Rotation=302.000|XOffset=0mm|YOffset=0mm|HoleType=Round|Shape=Rectangle|*
%AMROTATEDRECTD117*
4,1,4,-0.3079,0.1908,-0.0365,0.3604,0.3079,-0.1908,0.0365,-0.3604,-0.3079,0.1908,0.0*
%
%ADD117ROTATEDRECTD117*%

G04:AMPARAMS|DCode=118|XSize=0.65mm|YSize=0.32mm|CornerRadius=0mm|HoleSize=0mm|Usage=FLASHONLY|Rotation=32.000|XOffset=0mm|YOffset=0mm|HoleType=Round|Shape=Rectangle|*
%AMROTATEDRECTD118*
4,1,4,-0.1908,-0.3079,-0.3604,-0.0365,0.1908,0.3079,0.3604,0.0365,-0.1908,-0.3079,0.0*
%
%ADD118ROTATEDRECTD118*%

%ADD119R,0.5000X0.6000*%
%ADD120R,0.3750X0.3500*%
%ADD121R,1.0500X0.4000*%
%ADD122R,1.2500X0.7000*%
%ADD123C,0.5500*%
%ADD124C,0.5000*%
%ADD125C,0.6000*%
%ADD126C,0.7600*%
D68*
X121044Y32101D02*
G03*
X121044Y32101I-2794J0D01*
G01*
X133044D02*
G03*
X133044Y32101I-2794J0D01*
G01*
D69*
X-28750Y-26650D02*
D03*
Y-17850D02*
D03*
X-40750Y-17850D02*
D03*
Y-26650D02*
D03*
X-68500Y-92750D02*
D03*
Y-101550D02*
D03*
X-36250Y-139650D02*
D03*
Y-130850D02*
D03*
X35750Y-65250D02*
D03*
Y-74050D02*
D03*
X24000Y-65250D02*
D03*
Y-74050D02*
D03*
X47500Y-65250D02*
D03*
Y-74050D02*
D03*
X12000Y-134750D02*
D03*
X12000Y-125950D02*
D03*
X-57250Y-50650D02*
D03*
Y-41850D02*
D03*
D70*
X-79000Y-27500D02*
D03*
Y-18500D02*
D03*
X-67000Y-18250D02*
D03*
Y-27250D02*
D03*
X-109500Y25000D02*
D03*
Y34000D02*
D03*
X-115500Y-250D02*
D03*
Y8750D02*
D03*
X-97000Y25000D02*
D03*
Y34000D02*
D03*
D71*
X-103000Y-16000D02*
D03*
X-94000D02*
D03*
D72*
X-81750Y97500D02*
D03*
D73*
X-47902Y101033D02*
D03*
X-56066Y110762D02*
D03*
X-64229Y120491D02*
D03*
X-72393Y130220D02*
D03*
X-91107Y64780D02*
D03*
X-99271Y74509D02*
D03*
X-107434Y84238D02*
D03*
X-115598Y93967D02*
D03*
D74*
X-103000Y13250D02*
D03*
X-98000D02*
D03*
X-93000D02*
D03*
Y-2750D02*
D03*
X-98000D02*
D03*
D75*
X-103000D02*
D03*
D76*
X-152000Y8500D02*
D03*
X-152250Y-1500D02*
D03*
X-151750Y-11500D02*
D03*
D77*
X86000Y-22000D02*
D03*
X96000D02*
D03*
X76000D02*
D03*
X66000D02*
D03*
D78*
X-9358Y50500D02*
D03*
X-23500Y36358D02*
D03*
X-20672Y39186D02*
D03*
X-17844Y42015D02*
D03*
X-15015Y44843D02*
D03*
X-12187Y47672D02*
D03*
X-6530Y53328D02*
D03*
X-3702Y56157D02*
D03*
X-873Y58985D02*
D03*
X1955Y61814D02*
D03*
X4784Y64642D02*
D03*
X7612Y67471D02*
D03*
X50392Y24691D02*
D03*
X47564Y21862D02*
D03*
X44735Y19034D02*
D03*
X41907Y16205D02*
D03*
X39078Y13377D02*
D03*
X36250Y10548D02*
D03*
X33422Y7720D02*
D03*
X30593Y4892D02*
D03*
X27765Y2063D02*
D03*
X24936Y-765D02*
D03*
X22108Y-3594D02*
D03*
X19279Y-6422D02*
D03*
D79*
X-15389Y70639D02*
D03*
X-21611Y76861D02*
D03*
X1111Y87139D02*
D03*
X-5111Y93361D02*
D03*
X-7250Y79000D02*
D03*
X-13472Y85223D02*
D03*
X-40139Y46639D02*
D03*
X-46361Y52861D02*
D03*
X-48639Y38389D02*
D03*
X-54861Y44611D02*
D03*
X-42028Y14028D02*
D03*
X-48250Y20250D02*
D03*
X-63472Y35723D02*
D03*
X-57250Y29500D02*
D03*
D80*
X11500Y96750D02*
D03*
X3722Y104528D02*
D03*
X21400Y106650D02*
D03*
X13621Y114428D02*
D03*
D81*
X25000Y91250D02*
D03*
X31223Y97473D02*
D03*
X33389Y82889D02*
D03*
X39611Y89111D02*
D03*
X41778Y74528D02*
D03*
X48000Y80750D02*
D03*
X55611Y70111D02*
D03*
X49389Y63889D02*
D03*
X89889Y-94111D02*
D03*
X96111Y-87889D02*
D03*
X98304Y-102305D02*
D03*
X104526Y-96082D02*
D03*
X106554Y-110805D02*
D03*
X112776Y-104582D02*
D03*
D82*
X13446Y30524D02*
D03*
D83*
X19279Y67471D02*
D03*
X22108Y64642D02*
D03*
X24936Y61814D02*
D03*
X27765Y58985D02*
D03*
X30593Y56157D02*
D03*
X33421Y53328D02*
D03*
X36250Y50500D02*
D03*
X39078Y47672D02*
D03*
X41907Y44843D02*
D03*
X44735Y42015D02*
D03*
X47564Y39186D02*
D03*
X50392Y36358D02*
D03*
X7612Y-6422D02*
D03*
X4784Y-3594D02*
D03*
X1955Y-765D02*
D03*
X-873Y2063D02*
D03*
X-3701Y4892D02*
D03*
X-6530Y7720D02*
D03*
X-9358Y10548D02*
D03*
X-12187Y13377D02*
D03*
X-15015Y16205D02*
D03*
X-17844Y19034D02*
D03*
X-20672Y21862D02*
D03*
X-23500Y24691D02*
D03*
D84*
X71108Y69968D02*
D03*
X77331Y76190D02*
D03*
D85*
X63500Y62500D02*
D03*
X69722Y56277D02*
D03*
X-29861Y69361D02*
D03*
X-23639Y63139D02*
D03*
D86*
X109864Y108724D02*
D03*
X89358Y88218D02*
D03*
D87*
X-139951Y54264D02*
D03*
X-144868Y35912D02*
D03*
X-123091Y39912D02*
D03*
D88*
X-140250Y19861D02*
D03*
X-148750Y22139D02*
D03*
D89*
X-121946Y65512D02*
D03*
X-133054Y68488D02*
D03*
D90*
X-120500Y-30500D02*
D03*
X-109000D02*
D03*
X-70750Y-57250D02*
D03*
X-82250D02*
D03*
X82500Y-39500D02*
D03*
X71000D02*
D03*
D91*
X-120250Y-88000D02*
D03*
Y-99500D02*
D03*
X-108250Y-108500D02*
D03*
Y-97000D02*
D03*
X-35500Y-77750D02*
D03*
Y-66250D02*
D03*
X12250Y-75500D02*
D03*
Y-64000D02*
D03*
D92*
X-88750Y-115020D02*
D03*
Y-89480D02*
D03*
D93*
Y-109250D02*
D03*
Y-95250D02*
D03*
D94*
X-78500Y-92750D02*
D03*
Y-98750D02*
D03*
Y-105250D02*
D03*
Y-111750D02*
D03*
X-99000D02*
D03*
Y-105250D02*
D03*
Y-98750D02*
D03*
D95*
Y-92750D02*
D03*
D96*
X-84350Y-123000D02*
D03*
X-93150D02*
D03*
X113550Y-10500D02*
D03*
X122350D02*
D03*
X113700Y-22250D02*
D03*
X122500D02*
D03*
X108450Y1500D02*
D03*
X117250D02*
D03*
D97*
X118250Y28952D02*
D03*
Y35200D02*
D03*
X130250Y28952D02*
D03*
Y35200D02*
D03*
D98*
X103476Y-76354D02*
D03*
X108524Y-69146D02*
D03*
D99*
X-17000Y-135250D02*
D03*
X-7500D02*
D03*
Y-116250D02*
D03*
X-17000D02*
D03*
D100*
X-12250Y-125750D02*
D03*
D101*
X-39773Y63023D02*
D03*
X-30227Y53477D02*
D03*
D102*
X-59985Y7512D02*
D03*
X-70238Y17765D02*
D03*
D103*
X-62345Y68196D02*
D03*
X-71155Y60804D02*
D03*
D104*
X-45172Y129879D02*
D03*
X-50828Y136621D02*
D03*
D105*
X71000Y-73000D02*
D03*
X61500Y-53000D02*
D03*
X80500D02*
D03*
X-12000Y-66250D02*
D03*
X-2500Y-86250D02*
D03*
X-21500D02*
D03*
D106*
X134000Y4500D02*
D03*
D107*
X138000Y4000D02*
D03*
X142000D02*
D03*
X146000D02*
D03*
Y19500D02*
D03*
X142000D02*
D03*
X138000D02*
D03*
X134000D02*
D03*
X-50000Y-114250D02*
D03*
X-54000D02*
D03*
X-58000D02*
D03*
X-62000D02*
D03*
Y-137750D02*
D03*
X-58000D02*
D03*
X-54000D02*
D03*
X-50000D02*
D03*
D108*
X151750Y5750D02*
D03*
Y9750D02*
D03*
Y13750D02*
D03*
Y17750D02*
D03*
X128250D02*
D03*
Y13750D02*
D03*
Y9750D02*
D03*
Y5750D02*
D03*
X-48250Y-128000D02*
D03*
Y-124000D02*
D03*
Y-120000D02*
D03*
X-63750D02*
D03*
Y-124000D02*
D03*
Y-128000D02*
D03*
Y-132000D02*
D03*
D109*
X139618Y-48739D02*
D03*
D110*
X136030Y-46901D02*
D03*
X132271Y-45533D02*
D03*
X128512Y-44165D02*
D03*
X123211Y-58731D02*
D03*
X126970Y-60099D02*
D03*
X130729Y-61467D02*
D03*
X134487Y-62835D02*
D03*
D111*
X122511Y-43843D02*
D03*
X121143Y-47602D02*
D03*
X119775Y-51361D02*
D03*
X118406Y-55119D02*
D03*
X140489Y-63157D02*
D03*
X141857Y-59398D02*
D03*
X143225Y-55639D02*
D03*
X144593Y-51881D02*
D03*
D112*
X127831Y-86176D02*
D03*
X124964Y-90272D02*
D03*
X122096Y-94368D02*
D03*
X118000Y-91500D02*
D03*
X113904Y-88632D02*
D03*
X109808Y-85764D02*
D03*
X112676Y-81668D02*
D03*
X115544Y-77573D02*
D03*
X118412Y-73477D02*
D03*
X122508Y-76345D02*
D03*
X126604Y-79213D02*
D03*
X130699Y-82081D02*
D03*
D113*
X-20650Y-38250D02*
D03*
X48150D02*
D03*
D114*
X-4250Y-51500D02*
D03*
X-250D02*
D03*
X3750D02*
D03*
X7750D02*
D03*
X11750D02*
D03*
X15750D02*
D03*
X19750D02*
D03*
X23750D02*
D03*
X27750D02*
D03*
X31750D02*
D03*
Y-25000D02*
D03*
X27750D02*
D03*
X23750D02*
D03*
X19750D02*
D03*
X15750D02*
D03*
X11750D02*
D03*
X7750D02*
D03*
X3750D02*
D03*
X-250D02*
D03*
X-4250D02*
D03*
X35750D02*
D03*
Y-51500D02*
D03*
X-8250Y-25000D02*
D03*
Y-51500D02*
D03*
D115*
X-48750Y-132000D02*
D03*
D116*
X76746Y-114422D02*
D03*
D117*
X73089Y-116118D02*
D03*
X69697Y-118237D02*
D03*
X66305Y-120357D02*
D03*
X74519Y-133502D02*
D03*
X77911Y-131382D02*
D03*
X81303Y-129263D02*
D03*
X84695Y-127143D02*
D03*
D118*
X62356Y-124888D02*
D03*
X64476Y-128280D02*
D03*
X66595Y-131673D02*
D03*
X68715Y-135065D02*
D03*
X88644Y-122612D02*
D03*
X86524Y-119220D02*
D03*
X84405Y-115827D02*
D03*
X82285Y-112435D02*
D03*
D119*
X25750Y-120250D02*
D03*
X32250Y-120250D02*
D03*
X38750D02*
D03*
X45250Y-120250D02*
D03*
Y-135250D02*
D03*
X38750Y-135250D02*
D03*
X32250D02*
D03*
X25750Y-135250D02*
D03*
D120*
X143750Y-22250D02*
D03*
X138750D02*
D03*
X133750D02*
D03*
Y-17250D02*
D03*
Y-12250D02*
D03*
Y-7250D02*
D03*
X138750D02*
D03*
X143750D02*
D03*
X148750D02*
D03*
Y-12250D02*
D03*
Y-17250D02*
D03*
Y-22250D02*
D03*
D121*
X-70500Y-36950D02*
D03*
Y-41950D02*
D03*
Y-46950D02*
D03*
X-83500D02*
D03*
Y-41950D02*
D03*
Y-36950D02*
D03*
D122*
X-128250Y-45500D02*
D03*
Y-55000D02*
D03*
Y-64500D02*
D03*
X-102250D02*
D03*
Y-55000D02*
D03*
Y-45500D02*
D03*
D123*
X-1500Y-105000D02*
D03*
X-35250Y11000D02*
D03*
X29750Y-15000D02*
D03*
X35750D02*
D03*
X53500D02*
D03*
X-53500Y-7000D02*
D03*
X-49000Y-2500D02*
D03*
X-44500Y2000D02*
D03*
X-40000Y6500D02*
D03*
X16000Y-41500D02*
D03*
X-62500Y-82000D02*
D03*
D124*
X47606Y-60084D02*
D03*
X6500Y-64000D02*
D03*
D125*
X-64448Y92437D02*
D03*
X-72108Y86009D02*
D03*
X-79769Y79581D02*
D03*
X-70876Y100098D02*
D03*
X-78536Y93670D02*
D03*
X-86196Y87242D02*
D03*
X-77304Y107758D02*
D03*
X-84964Y101330D02*
D03*
X-92624Y94902D02*
D03*
X-83731Y115419D02*
D03*
X-91392Y108991D02*
D03*
X-99052Y102563D02*
D03*
D126*
X38902Y30524D02*
D03*
X30416Y22039D02*
D03*
X21931Y13554D02*
D03*
X13446Y5068D02*
D03*
X30416Y39009D02*
D03*
X21931Y30524D02*
D03*
X13446Y22039D02*
D03*
X4961Y13554D02*
D03*
X21931Y47495D02*
D03*
X13446Y39009D02*
D03*
X4961Y30524D02*
D03*
X-3525Y22039D02*
D03*
X13446Y55980D02*
D03*
X4961Y47495D02*
D03*
X-3525Y39009D02*
D03*
X-12010Y30524D02*
D03*
M02*
