G04*
G04 #@! TF.GenerationSoftware,Altium Limited,Altium Designer,20.1.7 (139)*
G04*
G04 Layer_Physical_Order=3*
G04 Layer_Color=32768*
%FSLAX44Y44*%
%MOMM*%
G71*
G04*
G04 #@! TF.SameCoordinates,99CDB543-8891-4245-8F14-29871282C811*
G04*
G04*
G04 #@! TF.FilePolarity,Negative*
G04*
G01*
G75*
%ADD10C,0.1000*%
%ADD13C,0.1500*%
%ADD136C,1.0160*%
%ADD137C,0.8000*%
%ADD138C,0.9300*%
D10*
X115161Y-116411D02*
G03*
X115568Y-116580I407J407D01*
G01*
X84591Y-75659D02*
X84598Y-75652D01*
D13*
X-20726Y47533D02*
G03*
X-13661Y52806I2726J3717D01*
G01*
X-32123Y7613D02*
G03*
X-33500Y15265I-3127J3387D01*
G01*
X2832Y69250D02*
G03*
X5750Y79750I1725J5176D01*
G01*
X131618Y-56902D02*
G03*
X134492Y-50429I6132J1152D01*
G01*
X138985Y-32703D02*
G03*
X159500Y-40500I13338J4206D01*
G01*
X95268Y-74768D02*
G03*
X91000Y-73000I-4268J-4268D01*
G01*
D02*
G03*
X84598Y-75652I0J-9053D01*
G01*
X84591Y-75659D02*
G03*
X83000Y-79500I3841J-3841D01*
G01*
D02*
G03*
X86359Y-87609I11467J0D01*
G01*
X115568Y-116580D02*
G03*
X159581Y-40520I-110857J114914D01*
G01*
X112053Y-91553D02*
G03*
X131489Y-56849I-128505J94769D01*
G01*
X-33500Y34750D02*
X-20750Y47500D01*
X-33500Y15250D02*
Y34750D01*
X-32118Y7618D02*
X-9250Y-15250D01*
X-18500Y91500D02*
Y95500D01*
Y91500D02*
X-16250Y89250D01*
X-3750D01*
X5750Y79750D01*
X-16000Y98000D02*
X-1250D01*
X-18500Y95500D02*
X-16000Y98000D01*
X-10500Y-53750D02*
Y-26250D01*
Y-53750D02*
X4250Y-68500D01*
X10260D01*
X-1750Y-47490D02*
X10260Y-59500D01*
X-1750Y-47490D02*
Y-26250D01*
X47250Y-22750D02*
X54000D01*
X43000Y-27000D02*
X47250Y-22750D01*
X43000Y-61500D02*
Y-27000D01*
X50000Y-63750D02*
X52000Y-61750D01*
Y-31250D02*
X54000Y-29250D01*
X52000Y-61750D02*
Y-31250D01*
X45250Y-63750D02*
X50000D01*
X54000Y-29250D02*
Y-22750D01*
X43000Y-61500D02*
X45250Y-63750D01*
X14000Y-13500D02*
Y-9250D01*
X12250Y-15250D02*
X14000Y-13500D01*
X-9250Y-15250D02*
X12250D01*
X-4750Y-7000D02*
X11750D01*
X14000Y-9250D01*
X-67250Y-80000D02*
X-64500Y-77250D01*
X9500D01*
X27000Y-94750D01*
X37250D01*
X40000Y-97500D01*
Y-102000D02*
Y-97500D01*
X37750Y-104250D02*
X40000Y-102000D01*
X23500Y-104250D02*
X37750D01*
X6000Y-86750D02*
X23500Y-104250D01*
X-64500Y-86750D02*
X6000D01*
X-67250Y-84000D02*
X-64500Y-86750D01*
X-67250Y-84000D02*
Y-80000D01*
X5000Y-119250D02*
Y-115750D01*
Y-119250D02*
X7750Y-122000D01*
X73250D01*
X5000Y-115750D02*
X7500Y-113250D01*
X69000D01*
X-13709Y52709D02*
X2832Y69250D01*
X17000Y70000D02*
Y79750D01*
X-24000Y29000D02*
X17000Y70000D01*
X-1250Y98000D02*
X17000Y79750D01*
X-24000Y12250D02*
Y29000D01*
Y12250D02*
X-4750Y-7000D01*
X134492Y-50429D02*
X138982Y-32894D01*
X81250Y-105250D02*
X83750Y-107750D01*
X77000Y-105250D02*
X81250D01*
X73250Y-122000D02*
X83750Y-111500D01*
Y-107750D01*
X69000Y-113250D02*
X77000Y-105250D01*
X10260Y-68500D02*
Y-59500D01*
X-10500Y-26250D02*
X-1750D01*
X95268Y-74768D02*
X112053Y-91553D01*
X86359Y-87609D02*
X115161Y-116411D01*
D136*
X-68750Y150000D02*
G03*
X-68750Y-150000I68750J-150000D01*
G01*
X68750D02*
G03*
X68750Y150000I-68750J150000D01*
G01*
X-68750Y-150000D02*
X68746Y-150004D01*
X68750Y-150000D01*
X68746Y149996D02*
X68750Y150000D01*
X-68748Y149996D02*
X68746D01*
X-68750Y150000D02*
X-68748Y149996D01*
D137*
X129075Y53655D02*
D03*
X65575Y129855D02*
D03*
X40175D02*
D03*
X52875Y104455D02*
D03*
X14775Y129855D02*
D03*
X-10625D02*
D03*
X-36025D02*
D03*
X-23325Y104455D02*
D03*
Y-47945D02*
D03*
X-61425Y79055D02*
D03*
X-48725Y-47945D02*
D03*
X-86825Y129855D02*
D03*
Y28255D02*
D03*
X-112225Y-22545D02*
D03*
X-137625Y28255D02*
D03*
X-124925Y2855D02*
D03*
X-137625Y-22545D02*
D03*
X94000Y16250D02*
D03*
X33250Y-107500D02*
D03*
X56250Y-100500D02*
D03*
X61500Y-102250D02*
D03*
X66750Y-107377D02*
D03*
X80250Y-122250D02*
D03*
X-1500Y-105000D02*
D03*
X-35250Y11000D02*
D03*
X-17250Y57500D02*
D03*
X-13500Y62250D02*
D03*
X-9250Y66750D02*
D03*
X-18000Y51250D02*
D03*
X-5750Y71253D02*
D03*
X-1000Y74500D02*
D03*
X4750D02*
D03*
X23250Y-16000D02*
D03*
X29750Y-15000D02*
D03*
X16500D02*
D03*
X35750D02*
D03*
X41500D02*
D03*
X53500D02*
D03*
X47000D02*
D03*
X-151750Y-11500D02*
D03*
X-152250Y-1500D02*
D03*
X-152000Y8500D02*
D03*
X-24250Y-124000D02*
D03*
X-28750Y-130250D02*
D03*
X68000Y11000D02*
D03*
X134750Y12000D02*
D03*
X142000Y-2250D02*
D03*
X155000Y-28750D02*
D03*
X146000Y-33000D02*
D03*
X137500Y-12500D02*
D03*
X155000Y-2750D02*
D03*
X-36250Y112158D02*
D03*
X61447Y55914D02*
D03*
X48921Y56057D02*
D03*
X53754Y58682D02*
D03*
X-80750Y37750D02*
D03*
X-76851Y66500D02*
D03*
X-113021Y79021D02*
D03*
X-104825Y69325D02*
D03*
X-58750Y-21250D02*
D03*
X-57750Y-11500D02*
D03*
X-53500Y-7000D02*
D03*
X-49000Y-2500D02*
D03*
X-44500Y2000D02*
D03*
X-40000Y6500D02*
D03*
X-46599Y119859D02*
D03*
X103000Y-85000D02*
D03*
X94000Y27250D02*
D03*
Y21750D02*
D03*
Y33750D02*
D03*
X86000Y-10000D02*
D03*
X96000D02*
D03*
X68000Y-1250D02*
D03*
Y5250D02*
D03*
X63250Y31250D02*
D03*
X57000Y29500D02*
D03*
X76000Y-10000D02*
D03*
X132256Y-2500D02*
D03*
X22500Y-41250D02*
D03*
X34483Y-40778D02*
D03*
X28000Y-41250D02*
D03*
X4750Y-41750D02*
D03*
X10250Y-41500D02*
D03*
X16000D02*
D03*
X3370Y-32120D02*
D03*
X-107500Y4000D02*
D03*
X-111500Y13250D02*
D03*
X-88000Y-16000D02*
D03*
X-157500Y26000D02*
D03*
X-139199Y61256D02*
D03*
X-121092Y88842D02*
D03*
X-58550Y125800D02*
D03*
X-64448Y92437D02*
D03*
X-72108Y86009D02*
D03*
X-79769Y79581D02*
D03*
X-70876Y100098D02*
D03*
X-78536Y93670D02*
D03*
X-86196Y87242D02*
D03*
X-77304Y107758D02*
D03*
X-84964Y101330D02*
D03*
X-92624Y94902D02*
D03*
X-83731Y115419D02*
D03*
X-91392Y108991D02*
D03*
X-99052Y102563D02*
D03*
X-57250Y-65500D02*
D03*
X-57000Y-58000D02*
D03*
X125000Y-30000D02*
D03*
X133000D02*
D03*
X122750Y-66000D02*
D03*
X127000Y-52000D02*
D03*
X116250Y-37750D02*
D03*
X142000Y12500D02*
D03*
X135750Y40000D02*
D03*
X123500D02*
D03*
D138*
X38902Y30524D02*
D03*
X30416Y22039D02*
D03*
X21931Y13554D02*
D03*
X13446Y5068D02*
D03*
X30416Y39009D02*
D03*
X21931Y30524D02*
D03*
X13446Y22039D02*
D03*
X4961Y13554D02*
D03*
X21931Y47495D02*
D03*
X13446Y39009D02*
D03*
X4961Y30524D02*
D03*
X-3525Y22039D02*
D03*
X13446Y55980D02*
D03*
X4961Y47495D02*
D03*
X-3525Y39009D02*
D03*
X-12010Y30524D02*
D03*
M02*
