G04*
G04 #@! TF.GenerationSoftware,Altium Limited,Altium Designer,20.1.7 (139)*
G04*
G04 Layer_Physical_Order=1*
G04 Layer_Color=255*
%FSLAX44Y44*%
%MOMM*%
G71*
G04*
G04 #@! TF.SameCoordinates,99CDB543-8891-4245-8F14-29871282C811*
G04*
G04*
G04 #@! TF.FilePolarity,Positive*
G04*
G01*
G75*
%ADD10C,0.1000*%
%ADD11C,0.2000*%
%ADD13C,0.1500*%
%ADD14C,0.1524*%
%ADD16R,0.6400X0.6000*%
%ADD17R,0.6000X0.7000*%
%ADD18R,0.7000X0.6000*%
G04:AMPARAMS|DCode=19|XSize=0.45mm|YSize=1.05mm|CornerRadius=0mm|HoleSize=0mm|Usage=FLASHONLY|Rotation=130.000|XOffset=0mm|YOffset=0mm|HoleType=Round|Shape=Round|*
%AMOVALD19*
21,1,0.6000,0.4500,0.0000,0.0000,220.0*
1,1,0.4500,0.2298,0.1928*
1,1,0.4500,-0.2298,-0.1928*
%
%ADD19OVALD19*%

%ADD20R,0.3000X0.8500*%
G04:AMPARAMS|DCode=21|XSize=0.85mm|YSize=0.3mm|CornerRadius=0mm|HoleSize=0mm|Usage=FLASHONLY|Rotation=90.000|XOffset=0mm|YOffset=0mm|HoleType=Round|Shape=Octagon|*
%AMOCTAGOND21*
4,1,8,0.0750,0.4250,-0.0750,0.4250,-0.1500,0.3500,-0.1500,-0.3500,-0.0750,-0.4250,0.0750,-0.4250,0.1500,-0.3500,0.1500,0.3500,0.0750,0.4250,0.0*
%
%ADD21OCTAGOND21*%

G04:AMPARAMS|DCode=22|XSize=0.5mm|YSize=2mm|CornerRadius=0mm|HoleSize=0mm|Usage=FLASHONLY|Rotation=270.000|XOffset=0mm|YOffset=0mm|HoleType=Round|Shape=Octagon|*
%AMOCTAGOND22*
4,1,8,1.0000,0.1250,1.0000,-0.1250,0.8750,-0.2500,-0.8750,-0.2500,-1.0000,-0.1250,-1.0000,0.1250,-0.8750,0.2500,0.8750,0.2500,1.0000,0.1250,0.0*
%
%ADD22OCTAGOND22*%

G04:AMPARAMS|DCode=23|XSize=0.5mm|YSize=2mm|CornerRadius=0mm|HoleSize=0mm|Usage=FLASHONLY|Rotation=0.000|XOffset=0mm|YOffset=0mm|HoleType=Round|Shape=Octagon|*
%AMOCTAGOND23*
4,1,8,-0.1250,1.0000,0.1250,1.0000,0.2500,0.8750,0.2500,-0.8750,0.1250,-1.0000,-0.1250,-1.0000,-0.2500,-0.8750,-0.2500,0.8750,-0.1250,1.0000,0.0*
%
%ADD23OCTAGOND23*%

G04:AMPARAMS|DCode=24|XSize=0.2mm|YSize=0.65mm|CornerRadius=0mm|HoleSize=0mm|Usage=FLASHONLY|Rotation=45.000|XOffset=0mm|YOffset=0mm|HoleType=Round|Shape=Round|*
%AMOVALD24*
21,1,0.4500,0.2000,0.0000,0.0000,135.0*
1,1,0.2000,0.1591,-0.1591*
1,1,0.2000,-0.1591,0.1591*
%
%ADD24OVALD24*%

G04:AMPARAMS|DCode=25|XSize=0.64mm|YSize=0.6mm|CornerRadius=0mm|HoleSize=0mm|Usage=FLASHONLY|Rotation=45.000|XOffset=0mm|YOffset=0mm|HoleType=Round|Shape=Rectangle|*
%AMROTATEDRECTD25*
4,1,4,-0.0141,-0.4384,-0.4384,-0.0141,0.0141,0.4384,0.4384,0.0141,-0.0141,-0.4384,0.0*
%
%ADD25ROTATEDRECTD25*%

G04:AMPARAMS|DCode=26|XSize=0.8mm|YSize=0.9mm|CornerRadius=0mm|HoleSize=0mm|Usage=FLASHONLY|Rotation=315.000|XOffset=0mm|YOffset=0mm|HoleType=Round|Shape=Rectangle|*
%AMROTATEDRECTD26*
4,1,4,-0.6010,-0.0354,0.0354,0.6010,0.6010,0.0354,-0.0354,-0.6010,-0.6010,-0.0354,0.0*
%
%ADD26ROTATEDRECTD26*%

G04:AMPARAMS|DCode=27|XSize=0.64mm|YSize=0.6mm|CornerRadius=0mm|HoleSize=0mm|Usage=FLASHONLY|Rotation=315.000|XOffset=0mm|YOffset=0mm|HoleType=Round|Shape=Rectangle|*
%AMROTATEDRECTD27*
4,1,4,-0.4384,0.0141,-0.0141,0.4384,0.4384,-0.0141,0.0141,-0.4384,-0.4384,0.0141,0.0*
%
%ADD27ROTATEDRECTD27*%

%ADD28P,6.6468X4X90.0*%
G04:AMPARAMS|DCode=29|XSize=0.2mm|YSize=0.65mm|CornerRadius=0mm|HoleSize=0mm|Usage=FLASHONLY|Rotation=135.000|XOffset=0mm|YOffset=0mm|HoleType=Round|Shape=Round|*
%AMOVALD29*
21,1,0.4500,0.2000,0.0000,0.0000,225.0*
1,1,0.2000,0.1591,0.1591*
1,1,0.2000,-0.1591,-0.1591*
%
%ADD29OVALD29*%

G04:AMPARAMS|DCode=30|XSize=0.54mm|YSize=0.48mm|CornerRadius=0mm|HoleSize=0mm|Usage=FLASHONLY|Rotation=135.000|XOffset=0mm|YOffset=0mm|HoleType=Round|Shape=Rectangle|*
%AMROTATEDRECTD30*
4,1,4,0.3606,-0.0212,0.0212,-0.3606,-0.3606,0.0212,-0.0212,0.3606,0.3606,-0.0212,0.0*
%
%ADD30ROTATEDRECTD30*%

G04:AMPARAMS|DCode=31|XSize=0.54mm|YSize=0.48mm|CornerRadius=0mm|HoleSize=0mm|Usage=FLASHONLY|Rotation=45.000|XOffset=0mm|YOffset=0mm|HoleType=Round|Shape=Rectangle|*
%AMROTATEDRECTD31*
4,1,4,-0.0212,-0.3606,-0.3606,-0.0212,0.0212,0.3606,0.3606,0.0212,-0.0212,-0.3606,0.0*
%
%ADD31ROTATEDRECTD31*%

G04:AMPARAMS|DCode=32|XSize=1.8mm|YSize=1.2mm|CornerRadius=0mm|HoleSize=0mm|Usage=FLASHONLY|Rotation=135.000|XOffset=0mm|YOffset=0mm|HoleType=Round|Shape=Rectangle|*
%AMROTATEDRECTD32*
4,1,4,1.0607,-0.2121,0.2121,-1.0607,-1.0607,0.2121,-0.2121,1.0607,1.0607,-0.2121,0.0*
%
%ADD32ROTATEDRECTD32*%

G04:AMPARAMS|DCode=33|XSize=0.8mm|YSize=0.9mm|CornerRadius=0mm|HoleSize=0mm|Usage=FLASHONLY|Rotation=75.000|XOffset=0mm|YOffset=0mm|HoleType=Round|Shape=Rectangle|*
%AMROTATEDRECTD33*
4,1,4,0.3311,-0.5028,-0.5382,-0.2699,-0.3311,0.5028,0.5382,0.2699,0.3311,-0.5028,0.0*
%
%ADD33ROTATEDRECTD33*%

G04:AMPARAMS|DCode=34|XSize=0.64mm|YSize=0.6mm|CornerRadius=0mm|HoleSize=0mm|Usage=FLASHONLY|Rotation=255.000|XOffset=0mm|YOffset=0mm|HoleType=Round|Shape=Rectangle|*
%AMROTATEDRECTD34*
4,1,4,-0.2070,0.3867,0.3726,0.2314,0.2070,-0.3867,-0.3726,-0.2314,-0.2070,0.3867,0.0*
%
%ADD34ROTATEDRECTD34*%

G04:AMPARAMS|DCode=35|XSize=0.6mm|YSize=0.75mm|CornerRadius=0mm|HoleSize=0mm|Usage=FLASHONLY|Rotation=75.000|XOffset=0mm|YOffset=0mm|HoleType=Round|Shape=Rectangle|*
%AMROTATEDRECTD35*
4,1,4,0.2846,-0.3868,-0.4399,-0.1927,-0.2846,0.3868,0.4399,0.1927,0.2846,-0.3868,0.0*
%
%ADD35ROTATEDRECTD35*%

%ADD36R,0.7500X0.6000*%
%ADD37R,0.6000X0.7500*%
%ADD38R,0.3500X0.2500*%
%ADD39R,1.2500X0.9000*%
%ADD40R,0.4000X0.3500*%
%ADD41R,0.4000X0.4500*%
%ADD42R,0.6000X0.6400*%
G04:AMPARAMS|DCode=43|XSize=0.64mm|YSize=0.6mm|CornerRadius=0mm|HoleSize=0mm|Usage=FLASHONLY|Rotation=145.000|XOffset=0mm|YOffset=0mm|HoleType=Round|Shape=Rectangle|*
%AMROTATEDRECTD43*
4,1,4,0.4342,0.0622,0.0901,-0.4293,-0.4342,-0.0622,-0.0901,0.4293,0.4342,0.0622,0.0*
%
%ADD43ROTATEDRECTD43*%

%ADD44R,0.4000X0.6000*%
%ADD45R,1.7000X0.7000*%
G04:AMPARAMS|DCode=46|XSize=0.8mm|YSize=0.75mm|CornerRadius=0mm|HoleSize=0mm|Usage=FLASHONLY|Rotation=45.000|XOffset=0mm|YOffset=0mm|HoleType=Round|Shape=Rectangle|*
%AMROTATEDRECTD46*
4,1,4,-0.0177,-0.5480,-0.5480,-0.0177,0.0177,0.5480,0.5480,0.0177,-0.0177,-0.5480,0.0*
%
%ADD46ROTATEDRECTD46*%

G04:AMPARAMS|DCode=47|XSize=0.75mm|YSize=1.4mm|CornerRadius=0mm|HoleSize=0mm|Usage=FLASHONLY|Rotation=315.000|XOffset=0mm|YOffset=0mm|HoleType=Round|Shape=Rectangle|*
%AMROTATEDRECTD47*
4,1,4,-0.7601,-0.2298,0.2298,0.7601,0.7601,0.2298,-0.2298,-0.7601,-0.7601,-0.2298,0.0*
%
%ADD47ROTATEDRECTD47*%

G04:AMPARAMS|DCode=48|XSize=0.6mm|YSize=0.75mm|CornerRadius=0mm|HoleSize=0mm|Usage=FLASHONLY|Rotation=130.000|XOffset=0mm|YOffset=0mm|HoleType=Round|Shape=Rectangle|*
%AMROTATEDRECTD48*
4,1,4,0.4801,0.0112,-0.0944,-0.4709,-0.4801,-0.0112,0.0944,0.4709,0.4801,0.0112,0.0*
%
%ADD48ROTATEDRECTD48*%

G04:AMPARAMS|DCode=49|XSize=0.64mm|YSize=0.6mm|CornerRadius=0mm|HoleSize=0mm|Usage=FLASHONLY|Rotation=220.000|XOffset=0mm|YOffset=0mm|HoleType=Round|Shape=Rectangle|*
%AMROTATEDRECTD49*
4,1,4,0.0523,0.4355,0.4380,-0.0241,-0.0523,-0.4355,-0.4380,0.0241,0.0523,0.4355,0.0*
%
%ADD49ROTATEDRECTD49*%

%ADD50R,0.8000X0.9000*%
%ADD51R,0.2200X0.6500*%
%ADD52R,0.2200X0.5500*%
%ADD53R,0.5500X0.2200*%
G04:AMPARAMS|DCode=54|XSize=0.65mm|YSize=0.22mm|CornerRadius=0mm|HoleSize=0mm|Usage=FLASHONLY|Rotation=250.000|XOffset=0mm|YOffset=0mm|HoleType=Round|Shape=Rectangle|*
%AMROTATEDRECTD54*
4,1,4,0.0078,0.3430,0.2145,0.2678,-0.0078,-0.3430,-0.2145,-0.2678,0.0078,0.3430,0.0*
%
%ADD54ROTATEDRECTD54*%

G04:AMPARAMS|DCode=55|XSize=0.55mm|YSize=0.22mm|CornerRadius=0mm|HoleSize=0mm|Usage=FLASHONLY|Rotation=250.000|XOffset=0mm|YOffset=0mm|HoleType=Round|Shape=Rectangle|*
%AMROTATEDRECTD55*
4,1,4,-0.0093,0.2960,0.1974,0.2208,0.0093,-0.2960,-0.1974,-0.2208,-0.0093,0.2960,0.0*
%
%ADD55ROTATEDRECTD55*%

G04:AMPARAMS|DCode=56|XSize=0.55mm|YSize=0.22mm|CornerRadius=0mm|HoleSize=0mm|Usage=FLASHONLY|Rotation=340.000|XOffset=0mm|YOffset=0mm|HoleType=Round|Shape=Rectangle|*
%AMROTATEDRECTD56*
4,1,4,-0.2960,-0.0093,-0.2208,0.1974,0.2960,0.0093,0.2208,-0.1974,-0.2960,-0.0093,0.0*
%
%ADD56ROTATEDRECTD56*%

G04:AMPARAMS|DCode=57|XSize=0.275mm|YSize=0.25mm|CornerRadius=0mm|HoleSize=0mm|Usage=FLASHONLY|Rotation=55.000|XOffset=0mm|YOffset=0mm|HoleType=Round|Shape=Rectangle|*
%AMROTATEDRECTD57*
4,1,4,0.0235,-0.1843,-0.1813,-0.0409,-0.0235,0.1843,0.1813,0.0409,0.0235,-0.1843,0.0*
%
%ADD57ROTATEDRECTD57*%

%ADD58R,0.3800X1.1000*%
%ADD59R,0.2300X0.6300*%
%ADD60R,0.6500X0.2200*%
G04:AMPARAMS|DCode=61|XSize=0.65mm|YSize=0.22mm|CornerRadius=0mm|HoleSize=0mm|Usage=FLASHONLY|Rotation=302.000|XOffset=0mm|YOffset=0mm|HoleType=Round|Shape=Rectangle|*
%AMROTATEDRECTD61*
4,1,4,-0.2655,0.2173,-0.0789,0.3339,0.2655,-0.2173,0.0789,-0.3339,-0.2655,0.2173,0.0*
%
%ADD61ROTATEDRECTD61*%

G04:AMPARAMS|DCode=62|XSize=0.55mm|YSize=0.22mm|CornerRadius=0mm|HoleSize=0mm|Usage=FLASHONLY|Rotation=302.000|XOffset=0mm|YOffset=0mm|HoleType=Round|Shape=Rectangle|*
%AMROTATEDRECTD62*
4,1,4,-0.2390,0.1749,-0.0524,0.2915,0.2390,-0.1749,0.0524,-0.2915,-0.2390,0.1749,0.0*
%
%ADD62ROTATEDRECTD62*%

G04:AMPARAMS|DCode=63|XSize=0.55mm|YSize=0.22mm|CornerRadius=0mm|HoleSize=0mm|Usage=FLASHONLY|Rotation=32.000|XOffset=0mm|YOffset=0mm|HoleType=Round|Shape=Rectangle|*
%AMROTATEDRECTD63*
4,1,4,-0.1749,-0.2390,-0.2915,-0.0524,0.1749,0.2390,0.2915,0.0524,-0.1749,-0.2390,0.0*
%
%ADD63ROTATEDRECTD63*%

%ADD64R,0.4000X0.5000*%
%ADD65R,0.2750X0.2500*%
%ADD66R,0.9500X0.3000*%
%ADD67R,1.1500X0.6000*%
G04:AMPARAMS|DCode=72|XSize=4.3mm|YSize=3.4mm|CornerRadius=0mm|HoleSize=0mm|Usage=FLASHONLY|Rotation=130.000|XOffset=0mm|YOffset=0mm|HoleType=Round|Shape=Rectangle|*
%AMROTATEDRECTD72*
4,1,4,2.6843,-0.5543,0.0797,-2.7397,-2.6843,0.5543,-0.0797,2.7397,2.6843,-0.5543,0.0*
%
%ADD72ROTATEDRECTD72*%

%ADD124C,0.5000*%
%ADD127C,0.2000*%
%ADD128C,0.1050*%
%ADD129C,0.1300*%
%ADD130C,0.3000*%
%ADD131C,0.1720*%
%ADD132C,0.5000*%
%ADD133C,0.4000*%
%ADD134C,0.4500*%
%ADD135C,0.6600*%
G36*
X131469Y37511D02*
X132180Y37257D01*
X133552Y36419D01*
X134365Y35581D01*
X134940Y34663D01*
X135254Y33651D01*
X135076Y33143D01*
X134550Y32843D01*
X125930D01*
X125195Y33600D01*
X125580Y34783D01*
X126008Y35429D01*
X126745Y36165D01*
X127329Y36699D01*
X128320Y37283D01*
X129259Y37562D01*
X131469Y37511D01*
D02*
G37*
G36*
X119469D02*
X120180Y37257D01*
X121552Y36419D01*
X122365Y35581D01*
X122940Y34663D01*
X123254Y33651D01*
X123076Y33143D01*
X122550Y32843D01*
X113930D01*
X113195Y33600D01*
X113580Y34783D01*
X114008Y35429D01*
X114745Y36165D01*
X115329Y36699D01*
X116320Y37283D01*
X117259Y37562D01*
X119469Y37511D01*
D02*
G37*
G36*
X135305Y30552D02*
X134920Y29368D01*
X134492Y28723D01*
X133755Y27986D01*
X133171Y27453D01*
X132180Y26869D01*
X131241Y26589D01*
X129031Y26640D01*
X128320Y26894D01*
X126948Y27732D01*
X126135Y28571D01*
X125560Y29488D01*
X125246Y30501D01*
X125424Y31009D01*
X125950Y31308D01*
X134570D01*
X135305Y30552D01*
D02*
G37*
G36*
X123305D02*
X122920Y29368D01*
X122492Y28723D01*
X121755Y27986D01*
X121171Y27453D01*
X120180Y26869D01*
X119241Y26589D01*
X117031Y26640D01*
X116320Y26894D01*
X114948Y27732D01*
X114135Y28571D01*
X113560Y29488D01*
X113246Y30501D01*
X113424Y31009D01*
X113950Y31308D01*
X122570D01*
X123305Y30552D01*
D02*
G37*
G36*
X74170Y145567D02*
X85363Y139299D01*
X88618Y137124D01*
X88742Y135860D01*
X44979Y92097D01*
X44503Y90949D01*
X44979Y89801D01*
X54765Y80015D01*
X65014Y69767D01*
X63466Y68219D01*
X61916Y69769D01*
X62117Y69970D01*
X61173Y70913D01*
X61104Y71079D01*
X56579Y75605D01*
X56413Y75673D01*
X55470Y76617D01*
X54526Y75673D01*
X54361Y75605D01*
X50118Y71362D01*
X50049Y71196D01*
D01*
X48304Y69451D01*
X48138Y69382D01*
X43896Y65139D01*
X43827Y64974D01*
X43757Y64904D01*
X42883Y64030D01*
X43827Y63087D01*
X43896Y62921D01*
X44516Y62301D01*
X36553Y54338D01*
X36475Y54306D01*
X36255Y54085D01*
X35966Y53966D01*
X32785Y50784D01*
X32665Y50495D01*
X32444Y50275D01*
X32127Y49509D01*
Y49509D01*
X32127Y49509D01*
X32127Y48996D01*
X32110Y48909D01*
X32127Y48822D01*
Y48309D01*
X32127Y48309D01*
X32444Y47544D01*
X32444Y47543D01*
X32807Y47181D01*
X32857Y47107D01*
X32931Y47057D01*
X33293Y46694D01*
X33293Y46694D01*
X34059Y46377D01*
X34938Y46081D01*
X35133Y45105D01*
X35685Y44278D01*
X36512Y43726D01*
X37487Y43532D01*
X37767Y43252D01*
X37961Y42277D01*
X38514Y41450D01*
X39340Y40897D01*
X40316Y40703D01*
X40595Y40424D01*
X40789Y39448D01*
X41342Y38621D01*
X42169Y38069D01*
X43144Y37875D01*
X43424Y37595D01*
X43618Y36620D01*
X44170Y35793D01*
X44997Y35240D01*
X45973Y35046D01*
X46252Y34767D01*
X46446Y33791D01*
X46999Y32964D01*
X47826Y32412D01*
X48801Y32218D01*
X49777Y32412D01*
X50416Y32839D01*
X53485Y29771D01*
X53431Y29500D01*
X53703Y28134D01*
X54477Y26977D01*
X55634Y26203D01*
X57000Y25931D01*
X58366Y26203D01*
X59523Y26977D01*
X60051Y27767D01*
X60310Y28135D01*
X61594Y28147D01*
X61884Y27953D01*
X63250Y27681D01*
X64616Y27953D01*
X65773Y28727D01*
X66258Y29452D01*
X67723Y29783D01*
X77378Y20128D01*
X77847Y19814D01*
X77570Y18544D01*
X59783D01*
X54359Y23968D01*
X54338Y24075D01*
X53786Y24902D01*
X50603Y28084D01*
X49777Y28637D01*
X48801Y28830D01*
X47826Y28637D01*
X46999Y28084D01*
X46446Y27257D01*
X46252Y26282D01*
X45973Y26002D01*
X44997Y25808D01*
X44170Y25256D01*
X43618Y24429D01*
X43424Y23453D01*
X43144Y23174D01*
X42169Y22980D01*
X41342Y22427D01*
X40789Y21600D01*
X40595Y20625D01*
X40316Y20345D01*
X39340Y20151D01*
X38514Y19599D01*
X37961Y18772D01*
X37767Y17796D01*
X37487Y17517D01*
X36512Y17323D01*
X35685Y16770D01*
X35133Y15943D01*
X34938Y14968D01*
X34659Y14688D01*
X33684Y14494D01*
X32857Y13942D01*
X32304Y13115D01*
X32110Y12140D01*
X31830Y11860D01*
X30855Y11666D01*
X30028Y11113D01*
X29476Y10287D01*
X29282Y9311D01*
X29002Y9032D01*
X28027Y8838D01*
X27200Y8285D01*
X26647Y7458D01*
X26453Y6483D01*
X26174Y6203D01*
X25198Y6009D01*
X24371Y5457D01*
X23819Y4630D01*
X23625Y3654D01*
X23345Y3375D01*
X22370Y3181D01*
X21543Y2628D01*
X20990Y1801D01*
X20796Y826D01*
X20517Y546D01*
X19541Y352D01*
X18714Y-200D01*
X18162Y-1027D01*
X17968Y-2003D01*
X17688Y-2282D01*
X16713Y-2476D01*
X15886Y-3029D01*
X15333Y-3856D01*
X15139Y-4831D01*
X15333Y-5807D01*
X15717Y-6380D01*
X14146Y-7951D01*
X11484D01*
X11293Y-7717D01*
X11006Y-6633D01*
X11558Y-5807D01*
X11752Y-4831D01*
X11558Y-3856D01*
X11006Y-3029D01*
X10179Y-2476D01*
X9203Y-2282D01*
X8924Y-2003D01*
X8730Y-1027D01*
X8177Y-200D01*
X7350Y352D01*
X6375Y546D01*
X6095Y826D01*
X5901Y1801D01*
X5349Y2628D01*
X4522Y3181D01*
X3546Y3375D01*
X3267Y3654D01*
X3073Y4630D01*
X2520Y5457D01*
X1693Y6009D01*
X718Y6203D01*
X438Y6483D01*
X244Y7458D01*
X-308Y8285D01*
X-1135Y8838D01*
X-2111Y9032D01*
X-2390Y9311D01*
X-2584Y10287D01*
X-3137Y11113D01*
X-3963Y11666D01*
X-4939Y11860D01*
X-5218Y12140D01*
X-5412Y13115D01*
X-5965Y13942D01*
X-6792Y14494D01*
X-7767Y14688D01*
X-8047Y14968D01*
X-8241Y15943D01*
X-8794Y16770D01*
X-9620Y17323D01*
X-10596Y17517D01*
X-10875Y17796D01*
X-11069Y18772D01*
X-11622Y19599D01*
X-12449Y20151D01*
X-13424Y20345D01*
X-13704Y20625D01*
X-13898Y21600D01*
X-14450Y22427D01*
X-15277Y22980D01*
X-16253Y23174D01*
X-16532Y23453D01*
X-16726Y24429D01*
X-17279Y25256D01*
X-18106Y25808D01*
X-19081Y26002D01*
X-19361Y26282D01*
X-19555Y27257D01*
X-20107Y28084D01*
X-20934Y28637D01*
X-21909Y28830D01*
X-22885Y28637D01*
X-23712Y28084D01*
X-26402Y25394D01*
X-32399D01*
X-43835Y36829D01*
X-42133Y38530D01*
X-48497Y44894D01*
X-55144Y38247D01*
X-56177Y38428D01*
X-59531D01*
X-63331Y42228D01*
X-69978Y35581D01*
X-68418Y34021D01*
X-69562Y32878D01*
X-70059Y32133D01*
X-70234Y31255D01*
Y25194D01*
X-79960Y15467D01*
X-72536Y8043D01*
X-60515Y20063D01*
X-65646Y25194D01*
Y29453D01*
X-64376Y29979D01*
X-63614Y29217D01*
X-58991Y33840D01*
X-57127D01*
X-42853Y19566D01*
X-48533Y13886D01*
X-48021Y13374D01*
X-48547Y12104D01*
X-52556D01*
X-57687Y17235D01*
X-69707Y5214D01*
X-62283Y-2210D01*
X-52556Y7516D01*
X-46245D01*
X-45367Y7691D01*
X-44081Y7040D01*
X-44037Y6928D01*
X-44714Y5781D01*
X-45963Y5532D01*
X-47204Y4704D01*
X-48032Y3463D01*
X-48231Y2465D01*
X-49000Y1323D01*
X-50463Y1032D01*
X-51704Y204D01*
X-52532Y-1037D01*
X-52823Y-2500D01*
X-53965Y-3269D01*
X-54963Y-3468D01*
X-56204Y-4296D01*
X-57032Y-5537D01*
X-57270Y-6732D01*
X-57750Y-7931D01*
X-59116Y-8203D01*
X-60273Y-8977D01*
X-61047Y-10134D01*
X-61319Y-11500D01*
X-61047Y-12866D01*
X-60273Y-14023D01*
X-59116Y-14797D01*
X-57750Y-15069D01*
X-56384Y-14797D01*
X-55227Y-14023D01*
X-55073Y-13794D01*
X-45450D01*
Y-23691D01*
X-46778D01*
X-47134Y-23453D01*
X-48500Y-23181D01*
X-49866Y-23453D01*
X-51023Y-24227D01*
X-51797Y-25384D01*
X-52069Y-26750D01*
X-51797Y-28116D01*
X-51023Y-29273D01*
X-49866Y-30047D01*
X-48500Y-30319D01*
X-47134Y-30047D01*
X-46778Y-29809D01*
X-45450D01*
Y-31150D01*
X-36050D01*
Y-20399D01*
X-33450D01*
Y-22350D01*
X-24050D01*
Y-20399D01*
X-14350D01*
X-13375Y-20205D01*
X-13149Y-20055D01*
X-12124Y-20896D01*
X-12374Y-21500D01*
Y-35250D01*
X-11898Y-36398D01*
X-10750Y-36874D01*
X-1750D01*
X-602Y-36398D01*
X-177Y-35371D01*
X83Y-35186D01*
X117Y-35172D01*
X1144Y-34842D01*
X2004Y-35417D01*
X3370Y-35688D01*
X4735Y-35417D01*
X5667Y-34794D01*
X12500D01*
X13378Y-34619D01*
X14122Y-34122D01*
X16103Y-32142D01*
X17348Y-32389D01*
X17352Y-32398D01*
X18500Y-32874D01*
X44750Y-32874D01*
Y-45250D01*
X51550D01*
Y-32874D01*
X53750D01*
X54898Y-32398D01*
X55374Y-31250D01*
X55374Y-21750D01*
X54898Y-20602D01*
X53750Y-20127D01*
X30400Y-20127D01*
X29860Y-20350D01*
X29100D01*
Y-20969D01*
X28776Y-21750D01*
Y-28026D01*
X22724D01*
Y-21750D01*
X22400Y-20969D01*
Y-20949D01*
X23168Y-19933D01*
X23437Y-19786D01*
X24713Y-19532D01*
X25954Y-18704D01*
X26101Y-18483D01*
X27046Y-17704D01*
X28287Y-18532D01*
X29750Y-18823D01*
X31213Y-18532D01*
X31807Y-18135D01*
X32750Y-17807D01*
X33693Y-18135D01*
X34287Y-18532D01*
X35750Y-18823D01*
X37213Y-18532D01*
X37843Y-18112D01*
X38977Y-17523D01*
X40134Y-18297D01*
X41500Y-18569D01*
X42866Y-18297D01*
X44023Y-17523D01*
X44477D01*
X45634Y-18297D01*
X47000Y-18569D01*
X48366Y-18297D01*
X49523Y-17523D01*
X50284D01*
X50889Y-17765D01*
X52037Y-18532D01*
X53500Y-18823D01*
X54963Y-18532D01*
X56204Y-17704D01*
X57032Y-16463D01*
X57323Y-15000D01*
X57032Y-13537D01*
X56204Y-12296D01*
X55794Y-12023D01*
Y-2653D01*
X57064Y-2127D01*
X57809Y-2872D01*
X57809Y-2872D01*
X58553Y-3369D01*
X59431Y-3544D01*
X59431Y-3544D01*
X65323D01*
X65477Y-3773D01*
X66634Y-4547D01*
X68000Y-4819D01*
X69366Y-4547D01*
X70523Y-3773D01*
X71297Y-2616D01*
X71569Y-1250D01*
X71297Y116D01*
X70523Y1273D01*
X70386Y1365D01*
Y2635D01*
X70523Y2727D01*
X71297Y3884D01*
X71569Y5250D01*
X71297Y6616D01*
X70523Y7773D01*
Y8477D01*
X71297Y9634D01*
X71569Y11000D01*
X71297Y12366D01*
X71083Y12686D01*
X71762Y13956D01*
X91323D01*
X91477Y13727D01*
X92634Y12953D01*
X94000Y12681D01*
X95366Y12953D01*
X96523Y13727D01*
X97297Y14884D01*
X97569Y16250D01*
X97297Y17616D01*
X96523Y18773D01*
Y19227D01*
X97297Y20384D01*
X97569Y21750D01*
X97297Y23116D01*
X97020Y23531D01*
X96617Y24500D01*
X97020Y25469D01*
X97297Y25884D01*
X97569Y27250D01*
X97297Y28616D01*
X96558Y29722D01*
X96386Y30057D01*
Y30942D01*
X96558Y31278D01*
X97297Y32384D01*
X97569Y33750D01*
X97297Y35116D01*
X96523Y36273D01*
X95366Y37047D01*
X94000Y37319D01*
X92634Y37047D01*
X91477Y36273D01*
X91323Y36044D01*
X79461D01*
X72252Y43252D01*
X72141Y43363D01*
X63133Y52372D01*
X62388Y52869D01*
X61510Y53044D01*
X43988D01*
X43502Y54217D01*
X47403Y58118D01*
X48977Y57936D01*
X49530Y57383D01*
X50474Y58327D01*
X50639Y58396D01*
X54882Y62638D01*
X54951Y62804D01*
D01*
X55195Y63048D01*
X56850Y63188D01*
X58732Y61307D01*
X58785Y61179D01*
X62179Y57785D01*
X62344Y57716D01*
X63288Y56772D01*
X64231Y57716D01*
X64397Y57785D01*
X65526Y58913D01*
X66244Y59393D01*
X66333Y59527D01*
X66482Y59588D01*
X70837Y63943D01*
X90941Y43839D01*
X92089Y43363D01*
X93237Y43839D01*
X136774Y87375D01*
X138038Y87251D01*
X139299Y85363D01*
X145567Y74170D01*
X150938Y62520D01*
X155378Y50485D01*
X158860Y38139D01*
X161363Y25557D01*
X162521Y15769D01*
X161312Y15183D01*
X157122Y19372D01*
X156378Y19869D01*
X156000Y19945D01*
Y20350D01*
X148600D01*
Y23750D01*
X136294D01*
Y25201D01*
X136294Y25202D01*
X136119Y26079D01*
X135622Y26824D01*
X135845Y27825D01*
X136273Y28470D01*
X136316Y28693D01*
X136464Y28866D01*
X136849Y30050D01*
X136829Y30299D01*
X136928Y30528D01*
X136802Y30845D01*
X136776Y30978D01*
X136751Y31289D01*
X136706Y31327D01*
X136686Y31429D01*
X136254Y32076D01*
X136607Y32605D01*
X136608Y32606D01*
X136609Y32607D01*
X136686Y32723D01*
X136735Y32967D01*
X136786Y33114D01*
X136781Y33202D01*
X136862Y33605D01*
X136790Y33968D01*
X136805Y34131D01*
X136791Y34175D01*
X136794Y34180D01*
X136784Y34251D01*
X136731Y34380D01*
X136491Y35144D01*
X136391Y35264D01*
X136418Y35711D01*
X136860Y36510D01*
X137085Y36697D01*
X137116Y36703D01*
X138273Y37477D01*
X139047Y38634D01*
X139319Y40000D01*
X139047Y41366D01*
X138273Y42523D01*
X137116Y43297D01*
X135750Y43569D01*
X134384Y43297D01*
X133227Y42523D01*
X132453Y41366D01*
X132207Y40131D01*
X131217Y39141D01*
X131184Y39142D01*
X130250Y39265D01*
X129594Y39179D01*
X129297Y39185D01*
X129117Y39116D01*
X128987Y39099D01*
X128797Y39118D01*
X128526Y39038D01*
X128499Y39034D01*
X128462Y39019D01*
X128150Y38926D01*
X127344Y39437D01*
X127029Y39803D01*
X127069Y40000D01*
X126797Y41366D01*
X126023Y42523D01*
X124866Y43297D01*
X123500Y43569D01*
X122134Y43297D01*
X120977Y42523D01*
X120203Y41366D01*
X119931Y40000D01*
X119042Y39161D01*
X118250Y39265D01*
X117594Y39179D01*
X117297Y39185D01*
X117117Y39116D01*
X116987Y39099D01*
X116797Y39118D01*
X116526Y39038D01*
X116499Y39034D01*
X116461Y39019D01*
X115857Y38839D01*
X115698Y38710D01*
X115495Y38681D01*
X115137Y38470D01*
X114868Y38359D01*
X114602Y38154D01*
X114504Y38097D01*
X114473Y38056D01*
X114296Y37920D01*
X114234Y37898D01*
X114063Y37741D01*
X113467Y37283D01*
X113135Y36851D01*
X112860Y36577D01*
X112795Y36421D01*
X112655Y36326D01*
X112227Y35681D01*
X112184Y35458D01*
X112036Y35285D01*
X111651Y34102D01*
X111671Y33853D01*
X111572Y33623D01*
X111698Y33307D01*
X111724Y33173D01*
X111749Y32863D01*
X111794Y32824D01*
X111814Y32723D01*
X112246Y32076D01*
X111893Y31546D01*
X111892Y31545D01*
X111891Y31544D01*
X111814Y31429D01*
X111765Y31185D01*
X111714Y31037D01*
X111719Y30950D01*
X111638Y30546D01*
X111710Y30184D01*
X111695Y30020D01*
X111709Y29976D01*
X111706Y29971D01*
X111716Y29901D01*
X111769Y29771D01*
X112009Y29008D01*
X112148Y28840D01*
X112184Y28626D01*
X112359Y28347D01*
X112391Y28269D01*
X112482Y28152D01*
X112760Y27708D01*
X112892Y27614D01*
X112913Y27582D01*
X112970Y27440D01*
X113246Y27155D01*
X113467Y26868D01*
X113693Y26694D01*
X113782Y26602D01*
X113853Y26572D01*
X114045Y26424D01*
X114101Y26347D01*
X114319Y26214D01*
X114868Y25793D01*
X115303Y25612D01*
X115330Y24906D01*
X115244Y24542D01*
X115152Y24300D01*
X115134Y24297D01*
X113977Y23523D01*
X113203Y22366D01*
X112931Y21000D01*
X113203Y19634D01*
X113951Y18515D01*
Y13250D01*
X114145Y12275D01*
X114698Y11448D01*
X115848Y10297D01*
X115362Y9124D01*
X113750D01*
X112602Y8648D01*
X112126Y7500D01*
Y-2250D01*
X112602Y-3398D01*
X113750Y-3874D01*
X117126D01*
Y-26250D01*
X117602Y-27398D01*
X118750Y-27874D01*
X120800D01*
X121602Y-29144D01*
X121431Y-30000D01*
X121703Y-31366D01*
X122477Y-32523D01*
X122861Y-32780D01*
X122881Y-32878D01*
X123378Y-33622D01*
X123942Y-34186D01*
X123416Y-35456D01*
X118927D01*
X118773Y-35227D01*
X117616Y-34453D01*
X116250Y-34181D01*
X114884Y-34453D01*
X113727Y-35227D01*
X112953Y-36384D01*
X112681Y-37750D01*
X112953Y-39116D01*
X113727Y-40273D01*
X114884Y-41047D01*
X116250Y-41319D01*
X117616Y-41047D01*
X117667Y-41013D01*
X118718Y-41838D01*
X117628Y-44833D01*
X125194Y-47586D01*
X125210Y-47629D01*
X125297Y-48928D01*
X124477Y-49477D01*
X124323Y-49706D01*
X122830D01*
X116670Y-47464D01*
X115326Y-51157D01*
X114892Y-52350D01*
X114457Y-53544D01*
X113524Y-56109D01*
X116190Y-57079D01*
Y-67910D01*
X114920Y-68131D01*
X107255Y-62764D01*
X102093Y-70136D01*
X109793Y-75528D01*
X109793Y-75528D01*
X110246Y-75488D01*
X112246Y-77488D01*
X111643Y-78350D01*
X116148Y-81505D01*
X119016Y-77409D01*
X122702Y-79990D01*
X122702Y-79991D01*
X126798Y-82858D01*
X124619Y-85970D01*
X123930Y-86954D01*
X123240Y-87939D01*
X122409Y-89126D01*
X121158Y-89345D01*
X118436Y-87424D01*
X117860Y-87294D01*
X117290Y-87140D01*
X117259Y-87158D01*
X117224Y-87150D01*
X116725Y-87465D01*
X116213Y-87760D01*
X113735Y-90981D01*
X111502Y-93633D01*
X110233Y-93687D01*
X105849Y-89303D01*
X106335Y-88130D01*
X108175D01*
X110412Y-89697D01*
X113710Y-84986D01*
X109205Y-81832D01*
X108007Y-83542D01*
X106235D01*
X105523Y-82477D01*
X104366Y-81703D01*
X103000Y-81431D01*
X101634Y-81703D01*
X100477Y-82477D01*
X100450Y-82516D01*
X99186Y-82640D01*
X91187Y-74641D01*
X90650Y-74419D01*
X90125Y-74168D01*
X90082Y-74183D01*
X90040Y-74166D01*
X89502Y-74388D01*
X88953Y-74583D01*
X88509Y-74983D01*
X88250Y-74931D01*
X86884Y-75203D01*
X85727Y-75977D01*
X84953Y-77134D01*
X84699Y-78412D01*
X83850Y-79176D01*
X83840Y-79197D01*
X83818Y-79205D01*
X83574Y-79755D01*
X83314Y-80297D01*
X83322Y-80319D01*
X83313Y-80340D01*
X83279Y-81610D01*
X83288Y-81631D01*
X83279Y-81652D01*
X83509Y-82208D01*
X83725Y-82770D01*
X83746Y-82779D01*
X83754Y-82800D01*
X111852Y-110898D01*
X113000Y-111374D01*
X114148Y-110898D01*
X119148Y-105898D01*
X119224Y-105715D01*
X119384Y-105599D01*
X126134Y-94599D01*
X126227Y-94014D01*
X126342Y-93432D01*
X126324Y-93404D01*
X126329Y-93372D01*
X126238Y-93247D01*
X128176Y-90479D01*
X128865Y-89494D01*
X129555Y-88510D01*
X131733Y-85399D01*
X131733D01*
X134320Y-81704D01*
X136122Y-79902D01*
X136122Y-79902D01*
X136619Y-79158D01*
X136794Y-78280D01*
X136794Y-78280D01*
Y-71740D01*
X136782Y-71677D01*
Y-65924D01*
X136782Y-65924D01*
X137888Y-64977D01*
X143594Y-67054D01*
X146740Y-58408D01*
X146740D01*
X147674Y-55843D01*
X148108Y-54650D01*
X148543Y-53456D01*
X149252Y-51508D01*
X149616Y-51436D01*
X150773Y-50662D01*
X151547Y-49504D01*
X151819Y-48139D01*
X151547Y-46773D01*
X150773Y-45616D01*
X149616Y-44842D01*
X148250Y-44570D01*
X146884Y-44842D01*
X145727Y-45616D01*
X144953Y-46773D01*
X144739Y-47849D01*
X143899Y-48522D01*
X143797Y-48572D01*
X142713Y-47836D01*
X143686Y-45165D01*
X139044Y-43476D01*
Y-33750D01*
X139044Y-33750D01*
X138869Y-32872D01*
X138372Y-32128D01*
X136515Y-30271D01*
X136569Y-30000D01*
X136297Y-28634D01*
X135907Y-28051D01*
X136324Y-26625D01*
X136348Y-26599D01*
X136534Y-26545D01*
X136631Y-26628D01*
X137128Y-27372D01*
X142485Y-32729D01*
X142431Y-33000D01*
X142703Y-34366D01*
X143477Y-35523D01*
X144634Y-36297D01*
X146000Y-36569D01*
X147366Y-36297D01*
X148523Y-35523D01*
X149297Y-34366D01*
X149569Y-33000D01*
X149432Y-32314D01*
X150314Y-31044D01*
X152323D01*
X152477Y-31273D01*
X153634Y-32047D01*
X155000Y-32319D01*
X156366Y-32047D01*
X157523Y-31273D01*
X158297Y-30116D01*
X158569Y-28750D01*
X158297Y-27384D01*
X157523Y-26227D01*
X156366Y-25453D01*
X155000Y-25181D01*
X153634Y-25453D01*
X152477Y-26227D01*
X152323Y-26456D01*
X148805D01*
X148681Y-26270D01*
X149360Y-25000D01*
X151625D01*
Y-24388D01*
X151917Y-24330D01*
X152661Y-23833D01*
X161312Y-15183D01*
X162521Y-15769D01*
X161363Y-25557D01*
X158860Y-38139D01*
X155378Y-50485D01*
X150938Y-62520D01*
X145567Y-74170D01*
X139299Y-85363D01*
X132172Y-96029D01*
X124230Y-106103D01*
X115523Y-115523D01*
X106103Y-124230D01*
X96029Y-132172D01*
X85363Y-139299D01*
X74170Y-145567D01*
X68149Y-148343D01*
X-68149D01*
X-74170Y-145567D01*
X-85363Y-139299D01*
X-89045Y-136839D01*
X-88676Y-135624D01*
X-79250D01*
X-78102Y-135148D01*
X-77626Y-134000D01*
Y-128750D01*
X-78102Y-127602D01*
X-79250Y-127126D01*
X-87876D01*
Y-118374D01*
X-86500D01*
X-85352Y-117898D01*
X-84876Y-116750D01*
Y-115874D01*
X-82000D01*
X-80852Y-115398D01*
X-80376Y-114250D01*
Y-109124D01*
X-72250D01*
X-71102Y-108648D01*
X-70626Y-107500D01*
Y-106050D01*
X-71102Y-104902D01*
X-71576Y-104705D01*
Y-98395D01*
X-71102Y-98198D01*
X-70967Y-97874D01*
X-64750D01*
X-63602Y-97398D01*
X-63126Y-96250D01*
Y-91902D01*
X-60337Y-89113D01*
X-60337Y-89113D01*
X-59674Y-88121D01*
X-59441Y-86950D01*
X-59441Y-86950D01*
Y-84172D01*
X-58968Y-83463D01*
X-58677Y-82000D01*
X-58968Y-80537D01*
X-59796Y-79296D01*
X-61037Y-78468D01*
X-62500Y-78177D01*
X-63963Y-78468D01*
X-65204Y-79296D01*
X-66032Y-80537D01*
X-66323Y-82000D01*
X-66838Y-82626D01*
X-72250D01*
X-73398Y-83102D01*
X-73874Y-84250D01*
Y-88876D01*
X-81000D01*
X-81628Y-89137D01*
X-81643Y-89102D01*
X-82080Y-88921D01*
X-82474Y-88658D01*
X-82637Y-88690D01*
X-82791Y-88626D01*
X-84876D01*
Y-87750D01*
X-85352Y-86602D01*
X-86500Y-86126D01*
X-91000D01*
X-92148Y-86602D01*
X-92624Y-87750D01*
Y-88626D01*
X-95500D01*
X-96648Y-89102D01*
X-97124Y-90250D01*
Y-94876D01*
X-101500D01*
X-102480Y-95282D01*
X-103750Y-94795D01*
Y-91750D01*
X-103879D01*
X-104685Y-90768D01*
X-104681Y-90750D01*
X-104953Y-89384D01*
X-105727Y-88227D01*
X-106884Y-87453D01*
X-108250Y-87181D01*
X-109616Y-87453D01*
X-110773Y-88227D01*
X-111547Y-89384D01*
X-111819Y-90750D01*
X-111815Y-90768D01*
X-112621Y-91750D01*
X-112750D01*
Y-101980D01*
X-112750Y-102349D01*
X-114020Y-102875D01*
X-115750Y-101145D01*
Y-94250D01*
X-124750D01*
Y-103393D01*
X-126020Y-103833D01*
X-132172Y-96029D01*
X-139299Y-85363D01*
X-145567Y-74170D01*
X-150938Y-62520D01*
X-155378Y-50485D01*
X-158860Y-38139D01*
X-161363Y-25557D01*
X-162500Y-15947D01*
X-161357Y-15393D01*
X-161250Y-15500D01*
X-142250D01*
X-140250Y-13500D01*
Y-9500D01*
X-142250Y-7500D01*
X-161250D01*
X-161890Y-8140D01*
X-163072Y-7677D01*
X-163147Y-5775D01*
X-161984Y-5267D01*
X-161750Y-5500D01*
X-142750D01*
X-140750Y-3500D01*
Y500D01*
X-142750Y2500D01*
X-161750D01*
X-162106Y2144D01*
X-163270Y2653D01*
X-163195Y4550D01*
X-162013Y5013D01*
X-161500Y4500D01*
X-142500D01*
X-140500Y6500D01*
Y10500D01*
X-142500Y12500D01*
X-161500D01*
X-162752Y12836D01*
X-162856Y12940D01*
X-161600Y23550D01*
X-160284Y23866D01*
X-160023Y23477D01*
X-158866Y22703D01*
X-158445Y22620D01*
X-157391Y21566D01*
X-156399Y20903D01*
X-155229Y20670D01*
X-154846D01*
X-154072Y19662D01*
X-154313Y18764D01*
X-145620Y16434D01*
X-143187Y25514D01*
X-145691Y26185D01*
Y29264D01*
X-144623Y30152D01*
X-140496Y29046D01*
X-137649Y39672D01*
X-149240Y42777D01*
X-152087Y32152D01*
X-151593Y32020D01*
X-151809Y30933D01*
X-151809Y30933D01*
Y29019D01*
X-151880Y27843D01*
X-152431Y26787D01*
X-153961D01*
X-154120Y26945D01*
X-154203Y27366D01*
X-154977Y28523D01*
X-156134Y29297D01*
X-157500Y29569D01*
X-158866Y29297D01*
X-159394Y28944D01*
X-160537Y29708D01*
X-158860Y38139D01*
X-155378Y50485D01*
X-150938Y62520D01*
X-145567Y74170D01*
X-139299Y85363D01*
X-132172Y96029D01*
X-124230Y106103D01*
X-115523Y115523D01*
X-106103Y124230D01*
X-96029Y132172D01*
X-85363Y139299D01*
X-74170Y145567D01*
X-68149Y148343D01*
X68149D01*
X74170Y145567D01*
D02*
G37*
G36*
X158206Y11800D02*
Y-11800D01*
X152798Y-17207D01*
X151625Y-16721D01*
Y-4500D01*
X151044D01*
Y1250D01*
X150919Y1880D01*
X151384Y2751D01*
X151714Y3150D01*
X156000D01*
Y8350D01*
X147500D01*
Y8250D01*
X144225D01*
X143840Y9520D01*
X144523Y9977D01*
X145297Y11134D01*
X145361Y11456D01*
X147500D01*
Y11150D01*
X156000D01*
Y12347D01*
X157173Y12832D01*
X158206Y11800D01*
D02*
G37*
G36*
X128960Y-3866D02*
X129733Y-5023D01*
X130891Y-5797D01*
X132256Y-6069D01*
X133622Y-5797D01*
X134780Y-5023D01*
X135100Y-4544D01*
X135750D01*
X136628Y-4369D01*
X137372Y-3872D01*
X137527Y-3717D01*
X138992Y-4048D01*
X139477Y-4773D01*
X140634Y-5547D01*
X142000Y-5819D01*
X143366Y-5547D01*
X144523Y-4773D01*
X144605Y-4651D01*
X145875Y-5036D01*
Y-14956D01*
X137164D01*
X137079Y-14830D01*
X136898Y-14392D01*
X136846Y-14370D01*
X136838Y-14352D01*
X136730Y-14307D01*
X136652Y-14190D01*
X136592Y-14150D01*
X136128Y-14058D01*
X135690Y-13876D01*
X127624D01*
Y-3659D01*
X128894Y-3534D01*
X128960Y-3866D01*
D02*
G37*
G36*
X119025Y7395D02*
X120000Y7201D01*
X124000D01*
Y7150D01*
X131400D01*
Y4250D01*
X126000Y4250D01*
X126000Y-6750D01*
Y-15500D01*
X135690D01*
X135750Y-15540D01*
Y-24250D01*
X126000D01*
Y-26250D01*
X118750D01*
Y-2250D01*
X113750D01*
Y7500D01*
X118868D01*
X119025Y7395D01*
D02*
G37*
G36*
X21100Y-21750D02*
Y-29650D01*
X30400D01*
Y-21750D01*
X53750Y-21750D01*
X53750Y-31250D01*
X51550D01*
Y-31250D01*
X44750D01*
Y-31250D01*
X18500Y-31250D01*
X18500Y-21750D01*
X21100D01*
D02*
G37*
G36*
X-2900Y-29650D02*
X-1750D01*
Y-35250D01*
X-10750D01*
Y-21500D01*
X-2900D01*
Y-29650D01*
D02*
G37*
G36*
X-86500Y-90250D02*
X-82791D01*
X-82624Y-90500D01*
Y-95500D01*
X-82148Y-96648D01*
X-82000Y-96709D01*
Y-100250D01*
X-96500D01*
Y-101000D01*
X-101500D01*
Y-96500D01*
X-95500D01*
Y-90250D01*
X-91000D01*
Y-87750D01*
X-86500D01*
Y-90250D01*
D02*
G37*
G36*
X-64750Y-96250D02*
X-72250D01*
Y-97050D01*
X-73200D01*
Y-106050D01*
X-72250D01*
Y-107500D01*
X-81000D01*
Y-102000D01*
X-75000D01*
Y-95500D01*
X-81000D01*
Y-90500D01*
X-72250D01*
Y-84250D01*
X-64750D01*
Y-96250D01*
D02*
G37*
G36*
X99476Y-85226D02*
X99703Y-86366D01*
X100477Y-87523D01*
X101634Y-88297D01*
X102774Y-88524D01*
X111000Y-96750D01*
X115000Y-92000D01*
X117500Y-88750D01*
X121750Y-91750D01*
X124750Y-93750D01*
X118000Y-104750D01*
X113000Y-109750D01*
X84902Y-81652D01*
X84936Y-80383D01*
X90040Y-75789D01*
X99476Y-85226D01*
D02*
G37*
G36*
X-82624Y-107500D02*
X-82148Y-108648D01*
X-82000Y-108709D01*
Y-114250D01*
X-86500D01*
Y-116750D01*
X-89500D01*
Y-128750D01*
X-79250D01*
Y-134000D01*
X-93294D01*
X-96029Y-132172D01*
X-96750Y-131604D01*
Y-119250D01*
X-95500D01*
Y-115000D01*
Y-108500D01*
Y-108500D01*
Y-104250D01*
X-82624D01*
Y-107500D01*
D02*
G37*
%LPC*%
G36*
X-43500Y143319D02*
X-44866Y143047D01*
X-46023Y142273D01*
X-46177Y142044D01*
X-47699D01*
X-48577Y141869D01*
X-48910Y141647D01*
X-50120Y143089D01*
X-55248Y138786D01*
X-65751D01*
X-66628Y138611D01*
X-67373Y138114D01*
X-69582Y135905D01*
X-69761Y135957D01*
X-71244Y135795D01*
X-72552Y135077D01*
X-77148Y131220D01*
X-78082Y130057D01*
X-78500Y128625D01*
X-78337Y127142D01*
X-77620Y125834D01*
X-76456Y124900D01*
X-75024Y124482D01*
X-73541Y124645D01*
X-72233Y125363D01*
X-67637Y129219D01*
X-66703Y130383D01*
X-66286Y131815D01*
X-66374Y132624D01*
X-64800Y134198D01*
X-54931D01*
X-51536Y130152D01*
X-44335Y136194D01*
X-43723Y136226D01*
X-43500Y136181D01*
X-42134Y136453D01*
X-40977Y137227D01*
X-40203Y138384D01*
X-39931Y139750D01*
X-40203Y141116D01*
X-40977Y142273D01*
X-42134Y143047D01*
X-43500Y143319D01*
D02*
G37*
G36*
X-46599Y123428D02*
X-47965Y123156D01*
X-49122Y122383D01*
X-49896Y121225D01*
X-50167Y119859D01*
X-50114Y119589D01*
X-53255Y116447D01*
X-53435Y116500D01*
X-54917Y116337D01*
X-56225Y115619D01*
X-60822Y111763D01*
X-61755Y110599D01*
X-62173Y109167D01*
X-62010Y107684D01*
X-61293Y106376D01*
X-60129Y105442D01*
X-58697Y105025D01*
X-57214Y105187D01*
X-55906Y105905D01*
X-51310Y109762D01*
X-50376Y110925D01*
X-49959Y112357D01*
X-50047Y113167D01*
X-46870Y116345D01*
X-46599Y116291D01*
X-45233Y116562D01*
X-44076Y117336D01*
X-43302Y118494D01*
X-43030Y119859D01*
X-43302Y121225D01*
X-44076Y122383D01*
X-45233Y123156D01*
X-46599Y123428D01*
D02*
G37*
G36*
X-58550Y129369D02*
X-59916Y129097D01*
X-61074Y128324D01*
X-61847Y127166D01*
X-62043Y126180D01*
X-63081Y126066D01*
X-64389Y125348D01*
X-68985Y121492D01*
X-69919Y120328D01*
X-70336Y118896D01*
X-70174Y117413D01*
X-69456Y116105D01*
X-68293Y115171D01*
X-66861Y114754D01*
X-65378Y114916D01*
X-64070Y115634D01*
X-59474Y119490D01*
X-58540Y120654D01*
X-58122Y122086D01*
X-58147Y122312D01*
X-57185Y122503D01*
X-56027Y123277D01*
X-55253Y124435D01*
X-54982Y125800D01*
X-55253Y127166D01*
X-56027Y128324D01*
X-57185Y129097D01*
X-58550Y129369D01*
D02*
G37*
G36*
X-36250Y115727D02*
X-37616Y115455D01*
X-38773Y114682D01*
X-39547Y113524D01*
X-39819Y112158D01*
X-39791Y112020D01*
X-45092Y106719D01*
X-45271Y106771D01*
X-46754Y106608D01*
X-48062Y105891D01*
X-52658Y102034D01*
X-53592Y100871D01*
X-54009Y99438D01*
X-53847Y97955D01*
X-53130Y96648D01*
X-51966Y95714D01*
X-50534Y95296D01*
X-49051Y95459D01*
X-47743Y96176D01*
X-43147Y100033D01*
X-42213Y101196D01*
X-41795Y102629D01*
X-41884Y103438D01*
X-36652Y108670D01*
X-36250Y108589D01*
X-34884Y108861D01*
X-33727Y109635D01*
X-32953Y110793D01*
X-32681Y112158D01*
X-32953Y113524D01*
X-33727Y114682D01*
X-34884Y115455D01*
X-36250Y115727D01*
D02*
G37*
G36*
X-112966Y99704D02*
X-114449Y99541D01*
X-115757Y98824D01*
X-120353Y94967D01*
X-121287Y93804D01*
X-121705Y92371D01*
X-121696Y92290D01*
X-122458Y92139D01*
X-123615Y91365D01*
X-124389Y90208D01*
X-124661Y88842D01*
X-124389Y87476D01*
X-123615Y86319D01*
X-122458Y85545D01*
X-121092Y85273D01*
X-119726Y85545D01*
X-118569Y86319D01*
X-117795Y87476D01*
X-117632Y88295D01*
X-116746Y88392D01*
X-115438Y89109D01*
X-110842Y92966D01*
X-109908Y94129D01*
X-109490Y95562D01*
X-109653Y97045D01*
X-110371Y98353D01*
X-111534Y99286D01*
X-112966Y99704D01*
D02*
G37*
G36*
X21753Y114781D02*
X13268Y106296D01*
X18497Y101067D01*
Y95204D01*
X18691Y94229D01*
X19244Y93402D01*
X19874Y92771D01*
X18495Y91391D01*
X22592Y87294D01*
Y79308D01*
X21323Y78782D01*
X11164Y88941D01*
X10337Y89494D01*
X9361Y89688D01*
X5914D01*
X5582Y89905D01*
X4948Y90850D01*
X5049Y91356D01*
Y98008D01*
X5524Y98483D01*
X5664Y98692D01*
X11853Y104882D01*
X4075Y112660D01*
X-4410Y104175D01*
X76Y99689D01*
X-49Y99064D01*
Y92412D01*
X-691Y91770D01*
X-830Y91561D01*
X-4243Y88148D01*
X-4786Y88202D01*
X-10493Y93909D01*
X-10553Y93949D01*
X-10825Y94221D01*
X-10953Y94866D01*
X-11727Y96023D01*
X-12884Y96797D01*
X-14250Y97069D01*
X-15616Y96797D01*
X-16773Y96023D01*
X-17547Y94866D01*
X-17819Y93500D01*
X-17547Y92134D01*
X-16773Y90977D01*
X-15616Y90203D01*
X-14250Y89931D01*
X-13812Y90019D01*
X-9137Y85344D01*
Y85272D01*
X-9463Y84784D01*
X-9657Y83808D01*
Y82956D01*
X-13755Y78859D01*
X-8776Y73879D01*
X-8994Y72985D01*
X-9198Y72584D01*
X-10405Y72302D01*
X-15247Y77144D01*
X-21894Y70497D01*
X-20522Y69125D01*
X-22104Y67543D01*
X-23236Y68675D01*
X-23427Y68866D01*
X-24134Y69573D01*
X-24325Y69764D01*
X-29649Y75089D01*
X-35589Y69149D01*
X-34634Y68194D01*
X-35900Y66928D01*
X-39596Y70624D01*
X-47374Y62846D01*
X-39950Y55422D01*
X-32172Y63200D01*
X-31214Y63954D01*
X-30689D01*
X-30131Y63691D01*
X-29366Y62927D01*
X-29175Y62736D01*
X-24743Y58303D01*
X-24827Y57652D01*
X-26168Y57196D01*
X-30050Y61078D01*
X-37828Y53300D01*
X-35920Y51392D01*
X-36339Y50015D01*
X-36780Y49927D01*
X-39997Y53144D01*
X-46644Y46497D01*
X-42688Y42541D01*
Y42389D01*
X-42494Y41413D01*
X-41941Y40586D01*
X-32052Y30698D01*
X-31967Y30640D01*
X-31523Y29977D01*
X-30366Y29203D01*
X-29000Y28931D01*
X-27634Y29203D01*
X-26477Y29977D01*
X-25703Y31134D01*
X-25431Y32500D01*
X-25528Y32984D01*
X-24357Y33610D01*
X-23712Y32964D01*
X-22885Y32412D01*
X-21909Y32218D01*
X-20934Y32412D01*
X-20107Y32964D01*
X-19555Y33791D01*
X-19361Y34767D01*
X-19081Y35046D01*
X-18106Y35240D01*
X-17279Y35793D01*
X-16726Y36620D01*
X-16532Y37595D01*
X-16253Y37875D01*
X-15277Y38069D01*
X-14450Y38621D01*
X-13898Y39448D01*
X-13704Y40424D01*
X-13898Y41399D01*
X-14450Y42226D01*
X-17632Y45408D01*
X-18459Y45961D01*
X-18708Y46527D01*
X-18111Y47501D01*
X-17893Y47703D01*
X-16634Y47953D01*
X-15580Y47460D01*
X-12398Y44278D01*
X-11571Y43726D01*
X-10596Y43532D01*
X-9620Y43726D01*
X-8794Y44278D01*
X-8241Y45105D01*
X-8047Y46080D01*
X-7767Y46360D01*
X-6792Y46554D01*
X-5965Y47107D01*
X-5412Y47934D01*
X-5218Y48909D01*
X-4939Y49188D01*
X-3963Y49383D01*
X-3137Y49935D01*
X-2584Y50762D01*
X-2390Y51737D01*
X-2111Y52017D01*
X-1135Y52211D01*
X-308Y52763D01*
X244Y53590D01*
X438Y54566D01*
X718Y54845D01*
X1693Y55039D01*
X2520Y55592D01*
X3073Y56419D01*
X3267Y57394D01*
X3546Y57674D01*
X4522Y57868D01*
X5349Y58420D01*
X5901Y59247D01*
X6095Y60223D01*
X6375Y60502D01*
X7350Y60696D01*
X8177Y61249D01*
X8730Y62076D01*
X8924Y63051D01*
X9203Y63331D01*
X10179Y63525D01*
X11006Y64077D01*
X11558Y64904D01*
X11752Y65880D01*
X11558Y66855D01*
X11006Y67682D01*
X7824Y70864D01*
X7762Y70988D01*
X7603Y72470D01*
X8047Y73134D01*
X8075Y73274D01*
X9453Y73692D01*
X15717Y67428D01*
X15333Y66855D01*
X15139Y65880D01*
X15333Y64904D01*
X15886Y64077D01*
X16713Y63525D01*
X17688Y63331D01*
X17968Y63051D01*
X18162Y62076D01*
X18714Y61249D01*
X19541Y60696D01*
X20517Y60502D01*
X20796Y60223D01*
X20990Y59247D01*
X21543Y58420D01*
X22370Y57868D01*
X23345Y57674D01*
X23625Y57394D01*
X23819Y56419D01*
X24371Y55592D01*
X25198Y55039D01*
X26174Y54845D01*
X26453Y54566D01*
X26647Y53590D01*
X27200Y52764D01*
X27388Y52638D01*
X28027Y52211D01*
X29002Y52017D01*
X29978Y52211D01*
X30805Y52764D01*
X33986Y55946D01*
X33987Y55946D01*
X39802Y61761D01*
X40355Y62588D01*
X40549Y63564D01*
Y65799D01*
Y67733D01*
X41722Y68219D01*
X41919Y68022D01*
X48283Y74386D01*
X41636Y81033D01*
X37472Y76869D01*
X36299Y77355D01*
Y79152D01*
X39894Y82747D01*
X33247Y89394D01*
X28864Y85010D01*
X27690Y85497D01*
Y87294D01*
X31505Y91109D01*
X24859Y97755D01*
X24768Y97665D01*
X23595Y98151D01*
Y101067D01*
X29531Y107003D01*
X21753Y114781D01*
D02*
G37*
G36*
X-104803Y89975D02*
X-106286Y89813D01*
X-107594Y89095D01*
X-112190Y85238D01*
X-113124Y84075D01*
X-113541Y82643D01*
X-113524Y82489D01*
X-114387Y82318D01*
X-115544Y81544D01*
X-116318Y80386D01*
X-116589Y79021D01*
X-116318Y77655D01*
X-115544Y76498D01*
X-114387Y75724D01*
X-113021Y75452D01*
X-111655Y75724D01*
X-110498Y76498D01*
X-109724Y77655D01*
X-109544Y78558D01*
X-108583Y78663D01*
X-107275Y79380D01*
X-102678Y83237D01*
X-101745Y84401D01*
X-101327Y85833D01*
X-101489Y87316D01*
X-102207Y88624D01*
X-103371Y89558D01*
X-104803Y89975D01*
D02*
G37*
G36*
X-96639Y80246D02*
X-98122Y80084D01*
X-99430Y79366D01*
X-104026Y75510D01*
X-104960Y74346D01*
X-105378Y72914D01*
X-105364Y72786D01*
X-106190Y72622D01*
X-107348Y71848D01*
X-108122Y70690D01*
X-108393Y69325D01*
X-108122Y67959D01*
X-107348Y66801D01*
X-106190Y66028D01*
X-104825Y65756D01*
X-103459Y66028D01*
X-102301Y66801D01*
X-101528Y67959D01*
X-101354Y68832D01*
X-100419Y68934D01*
X-99111Y69652D01*
X-94515Y73509D01*
X-93581Y74672D01*
X-93164Y76104D01*
X-93326Y77587D01*
X-94044Y78895D01*
X-95207Y79829D01*
X-96639Y80246D01*
D02*
G37*
G36*
X-136960Y74194D02*
X-139097Y66220D01*
X-140821Y64496D01*
X-140959Y64289D01*
X-141722Y63780D01*
X-142495Y62622D01*
X-142621Y61989D01*
X-143917Y61021D01*
X-144323Y61130D01*
X-147170Y50505D01*
X-135578Y47399D01*
X-132731Y58024D01*
X-135476Y58760D01*
X-135902Y59891D01*
X-135630Y61256D01*
X-135902Y62622D01*
X-136024Y62804D01*
X-134588Y64240D01*
X-129409Y62853D01*
X-128182Y62524D01*
X-127921Y62454D01*
X-124301Y61484D01*
Y55769D01*
X-125049Y54650D01*
X-125320Y53284D01*
X-125049Y51919D01*
X-124301Y50799D01*
Y46973D01*
X-125308Y46200D01*
X-127463Y46777D01*
X-130310Y36152D01*
X-118719Y33046D01*
X-115872Y43671D01*
X-119203Y44564D01*
Y50799D01*
X-118455Y51919D01*
X-118183Y53284D01*
X-118455Y54650D01*
X-119203Y55769D01*
Y59075D01*
X-118195Y59848D01*
X-118040Y59806D01*
X-115710Y68500D01*
X-125591Y71147D01*
X-126818Y71476D01*
X-127079Y71546D01*
X-136960Y74194D01*
D02*
G37*
G36*
X-82362Y127011D02*
X-110706Y103228D01*
X-81326Y68214D01*
X-81138Y67989D01*
X-80316Y67021D01*
X-80419Y66500D01*
X-80148Y65134D01*
X-79374Y63977D01*
X-78217Y63203D01*
X-77453Y63051D01*
X-77103Y61687D01*
X-78069Y60876D01*
X-72284Y53982D01*
X-64447Y60558D01*
X-63474Y61374D01*
X-63268Y61548D01*
X-55431Y68123D01*
X-61216Y75018D01*
X-63579Y73035D01*
X-66097Y75552D01*
X-66924Y76105D01*
X-67899Y76299D01*
X-68515D01*
X-68929Y76576D01*
X-69055Y78128D01*
X-52794Y91773D01*
X-82362Y127011D01*
D02*
G37*
G36*
X-80750Y41319D02*
X-82116Y41047D01*
X-83273Y40273D01*
X-84047Y39116D01*
X-84319Y37750D01*
X-84205Y37179D01*
X-85345Y36039D01*
X-92500D01*
Y39000D01*
X-101500D01*
Y36039D01*
X-105000D01*
Y39000D01*
X-114000D01*
Y29000D01*
X-105000D01*
Y31961D01*
X-101500D01*
Y20000D01*
X-102152Y19000D01*
X-106000D01*
Y11105D01*
X-108920Y8185D01*
X-109472Y7358D01*
X-109730Y7302D01*
X-110723Y7925D01*
X-111000Y8363D01*
Y9781D01*
X-110134Y9953D01*
X-108977Y10727D01*
X-108203Y11884D01*
X-107931Y13250D01*
X-108203Y14616D01*
X-108977Y15773D01*
X-110134Y16547D01*
X-111500Y16819D01*
X-112866Y16547D01*
X-114023Y15773D01*
X-114797Y14616D01*
X-114969Y13750D01*
X-120000D01*
Y3750D01*
X-111019Y3750D01*
X-110797Y2634D01*
X-110023Y1477D01*
X-108866Y703D01*
X-107500Y431D01*
X-106134Y703D01*
X-104977Y1477D01*
X-104203Y2634D01*
X-103931Y4000D01*
X-104203Y5366D01*
X-104334Y5561D01*
X-102395Y7500D01*
X-99789D01*
Y3000D01*
X-101000D01*
Y-8366D01*
X-104134Y-11500D01*
X-108000D01*
Y-20500D01*
X-89000D01*
Y-20371D01*
X-88018Y-19565D01*
X-88000Y-19569D01*
X-86634Y-19297D01*
X-85477Y-18523D01*
X-84703Y-17366D01*
X-84431Y-16000D01*
X-84703Y-14634D01*
X-85477Y-13477D01*
X-86634Y-12703D01*
X-88000Y-12431D01*
X-88018Y-12435D01*
X-89000Y-11629D01*
Y-11500D01*
X-96707D01*
X-97193Y-10327D01*
X-96558Y-9692D01*
X-96558Y-9692D01*
X-96116Y-9030D01*
X-96011Y-8500D01*
X-90000D01*
Y-244D01*
X-86878Y2878D01*
X-86381Y3622D01*
X-86206Y4500D01*
Y20000D01*
X-86381Y20878D01*
X-86878Y21622D01*
X-91878Y26622D01*
X-92500Y27038D01*
Y31961D01*
X-84500D01*
X-83720Y32116D01*
X-83058Y32558D01*
X-81321Y34295D01*
X-80750Y34181D01*
X-79384Y34453D01*
X-78227Y35227D01*
X-77453Y36384D01*
X-77181Y37750D01*
X-77453Y39116D01*
X-78227Y40273D01*
X-79384Y41047D01*
X-80750Y41319D01*
D02*
G37*
G36*
X-62500Y-13250D02*
X-71500D01*
Y-23250D01*
Y-29378D01*
X-72770Y-29904D01*
X-74500Y-28174D01*
Y-22500D01*
X-83500D01*
Y-32500D01*
X-79809D01*
X-79689Y-32680D01*
X-80368Y-33950D01*
X-89750D01*
Y-38891D01*
X-95292D01*
X-95292Y-38891D01*
X-96462Y-39124D01*
X-97455Y-39787D01*
X-97921Y-40254D01*
X-99191Y-39727D01*
Y-37250D01*
X-99424Y-36079D01*
X-100087Y-35087D01*
X-100087Y-35087D01*
X-103750Y-31424D01*
Y-26000D01*
X-114250D01*
Y-35000D01*
X-108826D01*
X-105309Y-38517D01*
Y-41000D01*
X-109500D01*
Y-49230D01*
X-109500Y-50000D01*
X-109500Y-51043D01*
X-110398Y-51941D01*
X-121000D01*
Y-50500D01*
X-135500D01*
Y-58730D01*
X-135500Y-59500D01*
X-135500Y-61202D01*
X-135624Y-61500D01*
Y-74750D01*
X-135148Y-75898D01*
X-134000Y-76374D01*
X-66000Y-76374D01*
X-64852Y-75898D01*
X-64376Y-74750D01*
Y-55374D01*
X-62124Y-55374D01*
X-62124Y-69500D01*
X-61648Y-70648D01*
X-60500Y-71124D01*
X-54250D01*
X-53102Y-70648D01*
X-52626Y-69500D01*
X-52626Y-55150D01*
X-52550D01*
Y-46350D01*
Y-37350D01*
X-54191D01*
Y-31000D01*
X-54424Y-29829D01*
X-55087Y-28837D01*
X-55087Y-28837D01*
X-57967Y-25958D01*
X-57549Y-24580D01*
X-57384Y-24547D01*
X-56227Y-23773D01*
X-55453Y-22616D01*
X-55181Y-21250D01*
X-55453Y-19884D01*
X-56227Y-18727D01*
X-57384Y-17953D01*
X-57805Y-17869D01*
X-59087Y-16587D01*
X-60079Y-15924D01*
X-61250Y-15691D01*
X-61250Y-15691D01*
X-62500D01*
Y-13250D01*
D02*
G37*
G36*
X86000Y-6431D02*
X84634Y-6703D01*
X83477Y-7477D01*
X82703Y-8634D01*
X82431Y-10000D01*
X82703Y-11366D01*
X82876Y-11624D01*
X82000Y-12500D01*
Y-31500D01*
X84000Y-33500D01*
X88000D01*
X90000Y-31500D01*
Y-12500D01*
X89124Y-11624D01*
X89297Y-11366D01*
X89569Y-10000D01*
X89297Y-8634D01*
X88523Y-7477D01*
X87366Y-6703D01*
X86000Y-6431D01*
D02*
G37*
G36*
X76000D02*
X74634Y-6703D01*
X73477Y-7477D01*
X72703Y-8634D01*
X72431Y-10000D01*
X72703Y-11366D01*
X72876Y-11624D01*
X72000Y-12500D01*
Y-31500D01*
X74000Y-33500D01*
X78000D01*
X80000Y-31500D01*
Y-12500D01*
X79124Y-11624D01*
X79297Y-11366D01*
X79569Y-10000D01*
X79297Y-8634D01*
X78523Y-7477D01*
X77366Y-6703D01*
X76000Y-6431D01*
D02*
G37*
G36*
X66000D02*
X64634Y-6703D01*
X63477Y-7477D01*
X62703Y-8634D01*
X62431Y-10000D01*
X62703Y-11366D01*
X62876Y-11624D01*
X62000Y-12500D01*
Y-31500D01*
X64000Y-33500D01*
X68000D01*
X70000Y-31500D01*
Y-12500D01*
X69124Y-11624D01*
X69297Y-11366D01*
X69569Y-10000D01*
X69297Y-8634D01*
X68523Y-7477D01*
X67366Y-6703D01*
X66000Y-6431D01*
D02*
G37*
G36*
X-17250Y-31250D02*
X-24050D01*
Y-45250D01*
X-17250D01*
Y-31250D01*
D02*
G37*
G36*
X77250Y-35000D02*
X76250D01*
X75980Y-35000D01*
X65750D01*
Y-44000D01*
X67941D01*
Y-45986D01*
X66671Y-46654D01*
X66000Y-46376D01*
X57000D01*
X55852Y-46852D01*
X55376Y-48000D01*
Y-57327D01*
X54047Y-58657D01*
X52874Y-58171D01*
X52874Y-54750D01*
X52398Y-53602D01*
X52398Y-53602D01*
X51250Y-53127D01*
X44648Y-53126D01*
X43500Y-53602D01*
X42602Y-54500D01*
X42126Y-55648D01*
X42126Y-60126D01*
X39124D01*
Y-47750D01*
X38648Y-46602D01*
X37500Y-46126D01*
X34756D01*
X34111Y-44856D01*
X34255Y-44658D01*
X34584Y-44326D01*
X35848Y-44075D01*
X37006Y-43301D01*
X37780Y-42143D01*
X38051Y-40778D01*
X37780Y-39412D01*
X37006Y-38254D01*
X35848Y-37481D01*
X34483Y-37209D01*
X33117Y-37481D01*
X31959Y-38254D01*
X31847Y-38422D01*
X30523Y-38727D01*
X29366Y-37953D01*
X28000Y-37681D01*
X26634Y-37953D01*
X26219Y-38231D01*
X25250Y-38633D01*
X24281Y-38231D01*
X23866Y-37953D01*
X22500Y-37681D01*
X21134Y-37953D01*
X19977Y-38727D01*
X19930Y-38796D01*
X19447D01*
X18496Y-38657D01*
X17463Y-37968D01*
X16000Y-37677D01*
X14537Y-37968D01*
X13908Y-38388D01*
X12773Y-38977D01*
X11616Y-38203D01*
X10250Y-37931D01*
X8884Y-38203D01*
X8354Y-38558D01*
X7273Y-39227D01*
X6116Y-38453D01*
X4750Y-38181D01*
X3384Y-38453D01*
X2227Y-39227D01*
X1453Y-40384D01*
X1181Y-41750D01*
X1453Y-43116D01*
X2227Y-44273D01*
X3384Y-45047D01*
X4311Y-45231D01*
X4789Y-45709D01*
X5100Y-46850D01*
X5100Y-46850D01*
X5100D01*
X5100Y-46850D01*
Y-56150D01*
X28376D01*
Y-60126D01*
X20250D01*
X19102Y-60602D01*
X18626Y-61750D01*
Y-68750D01*
X19102Y-69898D01*
X20250Y-70374D01*
X55250D01*
X56398Y-69898D01*
X66407Y-59889D01*
X67578Y-60514D01*
X67431Y-61250D01*
X67703Y-62616D01*
X67941Y-62972D01*
Y-67000D01*
X65500D01*
Y-79000D01*
X76500D01*
Y-67000D01*
X74059D01*
Y-62972D01*
X74297Y-62616D01*
X74569Y-61250D01*
X74317Y-59987D01*
X74739Y-59467D01*
X75233Y-59000D01*
X86000D01*
Y-47000D01*
X84794D01*
Y-44000D01*
X87750D01*
Y-35000D01*
X77520D01*
X77250Y-35000D01*
D02*
G37*
G36*
X16750Y-58750D02*
X7750D01*
Y-59679D01*
X6768Y-60485D01*
X6500Y-60431D01*
X5134Y-60703D01*
X3977Y-61477D01*
X3203Y-62634D01*
X2931Y-64000D01*
X3203Y-65366D01*
X3977Y-66523D01*
X5134Y-67297D01*
X6500Y-67569D01*
X6768Y-67515D01*
X7750Y-68321D01*
X7750Y-69250D01*
Y-70250D01*
X7750Y-70520D01*
Y-74982D01*
X2482Y-80250D01*
X-8000D01*
Y-92250D01*
X3000D01*
Y-90179D01*
X3811Y-90018D01*
X5134Y-89134D01*
X13518Y-80750D01*
X16750D01*
Y-70520D01*
X16750Y-70250D01*
Y-69250D01*
X16750Y-68980D01*
Y-58750D01*
D02*
G37*
G36*
X-6500Y-60250D02*
X-17500D01*
Y-63191D01*
X-22028D01*
X-22384Y-62953D01*
X-23750Y-62681D01*
X-25116Y-62953D01*
X-25472Y-63191D01*
X-31000D01*
Y-61000D01*
X-40000D01*
Y-71230D01*
X-40000Y-71500D01*
Y-72500D01*
X-40000Y-72770D01*
Y-83000D01*
X-34244D01*
X-29372Y-87872D01*
X-28628Y-88369D01*
X-27750Y-88544D01*
X-27000D01*
Y-92250D01*
X-16000D01*
Y-80250D01*
X-27000D01*
Y-82096D01*
X-28173Y-82582D01*
X-31000Y-79756D01*
Y-72770D01*
X-31000Y-72500D01*
Y-71500D01*
X-31000Y-71230D01*
Y-69309D01*
X-25472D01*
X-25116Y-69547D01*
X-23750Y-69819D01*
X-22384Y-69547D01*
X-22028Y-69309D01*
X-17500D01*
Y-72250D01*
X-6500D01*
Y-60250D01*
D02*
G37*
G36*
X35379Y-95931D02*
X34013Y-96203D01*
X32972Y-96899D01*
X31930Y-96203D01*
X30564Y-95931D01*
X29199Y-96203D01*
X28157Y-96899D01*
X27116Y-96203D01*
X25750Y-95931D01*
X24384Y-96203D01*
X23227Y-96977D01*
X22453Y-98134D01*
X22181Y-99500D01*
X22453Y-100866D01*
X23227Y-102023D01*
X24384Y-102797D01*
X25750Y-103069D01*
X27116Y-102797D01*
X28157Y-102101D01*
X29199Y-102797D01*
X30564Y-103069D01*
X31930Y-102797D01*
X32972Y-102101D01*
X33713Y-102596D01*
X34013Y-102797D01*
X33747Y-104030D01*
X33250Y-103931D01*
X31884Y-104203D01*
X30727Y-104977D01*
X29953Y-106134D01*
X29681Y-107500D01*
X29953Y-108866D01*
X30727Y-110023D01*
X31884Y-110797D01*
X33250Y-111069D01*
X33521Y-111015D01*
X36456Y-113950D01*
Y-116250D01*
X28750D01*
Y-124250D01*
X42250D01*
X42956Y-125228D01*
Y-126750D01*
X43131Y-127628D01*
X43628Y-128372D01*
X53628Y-138372D01*
X54372Y-138869D01*
X55250Y-139044D01*
X65778D01*
X66144Y-138971D01*
X66489Y-139522D01*
X72764Y-135601D01*
X74566Y-138484D01*
X82368Y-133609D01*
X82368Y-133609D01*
X83734Y-132755D01*
X84742Y-132125D01*
X85751Y-131494D01*
X89152Y-129369D01*
X87351Y-126486D01*
X93626Y-122565D01*
X91506Y-119172D01*
X91506Y-119172D01*
X91180Y-118650D01*
X92565Y-117265D01*
X92836Y-117319D01*
X94201Y-117047D01*
X95359Y-116273D01*
X96133Y-115116D01*
X96404Y-113750D01*
X96133Y-112384D01*
X95359Y-111227D01*
X94201Y-110453D01*
X92836Y-110181D01*
X91470Y-110453D01*
X91466Y-110456D01*
X88007D01*
X87129Y-110631D01*
X86020Y-110392D01*
X84511Y-107978D01*
X83560Y-108572D01*
X82547Y-108134D01*
X81773Y-106977D01*
X80616Y-106203D01*
X79250Y-105931D01*
X77884Y-106203D01*
X76727Y-106977D01*
X75953Y-108134D01*
X75684Y-109485D01*
X73042Y-111136D01*
X73042Y-111136D01*
X72325Y-111584D01*
X69821Y-109080D01*
X70047Y-108743D01*
X70319Y-107377D01*
X70047Y-106011D01*
X69273Y-104853D01*
X68116Y-104080D01*
X66750Y-103808D01*
X65977Y-103962D01*
X64925Y-102977D01*
X64924Y-102975D01*
X65069Y-102250D01*
X64797Y-100884D01*
X64023Y-99727D01*
X62866Y-98953D01*
X61500Y-98681D01*
X60134Y-98953D01*
X60055Y-99006D01*
X59547Y-99134D01*
X58773Y-97977D01*
X57616Y-97203D01*
X56250Y-96931D01*
X54884Y-97203D01*
X53727Y-97977D01*
X52953Y-99134D01*
X52681Y-100500D01*
X52953Y-101866D01*
X53727Y-103023D01*
X53956Y-103177D01*
Y-109777D01*
X54131Y-110655D01*
X54628Y-111399D01*
X62662Y-119433D01*
X63650Y-121014D01*
X57374Y-124935D01*
X60129Y-129345D01*
X67338Y-124841D01*
X67285Y-124756D01*
X68735Y-123850D01*
X69744Y-123219D01*
X70753Y-122589D01*
X74154Y-120464D01*
X74154Y-120464D01*
X75767Y-119456D01*
X76336Y-119587D01*
X77020Y-120171D01*
X76922Y-121041D01*
X76681Y-122250D01*
X76776Y-122725D01*
X69169Y-126347D01*
X68888Y-126557D01*
X68597Y-126751D01*
X66984Y-128364D01*
X61613Y-131720D01*
X62629Y-133345D01*
X62013Y-134456D01*
X56200D01*
X47544Y-125800D01*
Y-124250D01*
X48750D01*
Y-116250D01*
X41750D01*
X41044Y-115272D01*
Y-113000D01*
X40869Y-112122D01*
X40372Y-111378D01*
X36765Y-107771D01*
X36819Y-107500D01*
X36547Y-106134D01*
X35773Y-104977D01*
X34916Y-104404D01*
X34616Y-104203D01*
X34882Y-102970D01*
X35379Y-103069D01*
X36744Y-102797D01*
X37902Y-102023D01*
X38676Y-100866D01*
X38948Y-99500D01*
X38676Y-98134D01*
X37902Y-96977D01*
X36744Y-96203D01*
X35379Y-95931D01*
D02*
G37*
G36*
X42250Y-131250D02*
X35250D01*
Y-139250D01*
X42250D01*
Y-131250D01*
D02*
G37*
G36*
X-136Y-97706D02*
X-54257D01*
X-55135Y-97881D01*
X-55880Y-98378D01*
X-63622Y-106121D01*
X-64119Y-106865D01*
X-64294Y-107743D01*
Y-110000D01*
X-64600D01*
Y-117400D01*
X-68000D01*
Y-122600D01*
Y-134600D01*
X-64600D01*
Y-140701D01*
X-67194D01*
X-69690Y-138205D01*
X-69953Y-136884D01*
X-70727Y-135727D01*
X-71884Y-134953D01*
X-73250Y-134681D01*
X-74616Y-134953D01*
X-75773Y-135727D01*
X-76547Y-136884D01*
X-76819Y-138250D01*
X-76547Y-139616D01*
X-75773Y-140773D01*
X-74616Y-141547D01*
X-73295Y-141810D01*
X-70052Y-145052D01*
X-69225Y-145605D01*
X-68250Y-145799D01*
X-57850D01*
X-56874Y-145605D01*
X-56048Y-145052D01*
X-52995Y-142000D01*
X-47400D01*
Y-141689D01*
X-40950D01*
Y-144150D01*
X-31550D01*
Y-141689D01*
X-20400D01*
X-19620Y-141534D01*
X-18958Y-141092D01*
X-17616Y-139750D01*
X-13500D01*
Y-130750D01*
X-20500D01*
Y-136866D01*
X-21245Y-137611D01*
X-31550D01*
Y-135150D01*
X-40950D01*
Y-137611D01*
X-47400D01*
Y-134600D01*
X-44000D01*
Y-130244D01*
X-43372Y-130119D01*
X-42628Y-129622D01*
X-39800Y-126794D01*
X-34138D01*
X-32047Y-128885D01*
X-32319Y-130250D01*
X-32047Y-131616D01*
X-31273Y-132773D01*
X-30116Y-133547D01*
X-28750Y-133819D01*
X-27384Y-133547D01*
X-26227Y-132773D01*
X-25453Y-131616D01*
X-25181Y-130250D01*
X-25453Y-128884D01*
X-25654Y-128584D01*
X-24890Y-127441D01*
X-24250Y-127569D01*
X-22884Y-127297D01*
X-21727Y-126523D01*
X-20953Y-125366D01*
X-20681Y-124000D01*
X-20953Y-122634D01*
X-21727Y-121477D01*
X-22884Y-120703D01*
X-24191Y-120443D01*
X-24757Y-119878D01*
X-25501Y-119381D01*
X-26379Y-119206D01*
X-40766D01*
X-41292Y-117936D01*
X-35789Y-112433D01*
X-13561D01*
X-11000Y-114994D01*
Y-120750D01*
X-4000D01*
Y-111750D01*
X-7756D01*
X-10989Y-108517D01*
X-11733Y-108020D01*
X-12611Y-107845D01*
X-36739D01*
X-36739Y-107845D01*
X-37617Y-108020D01*
X-38361Y-108517D01*
X-46130Y-116286D01*
X-47400Y-115760D01*
Y-110000D01*
X-52600D01*
Y-118500D01*
X-52500D01*
Y-129400D01*
X-53500D01*
Y-133500D01*
X-59500D01*
Y-118500D01*
X-55400D01*
Y-110000D01*
X-55400Y-110000D01*
X-55400D01*
X-55400Y-110000D01*
X-55107Y-108851D01*
X-51550Y-105294D01*
X-5265D01*
X-5032Y-106463D01*
X-4204Y-107704D01*
X-2963Y-108532D01*
X-1500Y-108823D01*
X-37Y-108532D01*
X436Y-108216D01*
X1706Y-108895D01*
Y-125800D01*
X-2849Y-130355D01*
X-4000Y-130750D01*
Y-130750D01*
X-4000Y-130750D01*
X-11000D01*
Y-139750D01*
X-4000D01*
Y-137445D01*
X-3622Y-137369D01*
X-2878Y-136872D01*
X5622Y-128372D01*
X5622Y-128372D01*
X7071Y-128490D01*
X7300Y-128666D01*
Y-130450D01*
X16700D01*
Y-130450D01*
X17765Y-130009D01*
X22250Y-134494D01*
Y-139250D01*
X29250D01*
Y-131250D01*
X25494D01*
X18693Y-124449D01*
X17949Y-123952D01*
X17071Y-123777D01*
X16700D01*
Y-121450D01*
X14494D01*
Y-120200D01*
X14319Y-119322D01*
X13822Y-118578D01*
X13015Y-117771D01*
X13069Y-117500D01*
X12797Y-116134D01*
X12023Y-114977D01*
X10866Y-114203D01*
X9500Y-113931D01*
X8134Y-114203D01*
X7564Y-114584D01*
X6294Y-113905D01*
Y-104136D01*
X6119Y-103258D01*
X5622Y-102514D01*
X1486Y-98378D01*
X742Y-97881D01*
X-136Y-97706D01*
D02*
G37*
%LPD*%
G36*
X-61950Y-46350D02*
X-54250D01*
X-54250Y-69500D01*
X-60500D01*
X-60500Y-53750D01*
X-66000Y-53750D01*
Y-74750D01*
X-134000Y-74750D01*
Y-61500D01*
X-122500D01*
Y-68500D01*
X-122389Y-68389D01*
X-109500D01*
Y-69000D01*
X-95000D01*
Y-67559D01*
X-90250D01*
X-90250Y-67559D01*
X-89080Y-67326D01*
X-88087Y-66663D01*
X-83174Y-61750D01*
X-77000D01*
Y-61139D01*
X-75389D01*
X-75250Y-61000D01*
Y-45500D01*
X-61950D01*
Y-46350D01*
D02*
G37*
G36*
X37500Y-61750D02*
X43750D01*
X43750Y-55648D01*
X44648Y-54750D01*
X51250Y-54750D01*
X51250Y-61750D01*
X53250Y-61750D01*
X57000Y-58000D01*
Y-48000D01*
X66000D01*
Y-58000D01*
X55250Y-68750D01*
X20250D01*
Y-61750D01*
X30000D01*
Y-56150D01*
X30400D01*
Y-48105D01*
X30755Y-47750D01*
X37500D01*
Y-61750D01*
D02*
G37*
D10*
X-36250Y-139650D02*
X-20400D01*
X-17000Y-136250D01*
Y-135250D01*
X-50000Y-139050D02*
Y-137750D01*
Y-139050D02*
X-49400Y-139650D01*
X-36250D01*
X-98000Y13250D02*
X-97750Y13000D01*
Y3250D02*
Y13000D01*
X-84500Y34000D02*
X-80750Y37750D01*
X-97000Y34000D02*
X-84500D01*
X-97750Y3250D02*
X-93000Y8000D01*
X-98000Y-2750D02*
X-97750Y-2500D01*
X-93000Y8000D02*
Y13250D01*
X-97750Y-2500D02*
Y3250D01*
X-109500Y34000D02*
X-97000D01*
X-97000Y34000D01*
X-98000Y-8250D02*
Y-2750D01*
X-103000Y-16000D02*
Y-13250D01*
X-98000Y-8250D01*
D11*
X-7109Y79141D02*
Y83808D01*
X-12296Y92107D02*
X-6589Y86399D01*
Y84328D02*
Y86399D01*
X-7109Y83808D02*
X-6589Y84328D01*
X-7109Y79141D02*
X-7109Y79141D01*
X-7250Y79000D02*
X-7109Y79141D01*
X7609D01*
X-14250Y93500D02*
X-13709D01*
X-12315Y92107D01*
X-12296D01*
X7609Y79141D02*
X19279Y67471D01*
X-30404Y48918D02*
X-20672Y39186D01*
X-30404Y48918D02*
Y53300D01*
X-33923Y46780D02*
X-23500Y36358D01*
X-39997Y46780D02*
X-33923D01*
X10750Y-10500D02*
X15201D01*
X10000Y-11250D02*
X10750Y-10500D01*
X15201D02*
X19279Y-6422D01*
X3722Y100286D02*
Y104528D01*
X2500Y99064D02*
X3722Y100286D01*
X1111Y89967D02*
X2500Y91356D01*
Y99064D01*
X1111Y87139D02*
Y89967D01*
X-60000Y-143250D02*
X-57850D01*
X-68250D02*
X-60000D01*
X-58100Y-137850D02*
X-58000Y-137750D01*
X-58100Y-141350D02*
Y-137850D01*
X-60000Y-143250D02*
X-58100Y-141350D01*
X-54000Y-139400D02*
Y-137750D01*
X-57850Y-143250D02*
X-54000Y-139400D01*
X-73250Y-138250D02*
X-68250Y-143250D01*
X123750Y13750D02*
X128250D01*
X116500Y21000D02*
X123750Y13750D01*
X116500Y13250D02*
Y21000D01*
X30593Y56157D02*
X38000Y63564D01*
Y70750D02*
X41778Y74528D01*
X38000Y63564D02*
Y70750D01*
X-28750Y-17850D02*
X-14350D01*
X-7250Y-10750D01*
X-103000Y10500D02*
Y13250D01*
X-107117Y6383D02*
X-103000Y10500D01*
X-107117Y4383D02*
Y6383D01*
X-107500Y4000D02*
X-107117Y4383D01*
X-71000Y73750D02*
X-67899D01*
X-62345Y68196D01*
Y68196D02*
Y68196D01*
X-30250Y32500D02*
X-29000D01*
X-40139Y42389D02*
X-30250Y32500D01*
X-40139Y42389D02*
Y43527D01*
X-40280Y43669D02*
X-40139Y43527D01*
X-40750Y-17850D02*
X-28865D01*
X116500Y13250D02*
X120000Y9750D01*
X29750Y66627D02*
Y73250D01*
X25141Y77859D02*
X29750Y73250D01*
X25141Y77859D02*
Y91109D01*
X4223Y87139D02*
X9361D01*
X24500Y72000D01*
Y67034D02*
Y72000D01*
X22108Y64642D02*
X24500Y67034D01*
X24936Y61814D02*
X29750Y66627D01*
X33389Y80060D02*
Y82889D01*
Y80060D02*
X33750Y79699D01*
Y64971D02*
Y79699D01*
X27765Y58985D02*
X33750Y64971D01*
X-121752Y53284D02*
Y65318D01*
Y41251D02*
Y53284D01*
X-94000Y-16000D02*
X-88000D01*
X-123091Y39912D02*
X-121752Y41251D01*
X-121946Y65512D02*
X-121752Y65318D01*
X-40280Y46497D02*
X-40139Y46639D01*
X-40280Y43669D02*
Y46497D01*
X-120250Y-100250D02*
X-112250Y-108250D01*
X-109250D02*
X-105750Y-111750D01*
X-112250Y-108250D02*
X-109250D01*
X-120250Y-100250D02*
Y-99500D01*
X-105750Y-111750D02*
X-99000D01*
X120000Y9750D02*
X128250D01*
X-39773Y63023D02*
X-36200D01*
X-29861Y69361D01*
X-40139Y46639D02*
X-39997Y46780D01*
X-30404Y53300D02*
X-30227Y53477D01*
X1253Y87280D02*
X4081D01*
X1111Y87139D02*
X1253Y87280D01*
X4081D02*
X4223Y87139D01*
X25000Y91250D02*
Y91250D01*
X21046Y95204D02*
X25000Y91250D01*
X21046Y95204D02*
Y106296D01*
X21400Y106650D01*
X25000Y91250D02*
X25141Y91109D01*
D13*
X58833Y16250D02*
X94000D01*
X33250Y-107500D02*
X38750Y-113000D01*
X56250Y-109777D02*
X66305Y-119832D01*
X56250Y-109777D02*
Y-100500D01*
X66305Y-120357D02*
Y-119832D01*
X61500Y-109515D02*
Y-102250D01*
Y-109515D02*
X69697Y-117712D01*
Y-118237D02*
Y-117712D01*
X66750Y-109254D02*
Y-107377D01*
X38750Y-120250D02*
Y-113000D01*
X9500Y-117500D02*
X12200Y-120200D01*
X12000Y-125950D02*
X12200Y-125750D01*
Y-120200D01*
X12000Y-125950D02*
X12121Y-126071D01*
X-23639Y63139D02*
Y63139D01*
Y63139D02*
X-22250Y61750D01*
Y46421D02*
X-17844Y42015D01*
X-17621Y51250D02*
X-15871Y53000D01*
X-11994D01*
X-18000Y51250D02*
X-17621D01*
X-9494Y50500D02*
X-9358D01*
X-11994Y53000D02*
X-9494Y50500D01*
X-5750Y69519D02*
Y71253D01*
X-115500Y8750D02*
Y9250D01*
X-111500Y13250D01*
X-58000Y-108500D02*
X-52500Y-103000D01*
X-3879D02*
X-1879Y-105000D01*
X-52500Y-103000D02*
X-3879D01*
X-1879Y-105000D02*
X-1500D01*
X-54257Y-100000D02*
X-136D01*
X4000Y-104136D01*
X-62000Y-107743D02*
X-54257Y-100000D01*
X-62000Y-114250D02*
Y-107743D01*
X4000Y-126750D02*
Y-104136D01*
X-4500Y-135250D02*
X4000Y-126750D01*
X-7500Y-135250D02*
X-4500D01*
X-58000Y-114250D02*
Y-108500D01*
X-36739Y-110139D02*
X-12611D01*
X-7500Y-115250D01*
X-46600Y-120000D02*
X-36739Y-110139D01*
X55250Y-136750D02*
X65778D01*
X67801Y-135978D02*
X68715Y-135065D01*
X66550Y-135978D02*
X67801D01*
X65778Y-136750D02*
X66550Y-135978D01*
X45250Y-126750D02*
X55250Y-136750D01*
X-25092Y23100D02*
X-23500Y24691D01*
X-21377Y15500D02*
X-17844Y19034D01*
X-56177Y36134D02*
X-38564Y18521D01*
X-35250Y11000D02*
X-20221D01*
X-48639Y38389D02*
X-33350Y23100D01*
X-42028Y14028D02*
X-42028D01*
X-40555Y15500D02*
X-21377D01*
X-38564Y18521D02*
X-24013D01*
X-42028Y14028D02*
X-40555Y15500D01*
X-24013Y18521D02*
X-20672Y21862D01*
X-33350Y23100D02*
X-25092D01*
X-10702Y57500D02*
X-6530Y53328D01*
X-17250Y57500D02*
X-10702D01*
X-9795Y62250D02*
X-3702Y56157D01*
X-13500Y62250D02*
X-9795D01*
X-9250Y66750D02*
X-8638D01*
X-873Y58985D01*
X-5750Y69519D02*
X1955Y61814D01*
X-1000Y70426D02*
Y74500D01*
Y70426D02*
X4784Y64642D01*
X4750Y70333D02*
Y74500D01*
X151039Y-22211D02*
X160500Y-12750D01*
X155500Y17750D02*
X160500Y12750D01*
Y-12750D02*
Y12750D01*
X17886Y-15000D02*
X21386Y-11500D01*
X16500Y-15000D02*
X17886D01*
X21386Y-11500D02*
X21980D01*
X23250Y-15136D02*
X27500Y-10886D01*
X23250Y-16000D02*
Y-15136D01*
X31106Y-13644D02*
Y-1278D01*
X29750Y-15000D02*
X31106Y-13644D01*
X27500Y-10886D02*
Y-3464D01*
X24500Y-8980D02*
Y-6121D01*
X21980Y-11500D02*
X24500Y-8980D01*
X35750Y-15000D02*
Y-265D01*
X41500Y-15000D02*
Y-358D01*
X53500Y-15000D02*
Y-1045D01*
X47000Y-15000D02*
Y-202D01*
X39078Y13377D02*
X53500Y-1045D01*
X36250Y10548D02*
X47000Y-202D01*
X4750Y70333D02*
X7612Y67471D01*
X87366Y-119220D02*
X92836Y-113750D01*
X86524Y-119220D02*
X87366D01*
X92836Y-113750D02*
Y-113336D01*
X-24250Y-124000D02*
Y-123629D01*
X-26379Y-121500D02*
X-24250Y-123629D01*
X-41993Y-121500D02*
X-26379D01*
X-44143Y-123650D02*
X-41993Y-121500D01*
X-33187Y-124500D02*
X-28875Y-128813D01*
X-40750Y-124500D02*
X-33187D01*
X-44250Y-128000D02*
X-40750Y-124500D01*
X-48250Y-124000D02*
X-47900Y-123650D01*
X-44143D01*
X17071Y-126071D02*
X25750Y-134750D01*
X12121Y-126071D02*
X17071D01*
X25750Y-135250D02*
Y-134750D01*
X58426Y11000D02*
X68000D01*
X47564Y21862D02*
X58426Y11000D01*
X138000Y15250D02*
Y19500D01*
X134750Y12000D02*
X138000Y15250D01*
X142000Y-2250D02*
Y4000D01*
X138000Y-0D02*
Y4000D01*
X135750Y-2250D02*
X138000Y-0D01*
X132506Y-2250D02*
X135750D01*
X143750Y-25620D02*
X146880Y-28750D01*
X155000D01*
X143750Y-22750D02*
Y-22250D01*
X143750Y-22750D02*
X143750Y-22750D01*
X143750Y-25620D02*
Y-22750D01*
X138750Y-25750D02*
X146000Y-33000D01*
X138750Y-25750D02*
Y-22250D01*
X116250Y-37750D02*
X124250D01*
X128512Y-44165D02*
X128593Y-44085D01*
Y-42092D01*
X124250Y-37750D02*
X128593Y-42092D01*
X134500Y-78280D02*
Y-71740D01*
X130699Y-82080D02*
X134500Y-78280D01*
X134487Y-71727D02*
X134500Y-71740D01*
X134487Y-71727D02*
Y-65924D01*
X134270Y-65706D02*
X134487Y-65924D01*
X134270Y-65706D02*
Y-63052D01*
X130699Y-82081D02*
Y-82080D01*
X134270Y-63052D02*
X134487Y-62835D01*
X128250Y-66000D02*
X130640Y-63609D01*
X130729Y-63367D01*
Y-61467D01*
X122750Y-66000D02*
X128250D01*
X148750Y-7250D02*
Y1250D01*
X146000Y4000D02*
X148750Y1250D01*
X-36408Y112158D02*
X-36250D01*
X-57750Y-11500D02*
X-57750Y-11500D01*
X-14436D02*
X-873Y2063D01*
X-57750Y-11500D02*
X-14436D01*
X-15593Y-7000D02*
X-3701Y4892D01*
X-53500Y-7000D02*
X-15593D01*
X-16750Y-2500D02*
X-6530Y7720D01*
X-49000Y-2500D02*
X-16750D01*
X-2105Y-13880D02*
Y-4826D01*
X895Y-12637D02*
X7750Y-19493D01*
X895Y-12637D02*
Y-7483D01*
X4784Y-3594D01*
X-2105Y-13880D02*
X3750Y-19735D01*
X-2105Y-4826D02*
X1955Y-765D01*
X-76851Y66500D02*
X-71155Y60804D01*
X-113021Y79021D02*
X-107804Y84238D01*
X-104825Y69325D02*
X-99641Y74509D01*
X-44500Y2000D02*
X-17907D01*
X-9358Y10548D01*
X-40000Y6500D02*
X-19064D01*
X-12187Y13377D01*
X-20221Y11000D02*
X-15015Y16205D01*
X-63061Y36134D02*
X-56177D01*
X-63472Y35723D02*
X-63061Y36134D01*
X-55696Y110762D02*
X-46599Y119859D01*
X-47533Y101033D02*
X-36408Y112158D01*
X-46245Y9810D02*
X-42028Y14028D01*
X-57687Y9810D02*
X-46245D01*
X-99641Y74509D02*
X-99271D01*
X103000Y-85000D02*
X103812D01*
X104648Y-85836D01*
X109737D01*
X109808Y-85764D01*
X50392Y24691D02*
X58833Y16250D01*
X79000Y27250D02*
X94000D01*
X79000Y21750D02*
X94000D01*
X78510Y33750D02*
X94000D01*
X86000Y-22000D02*
Y-10000D01*
X96000Y-22000D02*
Y-10000D01*
X59431Y-1250D02*
X68000D01*
X58519Y5250D02*
X68000D01*
X44735Y19034D02*
X58519Y5250D01*
X41976Y16205D02*
X59431Y-1250D01*
X56000Y44750D02*
X79000Y21750D01*
X58500Y47750D02*
X79000Y27250D01*
X61510Y50750D02*
X78510Y33750D01*
X44949Y47750D02*
X58500D01*
X62772Y31728D02*
Y32978D01*
X50392Y36108D02*
Y36358D01*
X62772Y31728D02*
X63250Y31250D01*
X50392Y36108D02*
X57000Y29500D01*
X57000D01*
X47606Y44750D02*
X56000D01*
X44735Y42015D02*
X44871D01*
X47699Y39186D02*
X50263Y41750D01*
X41907Y44843D02*
X42042D01*
X44949Y47750D01*
X44871Y42015D02*
X47606Y44750D01*
X47564Y39186D02*
X47699D01*
X50263Y41750D02*
X54000D01*
X39078Y47672D02*
X42157Y50750D01*
X61510D01*
X54000Y41750D02*
X62772Y32978D01*
X66000Y-22000D02*
Y-10000D01*
X76000Y-22000D02*
Y-10000D01*
X132256Y-2500D02*
X132506Y-2250D01*
X41907Y16205D02*
X41976D01*
X27522Y-42728D02*
Y-41728D01*
X23750Y-51500D02*
Y-46500D01*
X19750Y-44000D02*
X22500Y-41250D01*
X23750Y-46500D02*
X27522Y-42728D01*
X22500Y-41250D02*
Y-41250D01*
X27522Y-41728D02*
X28000Y-41250D01*
X33422Y7720D02*
X41500Y-358D01*
X30593Y4892D02*
X35750Y-265D01*
X27765Y2063D02*
X31106Y-1278D01*
X34483Y-40778D02*
Y-40778D01*
X27750Y-47510D02*
X34483Y-40778D01*
X27750Y-51500D02*
Y-47510D01*
X19750Y-51500D02*
Y-44000D01*
X10250Y-42129D02*
X11750Y-43629D01*
Y-51500D02*
Y-43629D01*
X10250Y-42129D02*
Y-41500D01*
X4750Y-42426D02*
Y-41750D01*
X7750Y-51500D02*
Y-45426D01*
X4750Y-42426D02*
X7750Y-45426D01*
X15750Y-51500D02*
Y-41750D01*
X16000Y-41500D01*
X24936Y-900D02*
X27500Y-3464D01*
X24936Y-900D02*
Y-765D01*
X3370Y-32120D02*
X3750Y-32500D01*
X22108Y-3729D02*
Y-3594D01*
Y-3729D02*
X24500Y-6121D01*
X-93500Y25000D02*
X-88500Y20000D01*
X-97000Y25000D02*
X-93500D01*
X-88500Y4500D02*
Y20000D01*
X3750Y-32500D02*
X12500D01*
X15634Y-25116D02*
X15750Y-25000D01*
X12500Y-32500D02*
X15634Y-29366D01*
Y-25116D01*
X5000Y-12500D02*
X11750Y-19250D01*
Y-25000D02*
Y-19250D01*
X5000Y-9142D02*
X7612Y-6530D01*
X5000Y-12500D02*
Y-9142D01*
X3750Y-25000D02*
Y-19735D01*
X7750Y-25000D02*
Y-19493D01*
X7612Y-6530D02*
Y-6422D01*
X-6530Y7720D02*
X-6530D01*
X-93000Y-2750D02*
Y0D01*
X-88500Y4500D01*
X-71155Y60804D02*
X-71155D01*
X-139951Y54264D02*
X-139199Y55016D01*
Y61256D01*
Y62874D01*
X-133584Y68488D01*
X-133054D01*
X-107804Y84238D02*
X-107434D01*
X-72023Y130220D02*
X-65751Y136492D01*
X-72393Y130220D02*
X-72023D01*
X-65751Y136492D02*
X-50957D01*
X-50828Y136621D01*
X-64229Y120491D02*
X-63860D01*
X-58550Y125800D01*
X-56066Y110762D02*
X-55696D01*
X-47902Y101033D02*
X-47533D01*
X-121092Y88842D02*
X-115967Y93967D01*
X-115598D01*
X-50828Y136621D02*
X-50828D01*
X-47699Y139750D01*
X-43500D01*
X4784Y64642D02*
X4784D01*
X-7500Y-116250D02*
Y-115250D01*
X92250Y-112750D02*
X92836Y-113336D01*
X66750Y-109254D02*
X73089Y-115593D01*
X88007Y-112750D02*
X92250D01*
X84405Y-115827D02*
X84930D01*
X88007Y-112750D01*
X148750Y-17250D02*
Y-12250D01*
X133750Y-17250D02*
X148750D01*
X142999Y-55413D02*
X143225Y-55639D01*
X138088Y-55413D02*
X142999D01*
X137750Y-55750D02*
X138088Y-55413D01*
X141135Y-59398D02*
X141857D01*
X137750Y-56013D02*
X141135Y-59398D01*
X137750Y-56013D02*
Y-55750D01*
X-48250Y-128000D02*
X-44250D01*
X125000Y-32000D02*
X133250Y-40250D01*
X125000Y-32000D02*
Y-30000D01*
X136750Y-46181D02*
Y-33750D01*
X133000Y-30000D02*
X136750Y-33750D01*
X73089Y-116118D02*
Y-115593D01*
X79250Y-109500D02*
X82185Y-112435D01*
X82285D01*
X119775Y-51361D02*
X120414Y-52000D01*
X127000D01*
X45250Y-126750D02*
Y-120250D01*
X-48250Y-120000D02*
X-46600D01*
X122508Y-76345D02*
Y-76314D01*
X125322Y-73500D01*
X130250D01*
X148250Y-48224D02*
Y-48139D01*
X144593Y-51881D02*
X148250Y-48224D01*
X136030Y-46901D02*
X136750Y-46181D01*
X132271Y-45533D02*
X133250Y-44555D01*
Y-40250D01*
X151750Y17750D02*
X155500D01*
X118412Y-73477D02*
X118484Y-73405D01*
Y-55197D01*
X118406Y-55119D02*
X118484Y-55197D01*
X115544Y-77573D02*
Y-77542D01*
X108524Y-70521D02*
X115544Y-77542D01*
X108524Y-70521D02*
Y-69146D01*
X142000Y12500D02*
X143250Y13750D01*
X151750D01*
X131934Y36614D02*
X135321Y40000D01*
X119902Y36627D02*
X123275Y40000D01*
X130521Y35200D02*
X131934Y36614D01*
X130250Y35200D02*
X130521D01*
X135321Y40000D02*
X135750D01*
X118475Y35200D02*
X119902Y36627D01*
X118250Y35200D02*
X118475D01*
X123275Y40000D02*
X123500D01*
X131738Y27463D02*
X134000Y25202D01*
X126719Y28952D02*
X130250D01*
X121781D02*
X126719D01*
X134000Y19500D02*
Y25202D01*
X148750Y-22250D02*
X148789Y-22211D01*
X151039D01*
X80500Y-53000D02*
X82500Y-51000D01*
Y-39500D01*
X-35500Y-78500D02*
Y-77750D01*
Y-78500D02*
X-27750Y-86250D01*
X-21500D01*
X-48639Y38389D02*
X-48639D01*
X-70238Y17765D02*
X-67940Y20063D01*
Y31255D01*
X-63472Y35722D01*
Y35723D01*
X-59985Y7512D02*
X-57687Y9810D01*
X-23639Y63139D02*
X-23264D01*
X-15764Y70639D01*
X-15389D01*
D14*
X119738Y27463D02*
G03*
X121781Y28952I-1488J4188D01*
G01*
X114719D02*
G03*
X119738Y27463I3531J2700D01*
G01*
X113945Y30546D02*
G03*
X114719Y28952I4305J1105D01*
G01*
X131934Y36614D02*
G03*
X130250Y36945I-1684J-4114D01*
G01*
X133961Y34946D02*
G03*
X131934Y36614I-3711J-2446D01*
G01*
X119902Y36627D02*
G03*
X118250Y36945I-1652J-4127D01*
G01*
X121961Y34946D02*
G03*
X119902Y36627I-3711J-2446D01*
G01*
X131738Y27463D02*
G03*
X134555Y30546I-1488J4188D01*
G01*
X126719Y28952D02*
G03*
X131738Y27463I3531J2700D01*
G01*
X125945Y30546D02*
G03*
X126719Y28952I4305J1105D01*
G01*
X121781D02*
G03*
X122555Y30546I-3531J2700D01*
G01*
Y33605D02*
G03*
X121961Y34946I-4305J-1105D01*
G01*
X118250Y36945D02*
G03*
X113945Y33605I0J-4445D01*
G01*
X134555D02*
G03*
X133961Y34946I-4305J-1105D01*
G01*
X130250Y36945D02*
G03*
X125945Y33605I0J-4445D01*
G01*
D16*
X-28750Y-26650D02*
D03*
Y-17850D02*
D03*
X-40750Y-17850D02*
D03*
Y-26650D02*
D03*
X-68500Y-92750D02*
D03*
Y-101550D02*
D03*
X-36250Y-139650D02*
D03*
Y-130850D02*
D03*
X35750Y-65250D02*
D03*
Y-74050D02*
D03*
X24000Y-65250D02*
D03*
Y-74050D02*
D03*
X47500Y-65250D02*
D03*
Y-74050D02*
D03*
X12000Y-134750D02*
D03*
X12000Y-125950D02*
D03*
X-57250Y-50650D02*
D03*
Y-41850D02*
D03*
D17*
X-79000Y-27500D02*
D03*
Y-18500D02*
D03*
X-67000Y-18250D02*
D03*
Y-27250D02*
D03*
X-109500Y25000D02*
D03*
Y34000D02*
D03*
X-115500Y-250D02*
D03*
Y8750D02*
D03*
X-97000Y25000D02*
D03*
Y34000D02*
D03*
D18*
X-103000Y-16000D02*
D03*
X-94000D02*
D03*
D19*
X-47902Y101033D02*
D03*
X-56066Y110762D02*
D03*
X-64229Y120491D02*
D03*
X-72393Y130220D02*
D03*
X-91107Y64780D02*
D03*
X-99271Y74509D02*
D03*
X-107434Y84238D02*
D03*
X-115598Y93967D02*
D03*
D20*
X-103000Y13250D02*
D03*
X-98000D02*
D03*
X-93000D02*
D03*
Y-2750D02*
D03*
X-98000D02*
D03*
D21*
X-103000D02*
D03*
D22*
X-152000Y8500D02*
D03*
X-152250Y-1500D02*
D03*
X-151750Y-11500D02*
D03*
D23*
X86000Y-22000D02*
D03*
X96000D02*
D03*
X76000D02*
D03*
X66000D02*
D03*
D24*
X-9358Y50500D02*
D03*
X-23500Y36358D02*
D03*
X-20672Y39186D02*
D03*
X-17844Y42015D02*
D03*
X-15015Y44843D02*
D03*
X-12187Y47672D02*
D03*
X-6530Y53328D02*
D03*
X-3702Y56157D02*
D03*
X-873Y58985D02*
D03*
X1955Y61814D02*
D03*
X4784Y64642D02*
D03*
X7612Y67471D02*
D03*
X50392Y24691D02*
D03*
X47564Y21862D02*
D03*
X44735Y19034D02*
D03*
X41907Y16205D02*
D03*
X39078Y13377D02*
D03*
X36250Y10548D02*
D03*
X33422Y7720D02*
D03*
X30593Y4892D02*
D03*
X27765Y2063D02*
D03*
X24936Y-765D02*
D03*
X22108Y-3594D02*
D03*
X19279Y-6422D02*
D03*
D25*
X-15389Y70639D02*
D03*
X-21611Y76861D02*
D03*
X1111Y87139D02*
D03*
X-5111Y93361D02*
D03*
X-7250Y79000D02*
D03*
X-13472Y85223D02*
D03*
X-40139Y46639D02*
D03*
X-46361Y52861D02*
D03*
X-48639Y38389D02*
D03*
X-54861Y44611D02*
D03*
X-42028Y14028D02*
D03*
X-48250Y20250D02*
D03*
X-63472Y35723D02*
D03*
X-57250Y29500D02*
D03*
D26*
X11500Y96750D02*
D03*
X3722Y104528D02*
D03*
X21400Y106650D02*
D03*
X13621Y114428D02*
D03*
D27*
X25000Y91250D02*
D03*
X31223Y97473D02*
D03*
X33389Y82889D02*
D03*
X39611Y89111D02*
D03*
X41778Y74528D02*
D03*
X48000Y80750D02*
D03*
X55611Y70111D02*
D03*
X49389Y63889D02*
D03*
X89889Y-94111D02*
D03*
X96111Y-87889D02*
D03*
X98304Y-102305D02*
D03*
X104526Y-96082D02*
D03*
X106554Y-110805D02*
D03*
X112776Y-104582D02*
D03*
D28*
X13446Y30524D02*
D03*
D29*
X19279Y67471D02*
D03*
X22108Y64642D02*
D03*
X24936Y61814D02*
D03*
X27765Y58985D02*
D03*
X30593Y56157D02*
D03*
X33421Y53328D02*
D03*
X36250Y50500D02*
D03*
X39078Y47672D02*
D03*
X41907Y44843D02*
D03*
X44735Y42015D02*
D03*
X47564Y39186D02*
D03*
X50392Y36358D02*
D03*
X7612Y-6422D02*
D03*
X4784Y-3594D02*
D03*
X1955Y-765D02*
D03*
X-873Y2063D02*
D03*
X-3701Y4892D02*
D03*
X-6530Y7720D02*
D03*
X-9358Y10548D02*
D03*
X-12187Y13377D02*
D03*
X-15015Y16205D02*
D03*
X-17844Y19034D02*
D03*
X-20672Y21862D02*
D03*
X-23500Y24691D02*
D03*
D30*
X71108Y69968D02*
D03*
X77331Y76190D02*
D03*
D31*
X63500Y62500D02*
D03*
X69722Y56277D02*
D03*
X-29861Y69361D02*
D03*
X-23639Y63139D02*
D03*
D32*
X109864Y108724D02*
D03*
X89358Y88218D02*
D03*
D33*
X-139951Y54264D02*
D03*
X-144868Y35912D02*
D03*
X-123091Y39912D02*
D03*
D34*
X-140250Y19861D02*
D03*
X-148750Y22139D02*
D03*
D35*
X-121946Y65512D02*
D03*
X-133054Y68488D02*
D03*
D36*
X-120500Y-30500D02*
D03*
X-109000D02*
D03*
X-70750Y-57250D02*
D03*
X-82250D02*
D03*
X82500Y-39500D02*
D03*
X71000D02*
D03*
D37*
X-120250Y-88000D02*
D03*
Y-99500D02*
D03*
X-108250Y-108500D02*
D03*
Y-97000D02*
D03*
X-35500Y-77750D02*
D03*
Y-66250D02*
D03*
X12250Y-75500D02*
D03*
Y-64000D02*
D03*
D38*
X-88750Y-115020D02*
D03*
Y-89480D02*
D03*
D39*
Y-109250D02*
D03*
Y-95250D02*
D03*
D40*
X-78500Y-92750D02*
D03*
Y-98750D02*
D03*
Y-105250D02*
D03*
Y-111750D02*
D03*
X-99000D02*
D03*
Y-105250D02*
D03*
Y-98750D02*
D03*
D41*
Y-92750D02*
D03*
D42*
X-84350Y-123000D02*
D03*
X-93150D02*
D03*
X113550Y-10500D02*
D03*
X122350D02*
D03*
X113700Y-22250D02*
D03*
X122500D02*
D03*
X108450Y1500D02*
D03*
X117250D02*
D03*
D43*
X103476Y-76354D02*
D03*
X108524Y-69146D02*
D03*
D44*
X-17000Y-135250D02*
D03*
X-7500D02*
D03*
Y-116250D02*
D03*
X-17000D02*
D03*
D45*
X-12250Y-125750D02*
D03*
D46*
X-39773Y63023D02*
D03*
X-30227Y53477D02*
D03*
D47*
X-59985Y7512D02*
D03*
X-70238Y17765D02*
D03*
D48*
X-62345Y68196D02*
D03*
X-71155Y60804D02*
D03*
D49*
X-45172Y129879D02*
D03*
X-50828Y136621D02*
D03*
D50*
X71000Y-73000D02*
D03*
X61500Y-53000D02*
D03*
X80500D02*
D03*
X-12000Y-66250D02*
D03*
X-2500Y-86250D02*
D03*
X-21500D02*
D03*
D51*
X134000Y4500D02*
D03*
D52*
X138000Y4000D02*
D03*
X142000D02*
D03*
X146000D02*
D03*
Y19500D02*
D03*
X142000D02*
D03*
X138000D02*
D03*
X134000D02*
D03*
X-50000Y-114250D02*
D03*
X-54000D02*
D03*
X-58000D02*
D03*
X-62000D02*
D03*
Y-137750D02*
D03*
X-58000D02*
D03*
X-54000D02*
D03*
X-50000D02*
D03*
D53*
X151750Y5750D02*
D03*
Y9750D02*
D03*
Y13750D02*
D03*
Y17750D02*
D03*
X128250D02*
D03*
Y13750D02*
D03*
Y9750D02*
D03*
Y5750D02*
D03*
X-48250Y-128000D02*
D03*
Y-124000D02*
D03*
Y-120000D02*
D03*
X-63750D02*
D03*
Y-124000D02*
D03*
Y-128000D02*
D03*
Y-132000D02*
D03*
D54*
X139618Y-48739D02*
D03*
D55*
X136030Y-46901D02*
D03*
X132271Y-45533D02*
D03*
X128512Y-44165D02*
D03*
X123211Y-58731D02*
D03*
X126970Y-60099D02*
D03*
X130729Y-61467D02*
D03*
X134487Y-62835D02*
D03*
D56*
X122511Y-43843D02*
D03*
X121143Y-47602D02*
D03*
X119775Y-51361D02*
D03*
X118406Y-55119D02*
D03*
X140489Y-63157D02*
D03*
X141857Y-59398D02*
D03*
X143225Y-55639D02*
D03*
X144593Y-51881D02*
D03*
D57*
X127831Y-86176D02*
D03*
X124964Y-90272D02*
D03*
X122096Y-94368D02*
D03*
X118000Y-91500D02*
D03*
X113904Y-88632D02*
D03*
X109808Y-85764D02*
D03*
X112676Y-81668D02*
D03*
X115544Y-77573D02*
D03*
X118412Y-73477D02*
D03*
X122508Y-76345D02*
D03*
X126604Y-79213D02*
D03*
X130699Y-82081D02*
D03*
D58*
X-20650Y-38250D02*
D03*
X48150D02*
D03*
D59*
X-4250Y-51500D02*
D03*
X-250D02*
D03*
X3750D02*
D03*
X7750D02*
D03*
X11750D02*
D03*
X15750D02*
D03*
X19750D02*
D03*
X23750D02*
D03*
X27750D02*
D03*
X31750D02*
D03*
Y-25000D02*
D03*
X27750D02*
D03*
X23750D02*
D03*
X19750D02*
D03*
X15750D02*
D03*
X11750D02*
D03*
X7750D02*
D03*
X3750D02*
D03*
X-250D02*
D03*
X-4250D02*
D03*
X35750D02*
D03*
Y-51500D02*
D03*
X-8250Y-25000D02*
D03*
Y-51500D02*
D03*
D60*
X-48750Y-132000D02*
D03*
D61*
X76746Y-114422D02*
D03*
D62*
X73089Y-116118D02*
D03*
X69697Y-118237D02*
D03*
X66305Y-120357D02*
D03*
X74519Y-133502D02*
D03*
X77911Y-131382D02*
D03*
X81303Y-129263D02*
D03*
X84695Y-127143D02*
D03*
D63*
X62356Y-124888D02*
D03*
X64476Y-128280D02*
D03*
X66595Y-131673D02*
D03*
X68715Y-135065D02*
D03*
X88644Y-122612D02*
D03*
X86524Y-119220D02*
D03*
X84405Y-115827D02*
D03*
X82285Y-112435D02*
D03*
D64*
X25750Y-120250D02*
D03*
X32250Y-120250D02*
D03*
X38750D02*
D03*
X45250Y-120250D02*
D03*
Y-135250D02*
D03*
X38750Y-135250D02*
D03*
X32250D02*
D03*
X25750Y-135250D02*
D03*
D65*
X143750Y-22250D02*
D03*
X138750D02*
D03*
X133750D02*
D03*
Y-17250D02*
D03*
Y-12250D02*
D03*
Y-7250D02*
D03*
X138750D02*
D03*
X143750D02*
D03*
X148750D02*
D03*
Y-12250D02*
D03*
Y-17250D02*
D03*
Y-22250D02*
D03*
D66*
X-70500Y-36950D02*
D03*
Y-41950D02*
D03*
Y-46950D02*
D03*
X-83500D02*
D03*
Y-41950D02*
D03*
Y-36950D02*
D03*
D67*
X-128250Y-45500D02*
D03*
Y-55000D02*
D03*
Y-64500D02*
D03*
X-102250D02*
D03*
Y-55000D02*
D03*
Y-45500D02*
D03*
D72*
X-81750Y97500D02*
D03*
D124*
X-64448Y92437D02*
D03*
X-72108Y86009D02*
D03*
X-79769Y79581D02*
D03*
X-70876Y100098D02*
D03*
X-78536Y93670D02*
D03*
X-86196Y87242D02*
D03*
X-77304Y107758D02*
D03*
X-84964Y101330D02*
D03*
X-92624Y94902D02*
D03*
X-83731Y115419D02*
D03*
X-91392Y108991D02*
D03*
X-99052Y102563D02*
D03*
D127*
X118250Y28952D02*
D03*
Y35200D02*
D03*
X130250Y28952D02*
D03*
Y35200D02*
D03*
D128*
X70057Y-128211D02*
X79777Y-123582D01*
X79923Y-123172D01*
X80250Y-122250D01*
X66595Y-131673D02*
X70057Y-128211D01*
D129*
X-22250Y46421D02*
Y61750D01*
D130*
X-61250Y-18750D02*
X-58750Y-21250D01*
X-66500Y-18750D02*
X-61250D01*
X-67000Y-18250D02*
X-66500Y-18750D01*
X71000Y-73000D02*
Y-39500D01*
X6500Y-64000D02*
X12250D01*
X-48500Y-26750D02*
X-40850D01*
X-40750Y-26650D01*
X-67000Y-27250D02*
X-61000D01*
X-57250Y-41850D02*
Y-31000D01*
X-61000Y-27250D02*
X-57250Y-31000D01*
X-70500Y-41950D02*
X-57350D01*
X-57250Y-41850D01*
X-73750Y-36950D02*
Y-33250D01*
Y-36950D02*
X-70500D01*
X-79000Y-28000D02*
X-73750Y-33250D01*
X-79000Y-28000D02*
Y-27500D01*
X-23750Y-66250D02*
X-12000D01*
X-35500D02*
X-23750D01*
X-109000Y-30500D02*
X-102250Y-37250D01*
Y-45500D02*
Y-37250D01*
X-150340Y23728D02*
X-148750Y22139D01*
X-155229Y23728D02*
X-150340D01*
X-157500Y26000D02*
X-155229Y23728D01*
X-148750Y22139D02*
Y30933D01*
X-144868Y34815D01*
Y35912D01*
X-68500Y-92750D02*
X-68300D01*
X-62500Y-86950D01*
Y-82000D01*
X-78500Y-92750D02*
X-68500D01*
X-68500Y-92750D01*
X-100750Y-44000D02*
X-97342D01*
X-95292Y-41950D01*
X-83500D01*
X-102250Y-45500D02*
X-100750Y-44000D01*
X-82250Y-57250D02*
Y-46950D01*
X-83500D02*
X-82250D01*
X-102250Y-64500D02*
X-90250D01*
X-83000Y-57250D01*
X-82250D01*
X-128250Y-55000D02*
X-102250D01*
X-108250Y-97000D02*
Y-90750D01*
X71000Y-39500D02*
X71000Y-39500D01*
D131*
X36250Y50500D02*
X49389Y63639D01*
Y63889D01*
D132*
X55750Y70111D02*
X63361Y62500D01*
X55611Y70111D02*
X55750D01*
X63570Y62500D02*
X71038Y69968D01*
X63361Y62500D02*
X63500D01*
X63570D01*
X-2500Y-86250D02*
X2250D01*
X11750Y-76750D01*
X11750D01*
X12250Y-76250D01*
Y-75500D01*
X77331Y76190D02*
X89358Y88218D01*
X71038Y69968D02*
X71108D01*
D133*
X129075Y53655D02*
D03*
X65575Y129855D02*
D03*
X40175D02*
D03*
X52875Y104455D02*
D03*
X14775Y129855D02*
D03*
X-10625D02*
D03*
X-36025D02*
D03*
X-23325Y104455D02*
D03*
Y-47945D02*
D03*
X-61425Y79055D02*
D03*
X-48725Y-47945D02*
D03*
X-86825Y129855D02*
D03*
Y28255D02*
D03*
X-112225Y-22545D02*
D03*
X-137625Y28255D02*
D03*
X-124925Y2855D02*
D03*
X-137625Y-22545D02*
D03*
X94000Y16250D02*
D03*
X33250Y-107500D02*
D03*
X56250Y-100500D02*
D03*
X61500Y-102250D02*
D03*
X66750Y-107377D02*
D03*
X25750Y-99500D02*
D03*
X35379D02*
D03*
X30564D02*
D03*
X80250Y-122250D02*
D03*
X-17250Y57500D02*
D03*
X-13500Y62250D02*
D03*
X-9250Y66750D02*
D03*
X-18000Y51250D02*
D03*
X-5750Y71253D02*
D03*
X-1000Y74500D02*
D03*
X4750D02*
D03*
X-14250Y93500D02*
D03*
X16500Y-15000D02*
D03*
X41500D02*
D03*
X47000D02*
D03*
X50500Y-27750D02*
D03*
X-151750Y-11500D02*
D03*
X-152250Y-1500D02*
D03*
X-152000Y8500D02*
D03*
X-6250Y-31250D02*
D03*
X-24250Y-124000D02*
D03*
X-28750Y-130250D02*
D03*
X-73250Y-138250D02*
D03*
X68000Y11000D02*
D03*
X116500Y21000D02*
D03*
X134750Y12000D02*
D03*
X142000Y-2250D02*
D03*
X155000Y-28750D02*
D03*
X146000Y-33000D02*
D03*
X137500Y-12500D02*
D03*
X155000Y-2750D02*
D03*
X-36250Y112158D02*
D03*
X61447Y55914D02*
D03*
X48921Y56057D02*
D03*
X53754Y58682D02*
D03*
X-7250Y-10750D02*
D03*
X-80750Y37750D02*
D03*
X-71000Y73750D02*
D03*
X-76851Y66500D02*
D03*
X-113021Y79021D02*
D03*
X-104825Y69325D02*
D03*
X-58750Y-21250D02*
D03*
X-57750Y-11500D02*
D03*
X-29000Y32500D02*
D03*
X-46599Y119859D02*
D03*
X103000Y-85000D02*
D03*
X94000Y27250D02*
D03*
Y21750D02*
D03*
Y33750D02*
D03*
X86000Y-10000D02*
D03*
X96000D02*
D03*
X68000Y-1250D02*
D03*
Y5250D02*
D03*
X47606Y-60084D02*
D03*
X63250Y31250D02*
D03*
X57000Y29500D02*
D03*
X76000Y-10000D02*
D03*
X66000D02*
D03*
X10000Y-11250D02*
D03*
X132256Y-2500D02*
D03*
X22500Y-41250D02*
D03*
X34483Y-40778D02*
D03*
X28000Y-41250D02*
D03*
X4750Y-41750D02*
D03*
X10250Y-41500D02*
D03*
X3370Y-32120D02*
D03*
X-48500Y-26750D02*
D03*
X-107500Y4000D02*
D03*
X9500Y-117500D02*
D03*
X-111500Y13250D02*
D03*
X-88000Y-16000D02*
D03*
X-121752Y53284D02*
D03*
X-157500Y26000D02*
D03*
X-139199Y61256D02*
D03*
X-121092Y88842D02*
D03*
X-58550Y125800D02*
D03*
X-43500Y139750D02*
D03*
X92836Y-113750D02*
D03*
X-57250Y-65500D02*
D03*
X-57000Y-58000D02*
D03*
X-23750Y-66250D02*
D03*
X137750Y-55750D02*
D03*
X71000Y-61250D02*
D03*
X125000Y-30000D02*
D03*
X133000D02*
D03*
X79250Y-109500D02*
D03*
X122750Y-66000D02*
D03*
X127000Y-52000D02*
D03*
X130250Y-73500D02*
D03*
X148250Y-48139D02*
D03*
X116250Y-37750D02*
D03*
X142000Y12500D02*
D03*
X135750Y40000D02*
D03*
X123500D02*
D03*
X-81250Y-131250D02*
D03*
X-86000D02*
D03*
X-90500D02*
D03*
X-108250Y-90750D02*
D03*
X88250Y-78500D02*
D03*
X6500Y-64000D02*
D03*
D134*
X-1500Y-105000D02*
D03*
X-35250Y11000D02*
D03*
X23250Y-16000D02*
D03*
X29750Y-15000D02*
D03*
X35750D02*
D03*
X53500D02*
D03*
X-53500Y-7000D02*
D03*
X-49000Y-2500D02*
D03*
X-44500Y2000D02*
D03*
X-40000Y6500D02*
D03*
X16000Y-41500D02*
D03*
X-62500Y-82000D02*
D03*
D135*
X38902Y30524D02*
D03*
X30416Y22039D02*
D03*
X21931Y13554D02*
D03*
X13446Y5068D02*
D03*
X30416Y39009D02*
D03*
X21931Y30524D02*
D03*
X13446Y22039D02*
D03*
X4961Y13554D02*
D03*
X21931Y47495D02*
D03*
X13446Y39009D02*
D03*
X4961Y30524D02*
D03*
X-3525Y22039D02*
D03*
X13446Y55980D02*
D03*
X4961Y47495D02*
D03*
X-3525Y39009D02*
D03*
X-12010Y30524D02*
D03*
M02*
