G04*
G04 #@! TF.GenerationSoftware,Altium Limited,Altium Designer,20.1.7 (139)*
G04*
G04 Layer_Color=16711935*
%FSLAX44Y44*%
%MOMM*%
G71*
G04*
G04 #@! TF.SameCoordinates,99CDB543-8891-4245-8F14-29871282C811*
G04*
G04*
G04 #@! TF.FilePolarity,Negative*
G04*
G01*
G75*
%ADD123C,0.5500*%
%ADD124C,0.5000*%
%ADD125C,0.6000*%
%ADD126C,0.7600*%
G04:AMPARAMS|DCode=142|XSize=3.6mm|YSize=2.4mm|CornerRadius=0.625mm|HoleSize=0mm|Usage=FLASHONLY|Rotation=90.000|XOffset=0mm|YOffset=0mm|HoleType=Round|Shape=RoundedRectangle|*
%AMROUNDEDRECTD142*
21,1,3.6000,1.1500,0,0,90.0*
21,1,2.3500,2.4000,0,0,90.0*
1,1,1.2500,0.5750,1.1750*
1,1,1.2500,0.5750,-1.1750*
1,1,1.2500,-0.5750,-1.1750*
1,1,1.2500,-0.5750,1.1750*
%
%ADD142ROUNDEDRECTD142*%
G04:AMPARAMS|DCode=143|XSize=2.04mm|YSize=0.86mm|CornerRadius=0.24mm|HoleSize=0mm|Usage=FLASHONLY|Rotation=75.000|XOffset=0mm|YOffset=0mm|HoleType=Round|Shape=RoundedRectangle|*
%AMROUNDEDRECTD143*
21,1,2.0400,0.3800,0,0,75.0*
21,1,1.5600,0.8600,0,0,75.0*
1,1,0.4800,0.3854,0.7043*
1,1,0.4800,-0.0184,-0.8026*
1,1,0.4800,-0.3854,-0.7043*
1,1,0.4800,0.0184,0.8026*
%
%ADD143ROUNDEDRECTD143*%
G04:AMPARAMS|DCode=144|XSize=4.1mm|YSize=4.1mm|CornerRadius=1.05mm|HoleSize=0mm|Usage=FLASHONLY|Rotation=45.000|XOffset=0mm|YOffset=0mm|HoleType=Round|Shape=RoundedRectangle|*
%AMROUNDEDRECTD144*
21,1,4.1000,2.0000,0,0,45.0*
21,1,2.0000,4.1000,0,0,45.0*
1,1,2.1000,1.4142,0.0000*
1,1,2.1000,0.0000,-1.4142*
1,1,2.1000,-1.4142,0.0000*
1,1,2.1000,0.0000,1.4142*
%
%ADD144ROUNDEDRECTD144*%
D123*
X-1500Y-105000D02*
D03*
X-35250Y11000D02*
D03*
X29750Y-15000D02*
D03*
X35750D02*
D03*
X53500D02*
D03*
X-53500Y-7000D02*
D03*
X-49000Y-2500D02*
D03*
X-44500Y2000D02*
D03*
X-40000Y6500D02*
D03*
X16000Y-41500D02*
D03*
X-62500Y-82000D02*
D03*
D124*
X47606Y-60084D02*
D03*
X6500Y-64000D02*
D03*
D125*
X-64448Y92437D02*
D03*
X-72108Y86009D02*
D03*
X-79769Y79581D02*
D03*
X-70876Y100098D02*
D03*
X-78536Y93670D02*
D03*
X-86196Y87242D02*
D03*
X-77304Y107758D02*
D03*
X-84964Y101330D02*
D03*
X-92624Y94902D02*
D03*
X-83731Y115419D02*
D03*
X-91392Y108991D02*
D03*
X-99052Y102563D02*
D03*
D126*
X38902Y30524D02*
D03*
X30416Y22039D02*
D03*
X21931Y13554D02*
D03*
X13446Y5068D02*
D03*
X30416Y39009D02*
D03*
X21931Y30524D02*
D03*
X13446Y22039D02*
D03*
X4961Y13554D02*
D03*
X21931Y47495D02*
D03*
X13446Y39009D02*
D03*
X4961Y30524D02*
D03*
X-3525Y22039D02*
D03*
X13446Y55980D02*
D03*
X4961Y47495D02*
D03*
X-3525Y39009D02*
D03*
X-12010Y30524D02*
D03*
D142*
X31240Y-128520D02*
D03*
X56640D02*
D03*
D143*
X-96782Y46937D02*
D03*
X-108373Y50042D02*
D03*
D144*
X-46445Y-110661D02*
D03*
X-88871Y-68235D02*
D03*
M02*
