G04*
G04 #@! TF.GenerationSoftware,Altium Limited,Altium Designer,20.1.7 (139)*
G04*
G04 Layer_Physical_Order=6*
G04 Layer_Color=16711680*
%FSLAX44Y44*%
%MOMM*%
G71*
G04*
G04 #@! TF.SameCoordinates,99CDB543-8891-4245-8F14-29871282C811*
G04*
G04*
G04 #@! TF.FilePolarity,Positive*
G04*
G01*
G75*
%ADD11C,0.2000*%
%ADD13C,0.1500*%
%ADD124C,0.5000*%
%ADD130C,0.3000*%
%ADD132C,0.5000*%
%ADD133C,0.4000*%
%ADD134C,0.4500*%
%ADD135C,0.6600*%
G04:AMPARAMS|DCode=139|XSize=3.5mm|YSize=2.3mm|CornerRadius=0.575mm|HoleSize=0mm|Usage=FLASHONLY|Rotation=90.000|XOffset=0mm|YOffset=0mm|HoleType=Round|Shape=RoundedRectangle|*
%AMROUNDEDRECTD139*
21,1,3.5000,1.1500,0,0,90.0*
21,1,2.3500,2.3000,0,0,90.0*
1,1,1.1500,0.5750,1.1750*
1,1,1.1500,0.5750,-1.1750*
1,1,1.1500,-0.5750,-1.1750*
1,1,1.1500,-0.5750,1.1750*
%
%ADD139ROUNDEDRECTD139*%
G04:AMPARAMS|DCode=140|XSize=1.94mm|YSize=0.76mm|CornerRadius=0.19mm|HoleSize=0mm|Usage=FLASHONLY|Rotation=75.000|XOffset=0mm|YOffset=0mm|HoleType=Round|Shape=RoundedRectangle|*
%AMROUNDEDRECTD140*
21,1,1.9400,0.3800,0,0,75.0*
21,1,1.5600,0.7600,0,0,75.0*
1,1,0.3800,0.3854,0.7043*
1,1,0.3800,-0.0184,-0.8026*
1,1,0.3800,-0.3854,-0.7043*
1,1,0.3800,0.0184,0.8026*
%
%ADD140ROUNDEDRECTD140*%
G04:AMPARAMS|DCode=141|XSize=4mm|YSize=4mm|CornerRadius=1mm|HoleSize=0mm|Usage=FLASHONLY|Rotation=45.000|XOffset=0mm|YOffset=0mm|HoleType=Round|Shape=RoundedRectangle|*
%AMROUNDEDRECTD141*
21,1,4.0000,2.0000,0,0,45.0*
21,1,2.0000,4.0000,0,0,45.0*
1,1,2.0000,1.4142,0.0000*
1,1,2.0000,0.0000,-1.4142*
1,1,2.0000,-1.4142,0.0000*
1,1,2.0000,0.0000,1.4142*
%
%ADD141ROUNDEDRECTD141*%
G36*
X74170Y145567D02*
X85363Y139299D01*
X88618Y137124D01*
X88742Y135860D01*
X44979Y92097D01*
X44503Y90949D01*
X44979Y89801D01*
X90941Y43839D01*
X92089Y43363D01*
X93237Y43839D01*
X136774Y87375D01*
X138038Y87251D01*
X139299Y85363D01*
X145567Y74170D01*
X150938Y62520D01*
X155378Y50485D01*
X158860Y38139D01*
X161363Y25557D01*
X162191Y18559D01*
X161528Y18133D01*
X160976Y18018D01*
X139265Y39729D01*
X139319Y40000D01*
X139047Y41366D01*
X138273Y42523D01*
X137116Y43297D01*
X135750Y43569D01*
X134384Y43297D01*
X133227Y42523D01*
X132453Y41366D01*
X132181Y40000D01*
X132453Y38634D01*
X133227Y37477D01*
X134384Y36703D01*
X135750Y36431D01*
X136020Y36485D01*
X157206Y15300D01*
Y-19690D01*
X153378Y-23518D01*
X152881Y-24262D01*
X152706Y-25140D01*
Y-25788D01*
X152092Y-26325D01*
X150822Y-25782D01*
Y14972D01*
X150647Y15850D01*
X150150Y16594D01*
X127015Y39729D01*
X127069Y40000D01*
X126797Y41366D01*
X126023Y42523D01*
X124866Y43297D01*
X123500Y43569D01*
X122134Y43297D01*
X120977Y42523D01*
X120203Y41366D01*
X119931Y40000D01*
X120203Y38634D01*
X120977Y37477D01*
X122134Y36703D01*
X123500Y36431D01*
X123771Y36485D01*
X143114Y17142D01*
X142488Y15971D01*
X142000Y16069D01*
X140634Y15797D01*
X139477Y15023D01*
X138972Y14268D01*
X137723Y14123D01*
X137502Y14181D01*
X137273Y14523D01*
X136116Y15297D01*
X134750Y15569D01*
X133384Y15297D01*
X132227Y14523D01*
X131453Y13366D01*
X131181Y12000D01*
X131453Y10634D01*
X132227Y9477D01*
X133384Y8703D01*
X134750Y8431D01*
X136116Y8703D01*
X137273Y9477D01*
X137778Y10232D01*
X139027Y10377D01*
X139248Y10319D01*
X139477Y9977D01*
X140634Y9203D01*
X142000Y8931D01*
X143366Y9203D01*
X144523Y9977D01*
X144964Y10636D01*
X146234Y10251D01*
Y-1D01*
X144964Y-386D01*
X144523Y273D01*
X143366Y1047D01*
X142000Y1319D01*
X140634Y1047D01*
X139477Y273D01*
X138703Y-884D01*
X138431Y-2250D01*
X138703Y-3616D01*
X139477Y-4773D01*
X140634Y-5547D01*
X142000Y-5819D01*
X143366Y-5547D01*
X144523Y-4773D01*
X144964Y-4114D01*
X146234Y-4499D01*
Y-29239D01*
X146000Y-29431D01*
X144634Y-29703D01*
X143477Y-30477D01*
X142703Y-31634D01*
X142431Y-33000D01*
X142703Y-34366D01*
X143477Y-35523D01*
X144634Y-36297D01*
X146000Y-36569D01*
X147366Y-36297D01*
X148523Y-35523D01*
X149297Y-34366D01*
X149569Y-33000D01*
X149515Y-32729D01*
X150150Y-32094D01*
X150647Y-31350D01*
X150728Y-30943D01*
X152051Y-30636D01*
X152477Y-31273D01*
X153634Y-32047D01*
X155000Y-32319D01*
X156366Y-32047D01*
X157523Y-31273D01*
X158297Y-30116D01*
X158569Y-28750D01*
X158297Y-27384D01*
X157523Y-26227D01*
X157491Y-25894D01*
X160387Y-22998D01*
X161596Y-23585D01*
X161363Y-25557D01*
X158860Y-38139D01*
X155378Y-50485D01*
X150938Y-62520D01*
X145567Y-74170D01*
X139299Y-85363D01*
X132172Y-96029D01*
X124230Y-106103D01*
X115523Y-115523D01*
X106103Y-124230D01*
X96029Y-132172D01*
X85363Y-139299D01*
X74170Y-145567D01*
X68149Y-148343D01*
X65163D01*
X64911Y-147073D01*
X66046Y-146603D01*
X67561Y-145441D01*
X68723Y-143926D01*
X69453Y-142163D01*
X69703Y-140270D01*
Y-116770D01*
X69453Y-114877D01*
X68723Y-113114D01*
X67880Y-112015D01*
X68059Y-110996D01*
X68149Y-110758D01*
X68289Y-110558D01*
X69273Y-109900D01*
X70047Y-108743D01*
X70319Y-107377D01*
X70265Y-107106D01*
X105122Y-72249D01*
X105619Y-71505D01*
X105794Y-70627D01*
Y6166D01*
X107064Y6692D01*
X122706Y-8950D01*
Y-27323D01*
X122477Y-27477D01*
X121703Y-28634D01*
X121431Y-30000D01*
X121703Y-31366D01*
X122477Y-32523D01*
X123634Y-33297D01*
X125000Y-33569D01*
X126366Y-33297D01*
X127523Y-32523D01*
X128297Y-31366D01*
X128352Y-31086D01*
X129647D01*
X129703Y-31366D01*
X130477Y-32523D01*
X131634Y-33297D01*
X133000Y-33569D01*
X134366Y-33297D01*
X135523Y-32523D01*
X136297Y-31366D01*
X136569Y-30000D01*
X136297Y-28634D01*
X135523Y-27477D01*
X134366Y-26703D01*
X133000Y-26431D01*
X132730Y-26485D01*
X130544Y-24300D01*
Y-6976D01*
X131814Y-5981D01*
X132256Y-6069D01*
X133622Y-5797D01*
X134780Y-5023D01*
X135553Y-3866D01*
X135825Y-2500D01*
X135553Y-1134D01*
X134780Y23D01*
X133622Y797D01*
X132256Y1069D01*
X131986Y1015D01*
X116804Y16197D01*
X117222Y17575D01*
X117866Y17703D01*
X119023Y18477D01*
X119797Y19634D01*
X120069Y21000D01*
X119797Y22366D01*
X119023Y23523D01*
X117866Y24297D01*
X116500Y24569D01*
X115134Y24297D01*
X113977Y23523D01*
X113203Y22366D01*
X113075Y21722D01*
X111697Y21304D01*
X98100Y34901D01*
X97356Y35398D01*
X97070Y35455D01*
X96523Y36273D01*
X95366Y37047D01*
X94000Y37319D01*
X92634Y37047D01*
X91477Y36273D01*
X90703Y35116D01*
X90431Y33750D01*
X90703Y32384D01*
X91442Y31278D01*
X91614Y30942D01*
Y30057D01*
X91442Y29722D01*
X90703Y28616D01*
X90431Y27250D01*
X90703Y25884D01*
X90980Y25469D01*
X91383Y24500D01*
X90980Y23531D01*
X90703Y23116D01*
X90431Y21750D01*
X90703Y20384D01*
X91477Y19227D01*
Y18773D01*
X90703Y17616D01*
X90431Y16250D01*
X90703Y14884D01*
X91477Y13727D01*
X92634Y12953D01*
X94000Y12681D01*
X94270Y12735D01*
X101206Y5800D01*
Y-69677D01*
X92992Y-77890D01*
X91614Y-77472D01*
X91547Y-77134D01*
X90773Y-75977D01*
X89616Y-75203D01*
X88250Y-74931D01*
X86884Y-75203D01*
X85727Y-75977D01*
X84953Y-77134D01*
X84681Y-78500D01*
X84953Y-79866D01*
X85727Y-81023D01*
X86884Y-81797D01*
X87222Y-81864D01*
X87640Y-83242D01*
X67021Y-103862D01*
X66750Y-103808D01*
X65977Y-103962D01*
X64925Y-102977D01*
X64924Y-102975D01*
X65069Y-102250D01*
X64797Y-100884D01*
X64023Y-99727D01*
X62866Y-98953D01*
X61500Y-98681D01*
X60134Y-98953D01*
X60055Y-99006D01*
X59547Y-99134D01*
X58773Y-97977D01*
X57616Y-97203D01*
X56250Y-96931D01*
X54884Y-97203D01*
X53727Y-97977D01*
X52953Y-99134D01*
X52681Y-100500D01*
X52953Y-101866D01*
X53727Y-103023D01*
X54884Y-103797D01*
X56250Y-104069D01*
X57616Y-103797D01*
X57695Y-103744D01*
X58203Y-103616D01*
X58977Y-104773D01*
X60134Y-105547D01*
X61500Y-105819D01*
X62273Y-105665D01*
X63325Y-106649D01*
X63326Y-106652D01*
X63181Y-107377D01*
X63366Y-108305D01*
X62532Y-109476D01*
X62390Y-109458D01*
X51104D01*
X38263Y-96616D01*
X36940Y-95732D01*
X35379Y-95422D01*
X35379Y-95422D01*
X25750D01*
X24189Y-95732D01*
X22866Y-96616D01*
X21982Y-97939D01*
X21672Y-99500D01*
X21982Y-101061D01*
X22866Y-102384D01*
X24189Y-103268D01*
X25750Y-103578D01*
X30533D01*
X30919Y-104848D01*
X30727Y-104977D01*
X29953Y-106134D01*
X29681Y-107500D01*
X29953Y-108866D01*
X30727Y-110023D01*
X31884Y-110797D01*
X33250Y-111069D01*
X34616Y-110797D01*
X35773Y-110023D01*
X36547Y-108866D01*
X36652Y-108337D01*
X38030Y-107919D01*
X44167Y-114056D01*
X43827Y-114877D01*
X43577Y-116770D01*
Y-140270D01*
X43827Y-142163D01*
X44557Y-143926D01*
X45719Y-145441D01*
X47234Y-146603D01*
X48369Y-147073D01*
X48117Y-148343D01*
X-68149D01*
X-74170Y-145567D01*
X-85363Y-139299D01*
X-90215Y-136057D01*
X-89947Y-134709D01*
X-89134Y-134547D01*
X-88250Y-133956D01*
X-87366Y-134547D01*
X-86000Y-134819D01*
X-84634Y-134547D01*
X-83625Y-133872D01*
X-82616Y-134547D01*
X-81250Y-134819D01*
X-79884Y-134547D01*
X-78727Y-133773D01*
X-77953Y-132616D01*
X-77681Y-131250D01*
X-77953Y-129884D01*
X-78727Y-128727D01*
X-79884Y-127953D01*
X-81250Y-127681D01*
X-82616Y-127953D01*
X-83625Y-128628D01*
X-84634Y-127953D01*
X-86000Y-127681D01*
X-87366Y-127953D01*
X-88250Y-128544D01*
X-89134Y-127953D01*
X-90500Y-127681D01*
X-91866Y-127953D01*
X-93023Y-128727D01*
X-93797Y-129884D01*
X-94069Y-131250D01*
X-93907Y-132063D01*
X-95050Y-132826D01*
X-96029Y-132172D01*
X-106103Y-124230D01*
X-115523Y-115523D01*
X-124230Y-106103D01*
X-132172Y-96029D01*
X-139299Y-85363D01*
X-145567Y-74170D01*
X-150938Y-62520D01*
X-155378Y-50485D01*
X-158860Y-38139D01*
X-161363Y-25557D01*
X-162870Y-12818D01*
X-163374Y0D01*
X-162870Y12818D01*
X-161600Y23550D01*
X-160284Y23866D01*
X-160023Y23477D01*
X-158866Y22703D01*
X-157500Y22431D01*
X-156134Y22703D01*
X-154977Y23477D01*
X-154203Y24634D01*
X-154120Y25055D01*
X-137233Y41941D01*
X-115458D01*
X-115229Y41267D01*
X-114337Y40250D01*
X-113124Y39652D01*
X-109454Y38668D01*
X-108104Y38579D01*
X-106823Y39014D01*
X-105806Y39906D01*
X-105208Y41119D01*
X-101170Y56188D01*
X-101082Y57537D01*
X-101517Y58818D01*
X-102408Y59835D01*
X-103622Y60433D01*
X-107292Y61417D01*
X-108642Y61505D01*
X-109923Y61070D01*
X-110940Y60179D01*
X-111538Y58966D01*
X-114460Y48059D01*
X-138500D01*
X-138500Y48059D01*
X-139670Y47826D01*
X-140663Y47163D01*
X-158445Y29381D01*
X-158866Y29297D01*
X-159394Y28944D01*
X-160537Y29708D01*
X-158860Y38139D01*
X-155378Y50485D01*
X-150938Y62520D01*
X-145567Y74170D01*
X-139299Y85363D01*
X-132172Y96029D01*
X-124230Y106103D01*
X-115523Y115523D01*
X-106103Y124230D01*
X-96029Y132172D01*
X-85363Y139299D01*
X-74170Y145567D01*
X-68149Y148343D01*
X68149D01*
X74170Y145567D01*
D02*
G37*
%LPC*%
G36*
X-43500Y143319D02*
X-44866Y143047D01*
X-46023Y142273D01*
X-46797Y141116D01*
X-47069Y139750D01*
X-46797Y138384D01*
X-46023Y137227D01*
X-44866Y136453D01*
X-43500Y136181D01*
X-42134Y136453D01*
X-40977Y137227D01*
X-40203Y138384D01*
X-39931Y139750D01*
X-40203Y141116D01*
X-40977Y142273D01*
X-42134Y143047D01*
X-43500Y143319D01*
D02*
G37*
G36*
X-83731Y119497D02*
X-85292Y119186D01*
X-86615Y118302D01*
X-87499Y116979D01*
X-87810Y115419D01*
X-87499Y113858D01*
X-86615Y112535D01*
X-85292Y111651D01*
X-83731Y111340D01*
X-82171Y111651D01*
X-80848Y112535D01*
X-79963Y113858D01*
X-79653Y115419D01*
X-79963Y116979D01*
X-80848Y118302D01*
X-82171Y119186D01*
X-83731Y119497D01*
D02*
G37*
G36*
X-91392Y113069D02*
X-92952Y112759D01*
X-94276Y111875D01*
X-95160Y110551D01*
X-95470Y108991D01*
X-95160Y107430D01*
X-94276Y106107D01*
X-92952Y105223D01*
X-91392Y104912D01*
X-89831Y105223D01*
X-88508Y106107D01*
X-87624Y107430D01*
X-87313Y108991D01*
X-87624Y110551D01*
X-88508Y111875D01*
X-89831Y112759D01*
X-91392Y113069D01*
D02*
G37*
G36*
X-77304Y111837D02*
X-78864Y111526D01*
X-80187Y110642D01*
X-81071Y109319D01*
X-81382Y107758D01*
X-81071Y106197D01*
X-80187Y104874D01*
X-78864Y103990D01*
X-77304Y103680D01*
X-75743Y103990D01*
X-74420Y104874D01*
X-73536Y106197D01*
X-73225Y107758D01*
X-73536Y109319D01*
X-74420Y110642D01*
X-75743Y111526D01*
X-77304Y111837D01*
D02*
G37*
G36*
X-99052Y106641D02*
X-100613Y106331D01*
X-101936Y105447D01*
X-102820Y104123D01*
X-103131Y102563D01*
X-102820Y101002D01*
X-101936Y99679D01*
X-100613Y98795D01*
X-99052Y98484D01*
X-97492Y98795D01*
X-96168Y99679D01*
X-95284Y101002D01*
X-94974Y102563D01*
X-95284Y104123D01*
X-96168Y105447D01*
X-97492Y106331D01*
X-99052Y106641D01*
D02*
G37*
G36*
X-84964Y105409D02*
X-86525Y105098D01*
X-87848Y104214D01*
X-88732Y102891D01*
X-89042Y101330D01*
X-88732Y99769D01*
X-87848Y98446D01*
X-86525Y97562D01*
X-84964Y97252D01*
X-83403Y97562D01*
X-82080Y98446D01*
X-81196Y99769D01*
X-80886Y101330D01*
X-81196Y102891D01*
X-82080Y104214D01*
X-83403Y105098D01*
X-84964Y105409D01*
D02*
G37*
G36*
X-70876Y104176D02*
X-72436Y103866D01*
X-73759Y102982D01*
X-74644Y101658D01*
X-74954Y100098D01*
X-74644Y98537D01*
X-73759Y97214D01*
X-72436Y96330D01*
X-70876Y96019D01*
X-69315Y96330D01*
X-67992Y97214D01*
X-67108Y98537D01*
X-66797Y100098D01*
X-67108Y101658D01*
X-67992Y102982D01*
X-69315Y103866D01*
X-70876Y104176D01*
D02*
G37*
G36*
X-92624Y98981D02*
X-94185Y98670D01*
X-95508Y97786D01*
X-96392Y96463D01*
X-96703Y94902D01*
X-96392Y93342D01*
X-95508Y92018D01*
X-94185Y91134D01*
X-92624Y90824D01*
X-91064Y91134D01*
X-89740Y92018D01*
X-88856Y93342D01*
X-88546Y94902D01*
X-88856Y96463D01*
X-89740Y97786D01*
X-91064Y98670D01*
X-92624Y98981D01*
D02*
G37*
G36*
X-14250Y97069D02*
X-15616Y96797D01*
X-16773Y96023D01*
X-17547Y94866D01*
X-17819Y93500D01*
X-17547Y92134D01*
X-16773Y90977D01*
X-15616Y90203D01*
X-14250Y89931D01*
X-12884Y90203D01*
X-11727Y90977D01*
X-10953Y92134D01*
X-10681Y93500D01*
X-10953Y94866D01*
X-11727Y96023D01*
X-12884Y96797D01*
X-14250Y97069D01*
D02*
G37*
G36*
X-78536Y97748D02*
X-80097Y97438D01*
X-81420Y96554D01*
X-82304Y95231D01*
X-82614Y93670D01*
X-82304Y92109D01*
X-81420Y90786D01*
X-80097Y89902D01*
X-78536Y89591D01*
X-76975Y89902D01*
X-75652Y90786D01*
X-74768Y92109D01*
X-74458Y93670D01*
X-74768Y95231D01*
X-75652Y96554D01*
X-76975Y97438D01*
X-78536Y97748D01*
D02*
G37*
G36*
X-64448Y96516D02*
X-66009Y96205D01*
X-67332Y95321D01*
X-68216Y93998D01*
X-68526Y92437D01*
X-68216Y90877D01*
X-67332Y89553D01*
X-66009Y88669D01*
X-64448Y88359D01*
X-62887Y88669D01*
X-61564Y89553D01*
X-60680Y90877D01*
X-60369Y92437D01*
X-60680Y93998D01*
X-61564Y95321D01*
X-62887Y96205D01*
X-64448Y96516D01*
D02*
G37*
G36*
X-86196Y91320D02*
X-87757Y91010D01*
X-89080Y90126D01*
X-89964Y88803D01*
X-90275Y87242D01*
X-89964Y85681D01*
X-89080Y84358D01*
X-87757Y83474D01*
X-86196Y83164D01*
X-84636Y83474D01*
X-83313Y84358D01*
X-82429Y85681D01*
X-82118Y87242D01*
X-82429Y88803D01*
X-83313Y90126D01*
X-84636Y91010D01*
X-86196Y91320D01*
D02*
G37*
G36*
X-72108Y90088D02*
X-73669Y89777D01*
X-74992Y88893D01*
X-75876Y87570D01*
X-76186Y86009D01*
X-75876Y84449D01*
X-74992Y83125D01*
X-73669Y82241D01*
X-72108Y81931D01*
X-70547Y82241D01*
X-69224Y83125D01*
X-68340Y84449D01*
X-68030Y86009D01*
X-68340Y87570D01*
X-69224Y88893D01*
X-70547Y89777D01*
X-72108Y90088D01*
D02*
G37*
G36*
X4750Y78069D02*
X3384Y77797D01*
X2796Y77404D01*
X1875Y77129D01*
X954Y77404D01*
X366Y77797D01*
X-1000Y78069D01*
X-2366Y77797D01*
X-3523Y77023D01*
X-4297Y75866D01*
X-4552Y74584D01*
X-5750Y74822D01*
X-7116Y74550D01*
X-8274Y73777D01*
X-9047Y72619D01*
X-9319Y71253D01*
X-10383Y70093D01*
X-10616Y70047D01*
X-11773Y69273D01*
X-12547Y68116D01*
X-12775Y66969D01*
X-13500Y65819D01*
X-14866Y65547D01*
X-16023Y64773D01*
X-16797Y63616D01*
X-17069Y62250D01*
X-17069Y62250D01*
X-17069Y62229D01*
X-17071Y62219D01*
X-18095Y60901D01*
X-18616Y60797D01*
X-19773Y60023D01*
X-20547Y58866D01*
X-20819Y57500D01*
X-20547Y56134D01*
X-19773Y54977D01*
X-20391Y53862D01*
X-20523Y53773D01*
X-21297Y52616D01*
X-21569Y51250D01*
X-21297Y49884D01*
X-20523Y48727D01*
X-19366Y47953D01*
X-18000Y47681D01*
X-16634Y47953D01*
X-15477Y48727D01*
X-14703Y49884D01*
X-14431Y51250D01*
X-14703Y52616D01*
X-15477Y53773D01*
X-14859Y54888D01*
X-14727Y54977D01*
X-13953Y56134D01*
X-13681Y57500D01*
X-13681Y57500D01*
X-13680Y57520D01*
X-13679Y57531D01*
X-12655Y58850D01*
X-12134Y58953D01*
X-10977Y59727D01*
X-10203Y60884D01*
X-9975Y62031D01*
X-9250Y63181D01*
X-7884Y63453D01*
X-6727Y64227D01*
X-5953Y65384D01*
X-5681Y66750D01*
X-4617Y67910D01*
X-4385Y67957D01*
X-3227Y68730D01*
X-2453Y69888D01*
X-2198Y71170D01*
X-1000Y70931D01*
X366Y71203D01*
X1523Y71977D01*
X2227D01*
X3384Y71203D01*
X4750Y70931D01*
X6116Y71203D01*
X7273Y71977D01*
X8047Y73134D01*
X8319Y74500D01*
X8047Y75866D01*
X7273Y77023D01*
X6116Y77797D01*
X4750Y78069D01*
D02*
G37*
G36*
X-79769Y83660D02*
X-81329Y83349D01*
X-82653Y82465D01*
X-83537Y81142D01*
X-83847Y79581D01*
X-83537Y78021D01*
X-82653Y76698D01*
X-81329Y75814D01*
X-79769Y75503D01*
X-78208Y75814D01*
X-76885Y76698D01*
X-76001Y78021D01*
X-75690Y79581D01*
X-76001Y81142D01*
X-76885Y82465D01*
X-78208Y83349D01*
X-79769Y83660D01*
D02*
G37*
G36*
X-71000Y77319D02*
X-72366Y77047D01*
X-73523Y76273D01*
X-74297Y75116D01*
X-74569Y73750D01*
X-74297Y72384D01*
X-73523Y71227D01*
X-72366Y70453D01*
X-71000Y70181D01*
X-69634Y70453D01*
X-68477Y71227D01*
X-67703Y72384D01*
X-67431Y73750D01*
X-67703Y75116D01*
X-68477Y76273D01*
X-69634Y77047D01*
X-71000Y77319D01*
D02*
G37*
G36*
X-139199Y64825D02*
X-140564Y64553D01*
X-141722Y63780D01*
X-142495Y62622D01*
X-142767Y61256D01*
X-142495Y59890D01*
X-141722Y58733D01*
X-140564Y57959D01*
X-139199Y57688D01*
X-137833Y57959D01*
X-136675Y58733D01*
X-135902Y59890D01*
X-135630Y61256D01*
X-135902Y62622D01*
X-136675Y63780D01*
X-137833Y64553D01*
X-139199Y64825D01*
D02*
G37*
G36*
X-121752Y56853D02*
X-123117Y56581D01*
X-124275Y55808D01*
X-125049Y54650D01*
X-125320Y53284D01*
X-125049Y51919D01*
X-124275Y50761D01*
X-123117Y49987D01*
X-121752Y49716D01*
X-120386Y49987D01*
X-119228Y50761D01*
X-118455Y51919D01*
X-118183Y53284D01*
X-118455Y54650D01*
X-119228Y55808D01*
X-120386Y56581D01*
X-121752Y56853D01*
D02*
G37*
G36*
X-58550Y129369D02*
X-59916Y129097D01*
X-61074Y128324D01*
X-61847Y127166D01*
X-62119Y125800D01*
X-61847Y124435D01*
X-61074Y123277D01*
X-59916Y122503D01*
X-58550Y122232D01*
X-58280Y122285D01*
X-46794Y110800D01*
Y33834D01*
X-48064Y33308D01*
X-76468Y61713D01*
X-76050Y63091D01*
X-75485Y63203D01*
X-74328Y63977D01*
X-73554Y65134D01*
X-73282Y66500D01*
X-73554Y67866D01*
X-74328Y69023D01*
X-75485Y69797D01*
X-76851Y70069D01*
X-78217Y69797D01*
X-79374Y69023D01*
X-80148Y67866D01*
X-80260Y67301D01*
X-81638Y66883D01*
X-105220Y90464D01*
X-105964Y90961D01*
X-106842Y91136D01*
X-118415D01*
X-118569Y91365D01*
X-119726Y92139D01*
X-121092Y92410D01*
X-122458Y92139D01*
X-123615Y91365D01*
X-124389Y90208D01*
X-124661Y88842D01*
X-124389Y87476D01*
X-123615Y86319D01*
X-122458Y85545D01*
X-121092Y85273D01*
X-119726Y85545D01*
X-118569Y86319D01*
X-118415Y86548D01*
X-107792D01*
X-102805Y81560D01*
X-103656Y80643D01*
X-104400Y81140D01*
X-105278Y81315D01*
X-110344D01*
X-110498Y81544D01*
X-111655Y82318D01*
X-113021Y82589D01*
X-114387Y82318D01*
X-115544Y81544D01*
X-116318Y80386D01*
X-116589Y79021D01*
X-116318Y77655D01*
X-115544Y76498D01*
X-114387Y75724D01*
X-113021Y75452D01*
X-111655Y75724D01*
X-110498Y76498D01*
X-110344Y76727D01*
X-106228D01*
X-103408Y73906D01*
X-104033Y72736D01*
X-104825Y72893D01*
X-106190Y72622D01*
X-107348Y71848D01*
X-108122Y70690D01*
X-108393Y69325D01*
X-108122Y67959D01*
X-107348Y66801D01*
X-106190Y66028D01*
X-104825Y65756D01*
X-103459Y66028D01*
X-102722Y66520D01*
X-77551Y41349D01*
X-78361Y40363D01*
X-79384Y41047D01*
X-80750Y41319D01*
X-82116Y41047D01*
X-83273Y40273D01*
X-84047Y39116D01*
X-84319Y37750D01*
X-84047Y36384D01*
X-83273Y35227D01*
X-82116Y34453D01*
X-80750Y34181D01*
X-79384Y34453D01*
X-78227Y35227D01*
X-77453Y36384D01*
X-77181Y37750D01*
X-77453Y39116D01*
X-78137Y40139D01*
X-77151Y40949D01*
X-60294Y24092D01*
Y-9008D01*
X-61047Y-10134D01*
X-61319Y-11500D01*
X-61047Y-12866D01*
X-60273Y-14023D01*
X-59116Y-14797D01*
X-57750Y-15069D01*
X-56384Y-14797D01*
X-55227Y-14023D01*
X-54453Y-12866D01*
X-54181Y-11500D01*
X-53039Y-10732D01*
X-52037Y-10532D01*
X-50796Y-9704D01*
X-49968Y-8463D01*
X-49677Y-7000D01*
X-48535Y-6231D01*
X-47537Y-6032D01*
X-46296Y-5204D01*
X-45468Y-3963D01*
X-45269Y-2965D01*
X-44500Y-1823D01*
X-43037Y-1532D01*
X-41796Y-704D01*
X-40968Y537D01*
X-40769Y1535D01*
X-40000Y2677D01*
X-38537Y2968D01*
X-37296Y3796D01*
X-36468Y5037D01*
X-36177Y6500D01*
X-35025Y7221D01*
X-33787Y7468D01*
X-32546Y8296D01*
X-31718Y9537D01*
X-31427Y11000D01*
X-31718Y12463D01*
X-32546Y13704D01*
X-32956Y13977D01*
Y29835D01*
X-31686Y30220D01*
X-31523Y29977D01*
X-30366Y29203D01*
X-29000Y28931D01*
X-27634Y29203D01*
X-26477Y29977D01*
X-25703Y31134D01*
X-25431Y32500D01*
X-25703Y33866D01*
X-26477Y35023D01*
X-27634Y35797D01*
X-29000Y36069D01*
X-30366Y35797D01*
X-31523Y35023D01*
X-31686Y34780D01*
X-32956Y35165D01*
Y110482D01*
X-32956Y110482D01*
X-33003Y110718D01*
X-32953Y110793D01*
X-32681Y112158D01*
X-32953Y113524D01*
X-33727Y114682D01*
X-34884Y115455D01*
X-36250Y115727D01*
X-37616Y115455D01*
X-38522Y114850D01*
X-38878Y115382D01*
X-43084Y119589D01*
X-43030Y119859D01*
X-43302Y121225D01*
X-44076Y122383D01*
X-45233Y123156D01*
X-46599Y123428D01*
X-47965Y123156D01*
X-49122Y122383D01*
X-49511Y121801D01*
X-51032Y121526D01*
X-55036Y125530D01*
X-54982Y125800D01*
X-55253Y127166D01*
X-56027Y128324D01*
X-57185Y129097D01*
X-58550Y129369D01*
D02*
G37*
G36*
X63250Y34819D02*
X61884Y34547D01*
X60727Y33773D01*
X60199Y32983D01*
X59940Y32615D01*
X58656Y32603D01*
X58366Y32797D01*
X57000Y33069D01*
X55634Y32797D01*
X54477Y32023D01*
X53703Y30866D01*
X53431Y29500D01*
X53703Y28134D01*
X54477Y26977D01*
X55634Y26203D01*
X57000Y25931D01*
X57270Y25985D01*
X67493Y15763D01*
X67075Y14385D01*
X66634Y14297D01*
X65477Y13523D01*
X64703Y12366D01*
X64431Y11000D01*
X64703Y9634D01*
X65477Y8477D01*
Y7773D01*
X64703Y6616D01*
X64431Y5250D01*
X64703Y3884D01*
X65477Y2727D01*
X65614Y2635D01*
Y1365D01*
X65477Y1273D01*
X64703Y116D01*
X64431Y-1250D01*
X64703Y-2616D01*
X65477Y-3773D01*
X66634Y-4547D01*
X68000Y-4819D01*
X69366Y-4547D01*
X70523Y-3773D01*
X71297Y-2616D01*
X71569Y-1250D01*
X71297Y116D01*
X70523Y1273D01*
X70386Y1365D01*
Y2635D01*
X70523Y2727D01*
X71297Y3884D01*
X71569Y5250D01*
X71297Y6616D01*
X70523Y7773D01*
Y8477D01*
X71297Y9634D01*
X71385Y10075D01*
X72763Y10493D01*
X73706Y9550D01*
Y-7323D01*
X73477Y-7477D01*
X72703Y-8634D01*
X72431Y-10000D01*
X72703Y-11366D01*
X73477Y-12523D01*
X74634Y-13297D01*
X76000Y-13569D01*
X77366Y-13297D01*
X78523Y-12523D01*
X79297Y-11366D01*
X79569Y-10000D01*
X79297Y-8634D01*
X78523Y-7477D01*
X78294Y-7323D01*
Y10500D01*
X78129Y11331D01*
X78188Y11424D01*
X79176Y12079D01*
X83706Y7550D01*
Y-7323D01*
X83477Y-7477D01*
X82703Y-8634D01*
X82431Y-10000D01*
X82703Y-11366D01*
X83477Y-12523D01*
X84634Y-13297D01*
X86000Y-13569D01*
X87366Y-13297D01*
X88523Y-12523D01*
X89297Y-11366D01*
X89569Y-10000D01*
X89297Y-8634D01*
X88523Y-7477D01*
X88294Y-7323D01*
Y8500D01*
X88294Y8500D01*
X88119Y9378D01*
X87622Y10122D01*
X66765Y30979D01*
X66819Y31250D01*
X66547Y32616D01*
X65773Y33773D01*
X64616Y34547D01*
X63250Y34819D01*
D02*
G37*
G36*
X-111500Y16819D02*
X-112866Y16547D01*
X-114023Y15773D01*
X-114797Y14616D01*
X-115069Y13250D01*
X-114797Y11884D01*
X-114023Y10727D01*
X-112866Y9953D01*
X-111500Y9681D01*
X-110134Y9953D01*
X-108977Y10727D01*
X-108203Y11884D01*
X-107931Y13250D01*
X-108203Y14616D01*
X-108977Y15773D01*
X-110134Y16547D01*
X-111500Y16819D01*
D02*
G37*
G36*
X-152000Y12069D02*
X-153366Y11797D01*
X-154523Y11023D01*
X-155297Y9866D01*
X-155569Y8500D01*
X-155297Y7134D01*
X-154523Y5977D01*
X-153366Y5203D01*
X-152000Y4931D01*
X-150634Y5203D01*
X-149477Y5977D01*
X-148703Y7134D01*
X-148431Y8500D01*
X-148703Y9866D01*
X-149477Y11023D01*
X-150634Y11797D01*
X-152000Y12069D01*
D02*
G37*
G36*
X-152250Y2069D02*
X-153616Y1797D01*
X-154773Y1023D01*
X-155547Y-134D01*
X-155819Y-1500D01*
X-155547Y-2866D01*
X-154773Y-4023D01*
X-153616Y-4797D01*
X-152250Y-5069D01*
X-150884Y-4797D01*
X-149727Y-4023D01*
X-148953Y-2866D01*
X-148681Y-1500D01*
X-148953Y-134D01*
X-149727Y1023D01*
X-150884Y1797D01*
X-152250Y2069D01*
D02*
G37*
G36*
X66000Y-6431D02*
X64634Y-6703D01*
X63477Y-7477D01*
X62703Y-8634D01*
X62431Y-10000D01*
X62703Y-11366D01*
X63477Y-12523D01*
X64634Y-13297D01*
X66000Y-13569D01*
X67366Y-13297D01*
X68523Y-12523D01*
X69297Y-11366D01*
X69569Y-10000D01*
X69297Y-8634D01*
X68523Y-7477D01*
X67366Y-6703D01*
X66000Y-6431D01*
D02*
G37*
G36*
X-7250Y-7181D02*
X-8616Y-7453D01*
X-9773Y-8227D01*
X-10547Y-9384D01*
X-10819Y-10750D01*
X-10547Y-12116D01*
X-9773Y-13273D01*
X-8616Y-14047D01*
X-7250Y-14319D01*
X-5884Y-14047D01*
X-4727Y-13273D01*
X-3953Y-12116D01*
X-3681Y-10750D01*
X-3953Y-9384D01*
X-4727Y-8227D01*
X-5884Y-7453D01*
X-7250Y-7181D01*
D02*
G37*
G36*
X-151750Y-7931D02*
X-153116Y-8203D01*
X-154273Y-8977D01*
X-155047Y-10134D01*
X-155319Y-11500D01*
X-155047Y-12866D01*
X-154273Y-14023D01*
X-153116Y-14797D01*
X-151750Y-15069D01*
X-150384Y-14797D01*
X-149227Y-14023D01*
X-148453Y-12866D01*
X-148181Y-11500D01*
X-148453Y-10134D01*
X-149227Y-8977D01*
X-150384Y-8203D01*
X-151750Y-7931D01*
D02*
G37*
G36*
X10000Y-7681D02*
X8634Y-7953D01*
X7477Y-8727D01*
X6703Y-9884D01*
X6431Y-11250D01*
X6703Y-12616D01*
X7477Y-13773D01*
X8634Y-14547D01*
X10000Y-14819D01*
X11366Y-14547D01*
X11782Y-14269D01*
X12931Y-15000D01*
X13203Y-16366D01*
X13977Y-17523D01*
X15134Y-18297D01*
X16500Y-18569D01*
X17866Y-18297D01*
X18556Y-17836D01*
X19216Y-17624D01*
X20154Y-18117D01*
X20546Y-18704D01*
X21787Y-19532D01*
X23250Y-19823D01*
X24713Y-19532D01*
X25954Y-18704D01*
X26101Y-18483D01*
X27046Y-17704D01*
X28287Y-18532D01*
X29750Y-18823D01*
X31213Y-18532D01*
X31807Y-18135D01*
X32750Y-17807D01*
X33693Y-18135D01*
X34287Y-18532D01*
X35750Y-18823D01*
X37213Y-18532D01*
X37843Y-18112D01*
X38977Y-17523D01*
X40134Y-18297D01*
X41500Y-18569D01*
X42866Y-18297D01*
X44023Y-17523D01*
X44477D01*
X45634Y-18297D01*
X47000Y-18569D01*
X48366Y-18297D01*
X49523Y-17523D01*
X50284D01*
X50889Y-17765D01*
X52037Y-18532D01*
X53500Y-18823D01*
X54963Y-18532D01*
X56204Y-17704D01*
X57032Y-16463D01*
X57323Y-15000D01*
X57032Y-13537D01*
X56204Y-12296D01*
X54963Y-11468D01*
X53500Y-11177D01*
X52037Y-11468D01*
X50889Y-12234D01*
X50284Y-12477D01*
X49523D01*
X48366Y-11703D01*
X47000Y-11431D01*
X45634Y-11703D01*
X44477Y-12477D01*
X44023D01*
X42866Y-11703D01*
X41500Y-11431D01*
X40134Y-11703D01*
X38977Y-12477D01*
X37843Y-11888D01*
X37213Y-11468D01*
X35750Y-11177D01*
X34287Y-11468D01*
X33693Y-11865D01*
X32750Y-12193D01*
X31807Y-11865D01*
X31213Y-11468D01*
X29750Y-11177D01*
X28287Y-11468D01*
X27046Y-12296D01*
X26899Y-12517D01*
X25954Y-13296D01*
X24713Y-12468D01*
X23250Y-12177D01*
X21787Y-12468D01*
X20882Y-13073D01*
X19611Y-12988D01*
X19295Y-12883D01*
X19023Y-12477D01*
X17866Y-11703D01*
X16500Y-11431D01*
X15134Y-11703D01*
X14718Y-11981D01*
X13569Y-11250D01*
X13297Y-9884D01*
X12523Y-8727D01*
X11366Y-7953D01*
X10000Y-7681D01*
D02*
G37*
G36*
X-48500Y-23181D02*
X-49866Y-23453D01*
X-51023Y-24227D01*
X-51797Y-25384D01*
X-52069Y-26750D01*
X-51797Y-28116D01*
X-51023Y-29273D01*
X-49866Y-30047D01*
X-48500Y-30319D01*
X-47134Y-30047D01*
X-45977Y-29273D01*
X-45203Y-28116D01*
X-44931Y-26750D01*
X-45203Y-25384D01*
X-45977Y-24227D01*
X-47134Y-23453D01*
X-48500Y-23181D01*
D02*
G37*
G36*
X50500Y-24181D02*
X49134Y-24453D01*
X47977Y-25227D01*
X47203Y-26384D01*
X46931Y-27750D01*
X47203Y-29116D01*
X47977Y-30273D01*
X49134Y-31047D01*
X50500Y-31319D01*
X51866Y-31047D01*
X53023Y-30273D01*
X53797Y-29116D01*
X54069Y-27750D01*
X53797Y-26384D01*
X53023Y-25227D01*
X51866Y-24453D01*
X50500Y-24181D01*
D02*
G37*
G36*
X-6250Y-27681D02*
X-7616Y-27953D01*
X-8773Y-28727D01*
X-9547Y-29884D01*
X-9819Y-31250D01*
X-9547Y-32616D01*
X-8773Y-33773D01*
X-7616Y-34547D01*
X-6250Y-34819D01*
X-4884Y-34547D01*
X-3727Y-33773D01*
X-2953Y-32616D01*
X-2681Y-31250D01*
X-2953Y-29884D01*
X-3727Y-28727D01*
X-4884Y-27953D01*
X-6250Y-27681D01*
D02*
G37*
G36*
X3370Y-28551D02*
X2004Y-28823D01*
X846Y-29596D01*
X73Y-30754D01*
X-199Y-32120D01*
X73Y-33485D01*
X846Y-34643D01*
X2004Y-35417D01*
X3370Y-35688D01*
X4735Y-35417D01*
X5893Y-34643D01*
X6667Y-33485D01*
X6938Y-32120D01*
X6667Y-30754D01*
X5893Y-29596D01*
X4735Y-28823D01*
X3370Y-28551D01*
D02*
G37*
G36*
X34483Y-37209D02*
X33117Y-37481D01*
X31959Y-38254D01*
X31847Y-38422D01*
X30523Y-38727D01*
X29366Y-37953D01*
X28000Y-37681D01*
X26634Y-37953D01*
X25477Y-38727D01*
X25023D01*
X23866Y-37953D01*
X22500Y-37681D01*
X21134Y-37953D01*
X19977Y-38727D01*
X19930Y-38796D01*
X19447D01*
X18496Y-38657D01*
X17463Y-37968D01*
X16000Y-37677D01*
X14537Y-37968D01*
X13908Y-38388D01*
X12773Y-38977D01*
X11616Y-38203D01*
X10250Y-37931D01*
X8884Y-38203D01*
X7727Y-38977D01*
X6415Y-38653D01*
X6116Y-38453D01*
X4750Y-38181D01*
X3384Y-38453D01*
X2227Y-39227D01*
X1453Y-40384D01*
X1181Y-41750D01*
X1453Y-43116D01*
X2227Y-44273D01*
X3384Y-45047D01*
X4750Y-45319D01*
X6116Y-45047D01*
X6646Y-44692D01*
X7727Y-44023D01*
X8884Y-44797D01*
X10250Y-45069D01*
X11616Y-44797D01*
X12773Y-44023D01*
X13908Y-44612D01*
X14537Y-45032D01*
X16000Y-45323D01*
X17463Y-45032D01*
X18704Y-44204D01*
X18991Y-43773D01*
X19977D01*
X21134Y-44547D01*
X22500Y-44819D01*
X23866Y-44547D01*
X24281Y-44270D01*
X25250Y-43867D01*
X26219Y-44270D01*
X26634Y-44547D01*
X28000Y-44819D01*
X29366Y-44547D01*
X30523Y-43773D01*
X30635Y-43605D01*
X31959Y-43301D01*
X33117Y-44075D01*
X34483Y-44346D01*
X35848Y-44075D01*
X37006Y-43301D01*
X37780Y-42143D01*
X38051Y-40778D01*
X37780Y-39412D01*
X37006Y-38254D01*
X35848Y-37481D01*
X34483Y-37209D01*
D02*
G37*
G36*
X148250Y-44570D02*
X146884Y-44842D01*
X145727Y-45616D01*
X144953Y-46773D01*
X144681Y-48139D01*
X144953Y-49504D01*
X145727Y-50662D01*
X146884Y-51436D01*
X148250Y-51708D01*
X149616Y-51436D01*
X150773Y-50662D01*
X151547Y-49504D01*
X151819Y-48139D01*
X151547Y-46773D01*
X150773Y-45616D01*
X149616Y-44842D01*
X148250Y-44570D01*
D02*
G37*
G36*
X127000Y-48431D02*
X125634Y-48703D01*
X124477Y-49477D01*
X123703Y-50634D01*
X123431Y-52000D01*
X123703Y-53366D01*
X124477Y-54523D01*
X125634Y-55297D01*
X127000Y-55569D01*
X128366Y-55297D01*
X129523Y-54523D01*
X130297Y-53366D01*
X130569Y-52000D01*
X130297Y-50634D01*
X129523Y-49477D01*
X128366Y-48703D01*
X127000Y-48431D01*
D02*
G37*
G36*
X137750Y-52181D02*
X136384Y-52453D01*
X135227Y-53227D01*
X134453Y-54384D01*
X134181Y-55750D01*
X134453Y-57116D01*
X135227Y-58273D01*
X136384Y-59047D01*
X137750Y-59319D01*
X139116Y-59047D01*
X140273Y-58273D01*
X141047Y-57116D01*
X141319Y-55750D01*
X141047Y-54384D01*
X140273Y-53227D01*
X139116Y-52453D01*
X137750Y-52181D01*
D02*
G37*
G36*
X47606Y-56516D02*
X46241Y-56787D01*
X45083Y-57561D01*
X44309Y-58719D01*
X44038Y-60084D01*
X44309Y-61450D01*
X45083Y-62608D01*
X46241Y-63381D01*
X47606Y-63653D01*
X48972Y-63381D01*
X50130Y-62608D01*
X50903Y-61450D01*
X51175Y-60084D01*
X50903Y-58719D01*
X50130Y-57561D01*
X48972Y-56787D01*
X47606Y-56516D01*
D02*
G37*
G36*
X71000Y-57681D02*
X69634Y-57953D01*
X68477Y-58727D01*
X67703Y-59884D01*
X67431Y-61250D01*
X67703Y-62616D01*
X68477Y-63773D01*
X69634Y-64547D01*
X71000Y-64819D01*
X72366Y-64547D01*
X73523Y-63773D01*
X74297Y-62616D01*
X74569Y-61250D01*
X74297Y-59884D01*
X73523Y-58727D01*
X72366Y-57953D01*
X71000Y-57681D01*
D02*
G37*
G36*
X6500Y-60431D02*
X5134Y-60703D01*
X3977Y-61477D01*
X3203Y-62634D01*
X2931Y-64000D01*
X3203Y-65366D01*
X3977Y-66523D01*
X5134Y-67297D01*
X6500Y-67569D01*
X7866Y-67297D01*
X9023Y-66523D01*
X9797Y-65366D01*
X10069Y-64000D01*
X9797Y-62634D01*
X9023Y-61477D01*
X7866Y-60703D01*
X6500Y-60431D01*
D02*
G37*
G36*
X116250Y-34181D02*
X114884Y-34453D01*
X113727Y-35227D01*
X112953Y-36384D01*
X112681Y-37750D01*
X112953Y-39116D01*
X113727Y-40273D01*
X113956Y-40427D01*
Y-70800D01*
X103271Y-81485D01*
X103000Y-81431D01*
X101634Y-81703D01*
X100477Y-82477D01*
X99703Y-83634D01*
X99431Y-85000D01*
X99703Y-86366D01*
X100477Y-87523D01*
X101634Y-88297D01*
X103000Y-88569D01*
X104366Y-88297D01*
X105523Y-87523D01*
X106297Y-86366D01*
X106569Y-85000D01*
X106515Y-84729D01*
X117872Y-73372D01*
X118369Y-72628D01*
X118544Y-71750D01*
Y-68291D01*
X119814Y-67906D01*
X120227Y-68523D01*
X121384Y-69297D01*
X122750Y-69569D01*
X124116Y-69297D01*
X125273Y-68523D01*
X126047Y-67366D01*
X126319Y-66000D01*
X126047Y-64634D01*
X125273Y-63477D01*
X124116Y-62703D01*
X122750Y-62431D01*
X121384Y-62703D01*
X120227Y-63477D01*
X119814Y-64094D01*
X118544Y-63709D01*
Y-40427D01*
X118773Y-40273D01*
X119547Y-39116D01*
X119819Y-37750D01*
X119547Y-36384D01*
X118773Y-35227D01*
X117616Y-34453D01*
X116250Y-34181D01*
D02*
G37*
G36*
X-23750Y-62681D02*
X-25116Y-62953D01*
X-26273Y-63727D01*
X-27047Y-64884D01*
X-27319Y-66250D01*
X-27047Y-67616D01*
X-26273Y-68773D01*
X-25116Y-69547D01*
X-23750Y-69819D01*
X-22384Y-69547D01*
X-21227Y-68773D01*
X-20453Y-67616D01*
X-20181Y-66250D01*
X-20453Y-64884D01*
X-21227Y-63727D01*
X-22384Y-62953D01*
X-23750Y-62681D01*
D02*
G37*
G36*
X130250Y-69931D02*
X128884Y-70203D01*
X127727Y-70977D01*
X126953Y-72134D01*
X126681Y-73500D01*
X126953Y-74866D01*
X127727Y-76023D01*
X128884Y-76797D01*
X130250Y-77069D01*
X131616Y-76797D01*
X132773Y-76023D01*
X133547Y-74866D01*
X133819Y-73500D01*
X133547Y-72134D01*
X132773Y-70977D01*
X131616Y-70203D01*
X130250Y-69931D01*
D02*
G37*
G36*
X-108250Y-87181D02*
X-109616Y-87453D01*
X-110773Y-88227D01*
X-111547Y-89384D01*
X-111819Y-90750D01*
X-111547Y-92116D01*
X-110773Y-93273D01*
X-109616Y-94047D01*
X-108250Y-94319D01*
X-106884Y-94047D01*
X-105727Y-93273D01*
X-104953Y-92116D01*
X-104681Y-90750D01*
X-104953Y-89384D01*
X-105727Y-88227D01*
X-106884Y-87453D01*
X-108250Y-87181D01*
D02*
G37*
G36*
X-1500Y-101177D02*
X-2963Y-101468D01*
X-4204Y-102296D01*
X-5032Y-103537D01*
X-5323Y-105000D01*
X-5032Y-106463D01*
X-4204Y-107704D01*
X-2963Y-108532D01*
X-1500Y-108823D01*
X-37Y-108532D01*
X1204Y-107704D01*
X2032Y-106463D01*
X2323Y-105000D01*
X2032Y-103537D01*
X1204Y-102296D01*
X-37Y-101468D01*
X-1500Y-101177D01*
D02*
G37*
G36*
X79250Y-105931D02*
X77884Y-106203D01*
X76727Y-106977D01*
X75953Y-108134D01*
X75681Y-109500D01*
X75953Y-110866D01*
X76727Y-112023D01*
X77884Y-112797D01*
X79250Y-113069D01*
X80616Y-112797D01*
X81773Y-112023D01*
X82547Y-110866D01*
X82819Y-109500D01*
X82547Y-108134D01*
X81773Y-106977D01*
X80616Y-106203D01*
X79250Y-105931D01*
D02*
G37*
G36*
X92836Y-110181D02*
X91470Y-110453D01*
X90312Y-111227D01*
X89539Y-112384D01*
X89267Y-113750D01*
X89539Y-115116D01*
X90312Y-116273D01*
X91470Y-117047D01*
X92836Y-117319D01*
X94201Y-117047D01*
X95359Y-116273D01*
X96133Y-115116D01*
X96404Y-113750D01*
X96133Y-112384D01*
X95359Y-111227D01*
X94201Y-110453D01*
X92836Y-110181D01*
D02*
G37*
G36*
X9500Y-113931D02*
X8134Y-114203D01*
X6977Y-114977D01*
X6203Y-116134D01*
X5931Y-117500D01*
X6203Y-118866D01*
X6977Y-120023D01*
X8134Y-120797D01*
X9500Y-121069D01*
X10866Y-120797D01*
X12023Y-120023D01*
X12797Y-118866D01*
X13069Y-117500D01*
X12797Y-116134D01*
X12023Y-114977D01*
X10866Y-114203D01*
X9500Y-113931D01*
D02*
G37*
G36*
X80250Y-118681D02*
X78884Y-118953D01*
X77727Y-119727D01*
X76953Y-120884D01*
X76681Y-122250D01*
X76953Y-123616D01*
X77727Y-124773D01*
X78884Y-125547D01*
X80250Y-125819D01*
X81616Y-125547D01*
X82773Y-124773D01*
X83547Y-123616D01*
X83819Y-122250D01*
X83547Y-120884D01*
X82773Y-119727D01*
X81616Y-118953D01*
X80250Y-118681D01*
D02*
G37*
G36*
X-107500Y7569D02*
X-108866Y7297D01*
X-110023Y6523D01*
X-110797Y5366D01*
X-111069Y4000D01*
X-110797Y2634D01*
X-110023Y1477D01*
X-108866Y703D01*
X-107857Y503D01*
X-91533Y-15822D01*
X-91569Y-16000D01*
X-91297Y-17366D01*
X-91059Y-17722D01*
Y-42782D01*
X-91874Y-42889D01*
X-94671Y-44048D01*
X-97073Y-45891D01*
X-111215Y-60033D01*
X-113059Y-62435D01*
X-114218Y-65233D01*
X-114613Y-68235D01*
X-114218Y-71237D01*
X-113059Y-74035D01*
X-111215Y-76437D01*
X-97073Y-90579D01*
X-94671Y-92422D01*
X-91874Y-93581D01*
X-88871Y-93976D01*
X-85869Y-93581D01*
X-83072Y-92422D01*
X-80670Y-90579D01*
X-69605Y-79514D01*
X-66126Y-82992D01*
X-66032Y-83463D01*
X-65204Y-84704D01*
X-63963Y-85532D01*
X-62500Y-85823D01*
X-62124Y-86132D01*
X-62124Y-95794D01*
X-68789Y-102460D01*
X-68899Y-102603D01*
X-76273Y-109977D01*
X-76749Y-111125D01*
X-76273Y-112273D01*
X-47898Y-140648D01*
X-46750Y-141124D01*
X-45602Y-140648D01*
X-33043Y-128089D01*
X-32047Y-128884D01*
X-32319Y-130250D01*
X-32047Y-131616D01*
X-31273Y-132773D01*
X-30116Y-133547D01*
X-28750Y-133819D01*
X-27384Y-133547D01*
X-26227Y-132773D01*
X-25453Y-131616D01*
X-25181Y-130250D01*
X-25453Y-128884D01*
X-25654Y-128584D01*
X-24890Y-127441D01*
X-24250Y-127569D01*
X-22884Y-127297D01*
X-21727Y-126523D01*
X-20953Y-125366D01*
X-20681Y-124000D01*
X-20953Y-122634D01*
X-21727Y-121477D01*
X-22884Y-120703D01*
X-23699Y-120541D01*
X-24174Y-119220D01*
X-16852Y-111898D01*
X-16376Y-110750D01*
X-16852Y-109602D01*
X-52626Y-73827D01*
X-52626Y-54626D01*
X-53102Y-53478D01*
X-54250Y-53002D01*
X-54915D01*
X-55791Y-51732D01*
X-55691Y-51229D01*
X-55691Y-51229D01*
Y-22972D01*
X-55453Y-22616D01*
X-55181Y-21250D01*
X-55453Y-19884D01*
X-56227Y-18727D01*
X-57384Y-17953D01*
X-58750Y-17681D01*
X-60116Y-17953D01*
X-61273Y-18727D01*
X-62047Y-19884D01*
X-62319Y-21250D01*
X-62047Y-22616D01*
X-61809Y-22972D01*
Y-49962D01*
X-69204Y-57357D01*
X-80670Y-45891D01*
X-83072Y-44048D01*
X-84941Y-43273D01*
Y-17722D01*
X-84703Y-17366D01*
X-84431Y-16000D01*
X-84703Y-14634D01*
X-85477Y-13477D01*
X-86634Y-12703D01*
X-87643Y-12502D01*
X-103967Y3822D01*
X-103931Y4000D01*
X-104203Y5366D01*
X-104977Y6523D01*
X-106134Y7297D01*
X-107500Y7569D01*
D02*
G37*
G36*
X-73250Y-134681D02*
X-74616Y-134953D01*
X-75773Y-135727D01*
X-76547Y-136884D01*
X-76819Y-138250D01*
X-76547Y-139616D01*
X-75773Y-140773D01*
X-74616Y-141547D01*
X-73250Y-141819D01*
X-71884Y-141547D01*
X-70727Y-140773D01*
X-69953Y-139616D01*
X-69681Y-138250D01*
X-69953Y-136884D01*
X-70727Y-135727D01*
X-71884Y-134953D01*
X-73250Y-134681D01*
D02*
G37*
%LPD*%
G36*
X-54250Y-74500D02*
X-18000Y-110750D01*
X-46750Y-139500D01*
X-75125Y-111125D01*
X-60500Y-96500D01*
X-60500Y-85174D01*
X-59796Y-84704D01*
X-58968Y-83463D01*
X-58677Y-82000D01*
X-58968Y-80537D01*
X-59796Y-79296D01*
X-60500Y-78826D01*
X-60500Y-57305D01*
X-57820Y-54626D01*
X-54250D01*
X-54250Y-74500D01*
D02*
G37*
D11*
X-107500Y3750D02*
Y4000D01*
Y3750D02*
X-88000Y-15750D01*
Y-16000D02*
Y-15750D01*
D13*
X95728Y21272D02*
X125000Y-8000D01*
X94478Y21272D02*
X95728D01*
X125000Y-30000D02*
Y-8000D01*
X96074Y26676D02*
X128250Y-5500D01*
X94000Y27250D02*
X94574Y26676D01*
X96074D01*
X128250Y-25250D02*
Y-5500D01*
X94000Y21750D02*
X94478Y21272D01*
X94000Y16250D02*
X103500Y6750D01*
X66750Y-107377D02*
X103500Y-70627D01*
Y6750D01*
X135750Y40000D02*
X159500Y16250D01*
Y-20640D02*
Y16250D01*
X155000Y-25140D02*
X159500Y-20640D01*
X-36250Y111482D02*
X-35250Y110482D01*
X-36250Y111482D02*
Y112158D01*
X-35250Y11000D02*
Y110482D01*
X155000Y-28750D02*
Y-25140D01*
X146000Y-33000D02*
X148528Y-30472D01*
Y14972D01*
X123500Y40000D02*
X148528Y14972D01*
X-46599Y119859D02*
X-40500Y113760D01*
Y7000D02*
Y113760D01*
X-106842Y88842D02*
X-49000Y31000D01*
Y-2500D02*
Y31000D01*
X-102282Y69325D02*
X-58000Y25043D01*
X-58550Y125800D02*
X-44500Y111750D01*
X-58000Y-11250D02*
Y25043D01*
X-44500Y2000D02*
Y111750D01*
X-105278Y79021D02*
X-53500Y27243D01*
Y-7000D02*
Y27243D01*
X-40500Y7000D02*
X-40000Y6500D01*
X-58000Y-11250D02*
X-57750Y-11500D01*
X-76851Y66399D02*
Y66500D01*
X-104825Y69325D02*
X-102282D01*
X-121092Y88842D02*
X-106842D01*
X-113021Y79021D02*
X-105278D01*
X103000Y-85000D02*
X116250Y-71750D01*
Y-37750D01*
X132256Y-2500D02*
Y-2500D01*
X94000Y33750D02*
X94472Y33278D01*
X96478D01*
X132256Y-2500D01*
X86000Y-10000D02*
Y8500D01*
X63250Y31250D02*
X86000Y8500D01*
X57000Y29500D02*
X76000Y10500D01*
Y-10000D02*
Y10500D01*
X128250Y-25250D02*
X133000Y-30000D01*
D124*
X-64448Y92437D02*
D03*
X-72108Y86009D02*
D03*
X-79769Y79581D02*
D03*
X-70876Y100098D02*
D03*
X-78536Y93670D02*
D03*
X-86196Y87242D02*
D03*
X-77304Y107758D02*
D03*
X-84964Y101330D02*
D03*
X-92624Y94902D02*
D03*
X-83731Y115419D02*
D03*
X-91392Y108991D02*
D03*
X-99052Y102563D02*
D03*
D130*
X-75756Y-68235D02*
X-58750Y-51229D01*
Y-21250D01*
X-88000Y-67364D02*
Y-16000D01*
X-88871Y-68235D02*
X-88000Y-67364D01*
X-157500Y26000D02*
X-138500Y45000D01*
X-76558Y-68235D02*
X-75756D01*
X-76558D02*
X-62793Y-82000D01*
X-88871Y-68235D02*
X-76558D01*
X-62793Y-82000D02*
X-62500D01*
X-108373Y49224D02*
Y50042D01*
X-112596Y45000D02*
X-108373Y49224D01*
X-138500Y45000D02*
X-112596D01*
D132*
X35379Y-99500D02*
X56640Y-120761D01*
Y-128520D02*
Y-120761D01*
X25750Y-99500D02*
X30564D01*
X35379D01*
D133*
X129075Y53655D02*
D03*
X65575Y129855D02*
D03*
X40175D02*
D03*
X52875Y104455D02*
D03*
X14775Y129855D02*
D03*
X-10625D02*
D03*
X-36025D02*
D03*
X-23325Y104455D02*
D03*
Y-47945D02*
D03*
X-61425Y79055D02*
D03*
X-48725Y-47945D02*
D03*
X-86825Y129855D02*
D03*
Y28255D02*
D03*
X-112225Y-22545D02*
D03*
X-137625Y28255D02*
D03*
X-124925Y2855D02*
D03*
X-137625Y-22545D02*
D03*
X94000Y16250D02*
D03*
X33250Y-107500D02*
D03*
X56250Y-100500D02*
D03*
X61500Y-102250D02*
D03*
X66750Y-107377D02*
D03*
X25750Y-99500D02*
D03*
X35379D02*
D03*
X30564D02*
D03*
X80250Y-122250D02*
D03*
X-17250Y57500D02*
D03*
X-13500Y62250D02*
D03*
X-9250Y66750D02*
D03*
X-18000Y51250D02*
D03*
X-5750Y71253D02*
D03*
X-1000Y74500D02*
D03*
X4750D02*
D03*
X-14250Y93500D02*
D03*
X16500Y-15000D02*
D03*
X41500D02*
D03*
X47000D02*
D03*
X50500Y-27750D02*
D03*
X-151750Y-11500D02*
D03*
X-152250Y-1500D02*
D03*
X-152000Y8500D02*
D03*
X-6250Y-31250D02*
D03*
X-24250Y-124000D02*
D03*
X-28750Y-130250D02*
D03*
X-73250Y-138250D02*
D03*
X68000Y11000D02*
D03*
X116500Y21000D02*
D03*
X134750Y12000D02*
D03*
X142000Y-2250D02*
D03*
X155000Y-28750D02*
D03*
X146000Y-33000D02*
D03*
X137500Y-12500D02*
D03*
X155000Y-2750D02*
D03*
X-36250Y112158D02*
D03*
X61447Y55914D02*
D03*
X48921Y56057D02*
D03*
X53754Y58682D02*
D03*
X-7250Y-10750D02*
D03*
X-80750Y37750D02*
D03*
X-71000Y73750D02*
D03*
X-76851Y66500D02*
D03*
X-113021Y79021D02*
D03*
X-104825Y69325D02*
D03*
X-58750Y-21250D02*
D03*
X-57750Y-11500D02*
D03*
X-29000Y32500D02*
D03*
X-46599Y119859D02*
D03*
X103000Y-85000D02*
D03*
X94000Y27250D02*
D03*
Y21750D02*
D03*
Y33750D02*
D03*
X86000Y-10000D02*
D03*
X96000D02*
D03*
X68000Y-1250D02*
D03*
Y5250D02*
D03*
X47606Y-60084D02*
D03*
X63250Y31250D02*
D03*
X57000Y29500D02*
D03*
X76000Y-10000D02*
D03*
X66000D02*
D03*
X10000Y-11250D02*
D03*
X132256Y-2500D02*
D03*
X22500Y-41250D02*
D03*
X34483Y-40778D02*
D03*
X28000Y-41250D02*
D03*
X4750Y-41750D02*
D03*
X10250Y-41500D02*
D03*
X3370Y-32120D02*
D03*
X-48500Y-26750D02*
D03*
X-107500Y4000D02*
D03*
X9500Y-117500D02*
D03*
X-111500Y13250D02*
D03*
X-88000Y-16000D02*
D03*
X-121752Y53284D02*
D03*
X-157500Y26000D02*
D03*
X-139199Y61256D02*
D03*
X-121092Y88842D02*
D03*
X-58550Y125800D02*
D03*
X-43500Y139750D02*
D03*
X92836Y-113750D02*
D03*
X-57250Y-65500D02*
D03*
X-57000Y-58000D02*
D03*
X-23750Y-66250D02*
D03*
X137750Y-55750D02*
D03*
X71000Y-61250D02*
D03*
X125000Y-30000D02*
D03*
X133000D02*
D03*
X79250Y-109500D02*
D03*
X122750Y-66000D02*
D03*
X127000Y-52000D02*
D03*
X130250Y-73500D02*
D03*
X148250Y-48139D02*
D03*
X116250Y-37750D02*
D03*
X142000Y12500D02*
D03*
X135750Y40000D02*
D03*
X123500D02*
D03*
X-81250Y-131250D02*
D03*
X-86000D02*
D03*
X-90500D02*
D03*
X-108250Y-90750D02*
D03*
X88250Y-78500D02*
D03*
X6500Y-64000D02*
D03*
D134*
X-1500Y-105000D02*
D03*
X-35250Y11000D02*
D03*
X23250Y-16000D02*
D03*
X29750Y-15000D02*
D03*
X35750D02*
D03*
X53500D02*
D03*
X-53500Y-7000D02*
D03*
X-49000Y-2500D02*
D03*
X-44500Y2000D02*
D03*
X-40000Y6500D02*
D03*
X16000Y-41500D02*
D03*
X-62500Y-82000D02*
D03*
D135*
X38902Y30524D02*
D03*
X30416Y22039D02*
D03*
X21931Y13554D02*
D03*
X13446Y5068D02*
D03*
X30416Y39009D02*
D03*
X21931Y30524D02*
D03*
X13446Y22039D02*
D03*
X4961Y13554D02*
D03*
X21931Y47495D02*
D03*
X13446Y39009D02*
D03*
X4961Y30524D02*
D03*
X-3525Y22039D02*
D03*
X13446Y55980D02*
D03*
X4961Y47495D02*
D03*
X-3525Y39009D02*
D03*
X-12010Y30524D02*
D03*
D139*
X31240Y-128520D02*
D03*
X56640D02*
D03*
D140*
X-96782Y46937D02*
D03*
X-108373Y50042D02*
D03*
D141*
X-46445Y-110661D02*
D03*
X-88871Y-68235D02*
D03*
M02*
