G04*
G04 #@! TF.GenerationSoftware,Altium Limited,Altium Designer,20.1.7 (139)*
G04*
G04 Layer_Color=16711935*
%FSLAX44Y44*%
%MOMM*%
G71*
G04*
G04 #@! TF.SameCoordinates,99CDB543-8891-4245-8F14-29871282C811*
G04*
G04*
G04 #@! TF.FilePolarity,Positive*
G04*
G01*
G75*
%ADD10C,0.1000*%
%ADD11C,0.2000*%
%ADD145C,0.1270*%
D10*
X-103826Y96320D02*
G03*
X-103826Y96320I-5000J0D01*
G01*
X-10546Y30524D02*
G03*
X-10546Y30524I-5000J0D01*
G01*
X-31350Y-27400D02*
X-26150D01*
X-31350Y-17100D02*
X-26150D01*
X-31350Y-27400D02*
Y-17100D01*
X-26150Y-27400D02*
Y-17100D01*
X-82000Y-28750D02*
Y-17250D01*
X-76000Y-28750D02*
Y-17250D01*
X-82000Y-28750D02*
X-76000D01*
X-82000Y-17250D02*
X-76000D01*
X-64000Y-28500D02*
Y-17000D01*
X-70000Y-28500D02*
Y-17000D01*
X-64000D01*
X-70000Y-28500D02*
X-64000D01*
X-112500Y23750D02*
X-106500D01*
X-112500Y35250D02*
X-106500D01*
X-112500Y23750D02*
Y35250D01*
X-106500Y23750D02*
Y35250D01*
X-104250Y-19000D02*
Y-13000D01*
X-92750Y-19000D02*
Y-13000D01*
X-104250D02*
X-92750D01*
X-104250Y-19000D02*
X-92750D01*
X-118500Y-1500D02*
X-112500D01*
X-118500Y10000D02*
X-112500D01*
X-118500Y-1500D02*
Y10000D01*
X-112500Y-1500D02*
Y10000D01*
X-88723Y58361D02*
X-41995Y97571D01*
X-121505Y97429D02*
X-74777Y136639D01*
X-41995Y97571D01*
X-121505Y97429D02*
X-88723Y58361D01*
X-100000Y23750D02*
Y35250D01*
X-94000Y23750D02*
Y35250D01*
X-100000Y23750D02*
X-94000D01*
X-100000Y35250D02*
X-94000D01*
X-106000Y4370D02*
X-101000Y-630D01*
X-106000D02*
X-90000D01*
Y11130D01*
X-106000D02*
X-90000D01*
X-106000Y-630D02*
Y11130D01*
X-38150Y-27400D02*
Y-17100D01*
X-43350Y-27400D02*
Y-17100D01*
X-38150D01*
X-43350Y-27400D02*
X-38150D01*
X-23980Y75553D02*
X-16697Y68270D01*
X-20303Y79230D02*
X-13020Y71947D01*
X-16697Y68270D02*
X-13020Y71947D01*
X-23980Y75553D02*
X-20303Y79230D01*
X-874Y104175D02*
X13975Y119024D01*
X11147Y92154D02*
X25996Y107003D01*
X-874Y104175D02*
X11147Y92154D01*
X13975Y119024D02*
X25996Y107003D01*
X22631Y92558D02*
X29914Y99841D01*
X26308Y88881D02*
X33591Y96164D01*
X22631Y92558D02*
X26308Y88881D01*
X29914Y99841D02*
X33591Y96164D01*
X-7480Y92053D02*
X-197Y84770D01*
X-3803Y95730D02*
X3480Y88447D01*
X-197Y84770D02*
X3480Y88447D01*
X-7480Y92053D02*
X-3803Y95730D01*
X31020Y84197D02*
X38303Y91480D01*
X34697Y80520D02*
X41980Y87803D01*
X31020Y84197D02*
X34697Y80520D01*
X38303Y91480D02*
X41980Y87803D01*
X39409Y75836D02*
X46692Y83119D01*
X43086Y72159D02*
X50369Y79442D01*
X39409Y75836D02*
X43086Y72159D01*
X46692Y83119D02*
X50369Y79442D01*
X13446Y-11902D02*
X55872Y30524D01*
X-28981D02*
X13446Y72951D01*
X55872Y30524D01*
X-28981D02*
X13446Y-11902D01*
X68209Y71311D02*
X72452Y67069D01*
X75987Y79089D02*
X80230Y74847D01*
X68209Y71311D02*
X75987Y79089D01*
X72452Y67069D02*
X80230Y74847D01*
X60601Y61157D02*
X64844Y65399D01*
X68379Y53378D02*
X72622Y57621D01*
X64844Y65399D02*
X72622Y57621D01*
X60601Y61157D02*
X68379Y53378D01*
X54303Y72480D02*
X57980Y68803D01*
X47020Y65197D02*
X50697Y61520D01*
X57980Y68803D01*
X47020Y65197D02*
X54303Y72480D01*
X86883Y97057D02*
X86883Y88571D01*
X82641Y92814D02*
X93954Y81500D01*
X116582Y104128D01*
X105268Y115442D02*
X116582Y104128D01*
X82641Y92814D02*
X105268Y115442D01*
X-15841Y83914D02*
X-8558Y76631D01*
X-12164Y87591D02*
X-4881Y80308D01*
X-8558Y76631D02*
X-4881Y80308D01*
X-15841Y83914D02*
X-12164Y87591D01*
X-143135Y30789D02*
X-135888Y57835D01*
X-129612Y27165D02*
X-122365Y54211D01*
X-135888Y57835D02*
X-122365Y54211D01*
X-143135Y30789D02*
X-129612Y27165D01*
X-140198Y17156D02*
X-138853Y22178D01*
X-150147Y19821D02*
X-148802Y24844D01*
X-150147Y19821D02*
X-140198Y17156D01*
X-148802Y24844D02*
X-138853Y22178D01*
X-133283Y65703D02*
X-123141Y62985D01*
X-131859Y71015D02*
X-121717Y68298D01*
X-123141Y62985D02*
X-121717Y68298D01*
X-133283Y65703D02*
X-131859Y71015D01*
X-120000Y-33250D02*
Y-27750D01*
X-109500Y-33250D02*
Y-27750D01*
X-120000D02*
X-109500D01*
X-120000Y-33250D02*
X-109500D01*
X-123000Y-88500D02*
X-117500D01*
X-123000Y-99000D02*
X-117500D01*
Y-88500D01*
X-123000Y-99000D02*
Y-88500D01*
X-65900Y-102300D02*
Y-92000D01*
X-71100Y-102300D02*
Y-92000D01*
X-65900D01*
X-71100Y-102300D02*
X-65900D01*
X-111000Y-108000D02*
X-105500D01*
X-111000Y-97500D02*
X-105500D01*
X-111000Y-108000D02*
Y-97500D01*
X-105500Y-108000D02*
Y-97500D01*
X-83600Y-125600D02*
Y-120400D01*
X-93900Y-125600D02*
Y-120400D01*
Y-125600D02*
X-83600D01*
X-93900Y-120400D02*
X-83600D01*
X-71250Y-60000D02*
Y-54500D01*
X-81750Y-60000D02*
Y-54500D01*
Y-60000D02*
X-71250D01*
X-81750Y-54500D02*
X-71250D01*
X100916Y-75477D02*
X105176Y-78460D01*
X106824Y-67040D02*
X111084Y-70023D01*
X100916Y-75477D02*
X106824Y-67040D01*
X105176Y-78460D02*
X111084Y-70023D01*
X87520Y-92803D02*
X91197Y-96480D01*
X94803Y-85520D02*
X98480Y-89197D01*
X87520Y-92803D02*
X94803Y-85520D01*
X91197Y-96480D02*
X98480Y-89197D01*
X95935Y-100997D02*
X99612Y-104674D01*
X103218Y-93714D02*
X106895Y-97390D01*
X95935Y-100997D02*
X103218Y-93714D01*
X99612Y-104674D02*
X106895Y-97390D01*
X104185Y-109497D02*
X107862Y-113174D01*
X111468Y-102213D02*
X115145Y-105890D01*
X104185Y-109497D02*
X111468Y-102213D01*
X107862Y-113174D02*
X115145Y-105890D01*
X-38850Y-140400D02*
Y-130100D01*
X-33650Y-140400D02*
Y-130100D01*
X-38850Y-140400D02*
X-33650D01*
X-38850Y-130100D02*
X-33650D01*
X-2250Y-135750D02*
Y-115750D01*
X-22250D02*
X-2250D01*
X-22250Y-135750D02*
Y-115750D01*
Y-135750D02*
X-2250D01*
X-48730Y51553D02*
X-41447Y44270D01*
X-45053Y55230D02*
X-37770Y47947D01*
X-41447Y44270D02*
X-37770Y47947D01*
X-48730Y51553D02*
X-45053Y55230D01*
X82000Y-42250D02*
Y-36750D01*
X71500Y-42250D02*
Y-36750D01*
Y-42250D02*
X82000D01*
X71500Y-36750D02*
X82000D01*
X-57230Y43303D02*
X-49947Y36020D01*
X-53553Y46980D02*
X-46270Y39697D01*
X-49947Y36020D02*
X-46270Y39697D01*
X-57230Y43303D02*
X-53553Y46980D01*
X-44192Y61078D02*
X-37828Y67442D01*
X-32172Y49058D02*
X-25808Y55422D01*
X-37828Y67442D02*
X-25808Y55422D01*
X-44192Y61078D02*
X-32172Y49058D01*
X-28518Y72260D02*
X-20740Y64482D01*
X-32760Y68018D02*
X-24982Y60240D01*
X-32760Y68018D02*
X-28518Y72260D01*
X-24982Y60240D02*
X-20740Y64482D01*
X-38250Y-77250D02*
X-32750D01*
X-38250Y-66750D02*
X-32750D01*
X-38250Y-77250D02*
Y-66750D01*
X-32750Y-77250D02*
Y-66750D01*
X-50619Y18942D02*
X-43336Y11659D01*
X-46942Y22619D02*
X-39659Y15336D01*
X-43336Y11659D02*
X-39659Y15336D01*
X-50619Y18942D02*
X-46942Y22619D01*
X-62164Y38091D02*
X-54881Y30808D01*
X-65841Y34414D02*
X-58558Y27131D01*
X-65841Y34414D02*
X-62164Y38091D01*
X-58558Y27131D02*
X-54881Y30808D01*
X-77309Y15644D02*
X-68116Y24836D01*
X-62106Y441D02*
X-52914Y9633D01*
X-68116Y24836D02*
X-52914Y9633D01*
X-77309Y15644D02*
X-62106Y441D01*
X-69004Y59019D02*
X-60961Y65768D01*
X-72539Y63232D02*
X-64496Y69981D01*
X-60961Y65768D01*
X-72539Y63232D02*
X-69004Y59019D01*
X-46681Y127634D02*
X-42698Y130976D01*
X-53302Y135524D02*
X-49319Y138866D01*
X-53302Y135524D02*
X-46681Y127634D01*
X-49319Y138866D02*
X-42698Y130976D01*
X57000Y-70000D02*
Y-56000D01*
X85000Y-70000D02*
Y-56000D01*
X57000Y-70000D02*
X85000D01*
X57000Y-56000D02*
X85000D01*
X38350Y-74800D02*
Y-64500D01*
X33150Y-74800D02*
Y-64500D01*
X38350D01*
X33150Y-74800D02*
X38350D01*
X26600Y-74800D02*
Y-64500D01*
X21400Y-74800D02*
Y-64500D01*
X26600D01*
X21400Y-74800D02*
X26600D01*
X127000Y2750D02*
Y20750D01*
X153000D01*
Y2750D02*
Y20750D01*
X127000Y2750D02*
X153000D01*
X50100Y-74800D02*
Y-64500D01*
X44900Y-74800D02*
Y-64500D01*
X50100D01*
X44900Y-74800D02*
X50100D01*
X2000Y-83250D02*
Y-69250D01*
X-26000Y-83250D02*
Y-69250D01*
X2000D01*
X-26000Y-83250D02*
X2000D01*
X9500Y-75000D02*
X15000D01*
X9500Y-64500D02*
X15000D01*
X9500Y-75000D02*
Y-64500D01*
X15000Y-75000D02*
Y-64500D01*
X140638Y-66403D02*
X146794Y-49489D01*
X116206Y-57511D02*
X140638Y-66403D01*
X116206Y-57511D02*
X122362Y-40596D01*
X146794Y-49489D01*
X117665Y-69749D02*
X134048Y-81221D01*
X122577Y-97604D02*
X134048Y-81221D01*
X106194Y-86132D02*
X122577Y-97604D01*
X106194Y-86132D02*
X117665Y-69749D01*
X-65000Y-139000D02*
X-47000D01*
X-65000D02*
Y-113000D01*
X-47000D01*
Y-139000D02*
Y-113000D01*
X81755Y-109229D02*
X91294Y-124494D01*
X69245Y-138271D02*
X91294Y-124494D01*
X59706Y-123006D02*
X69245Y-138271D01*
X59706Y-123006D02*
X81755Y-109229D01*
X9400Y-135500D02*
X14600D01*
X9400Y-125200D02*
X14600D01*
X9400Y-135500D02*
Y-125200D01*
X14600Y-135500D02*
Y-125200D01*
X48000Y-137750D02*
X48000Y-117750D01*
X23000D02*
X48000D01*
X23000Y-137750D02*
X23000Y-117750D01*
X23000Y-137750D02*
X48000D01*
X151375Y-24500D02*
Y-4500D01*
X131375Y-24500D02*
X151375D01*
X131375D02*
Y-4500D01*
X151375D01*
X112800Y-13100D02*
Y-7900D01*
X123100Y-13100D02*
Y-7900D01*
X112800D02*
X123100D01*
X112800Y-13100D02*
X123100D01*
X112950Y-24850D02*
Y-19650D01*
X123250Y-24850D02*
Y-19650D01*
X112950D02*
X123250D01*
X112950Y-24850D02*
X123250D01*
X107700Y-1100D02*
Y4100D01*
X118000Y-1100D02*
Y4100D01*
X107700D02*
X118000D01*
X107700Y-1100D02*
X118000D01*
X-84500Y-38200D02*
X-80750Y-34450D01*
X-84500Y-49450D02*
Y-34450D01*
Y-49450D02*
X-69500D01*
Y-34450D01*
X-84500D02*
X-69500D01*
X-59850Y-51400D02*
X-54650D01*
X-59850Y-41100D02*
X-54650D01*
X-59850Y-51400D02*
Y-41100D01*
X-54650Y-51400D02*
Y-41100D01*
X-123250Y-40000D02*
X-107250D01*
Y-70000D02*
Y-40000D01*
X-123250Y-70000D02*
X-107250D01*
X-123250D02*
Y-40000D01*
Y-49500D02*
X-113750Y-40000D01*
D11*
X-99500Y-89750D02*
X-78000D01*
X-99500Y-114750D02*
Y-89750D01*
Y-114750D02*
X-78000D01*
Y-89750D01*
D145*
X-85669Y-19029D02*
G03*
X-85669Y-19029I-35000J0D01*
G01*
X-102223Y11176D02*
X-98858Y23733D01*
X-118176Y28910D02*
X-98858Y23733D01*
X-110917Y56004D02*
X-91598Y50827D01*
X-98845Y23781D02*
X-91598Y50827D01*
X-121541Y16353D02*
X-110917Y56004D01*
M02*
