G04*
G04 #@! TF.GenerationSoftware,Altium Limited,Altium Designer,20.1.7 (139)*
G04*
G04 Layer_Color=32896*
%FSLAX44Y44*%
%MOMM*%
G71*
G04*
G04 #@! TF.SameCoordinates,99CDB543-8891-4245-8F14-29871282C811*
G04*
G04*
G04 #@! TF.FilePolarity,Positive*
G04*
G01*
G75*
%ADD10C,0.1000*%
%ADD11C,0.2000*%
%ADD145C,0.1270*%
%ADD146C,0.2540*%
D10*
X159140Y14850D02*
G03*
X159140Y14850I-122500J0D01*
G01*
D11*
X-117084Y52437D02*
G03*
X-117084Y52437I-1000J0D01*
G01*
D145*
X-85669Y-19029D02*
G03*
X-85669Y-19029I-35000J0D01*
G01*
X-98845Y23781D02*
X-96270Y33393D01*
X-118163Y28958D02*
X-115588Y38569D01*
X-121541Y16353D02*
X-118163Y28958D01*
X-102223Y11176D02*
X-98845Y23781D01*
X-118163Y28958D02*
X-98845Y23781D01*
D146*
X-49503Y121066D02*
X-42434Y113997D01*
X-45969Y110463D01*
X-48325D01*
X-49503Y111641D01*
X-49503Y113997D01*
X-45969Y117531D01*
X-49503Y113997D01*
X-51859D01*
X-53038Y115175D01*
Y117531D01*
X-49503Y121066D01*
Y106928D02*
X-54216Y111641D01*
X-58928Y111641D01*
X-58928Y106928D01*
X-54216Y102216D01*
X-57750Y105750D01*
X-53038Y110463D01*
X-63641Y106928D02*
X-68353Y102216D01*
X-65997Y104572D01*
X-58928Y97503D01*
X-63641Y92790D02*
X-65997Y90434D01*
X-64819Y91612D01*
X-71888Y98681D01*
X-69531D01*
X-141253Y13678D02*
X-148322Y20747D01*
X-148322Y16034D01*
X-153034Y16034D01*
X-145966Y8966D01*
X-148322Y6609D02*
X-150678Y4253D01*
X-149500Y5431D01*
X-156569Y12500D01*
X-154213D01*
M02*
