G04*
G04 #@! TF.GenerationSoftware,Altium Limited,Altium Designer,20.1.7 (139)*
G04*
G04 Layer_Color=16711935*
%FSLAX44Y44*%
%MOMM*%
G71*
G04*
G04 #@! TF.SameCoordinates,99CDB543-8891-4245-8F14-29871282C811*
G04*
G04*
G04 #@! TF.FilePolarity,Positive*
G04*
G01*
G75*
%ADD10C,0.1000*%
%ADD147C,0.0250*%
G36*
X-3662Y142672D02*
X-3579Y142663D01*
X-3477Y142654D01*
X-3376Y142645D01*
X-3255Y142617D01*
X-3006Y142561D01*
X-2729Y142478D01*
X-2590Y142423D01*
X-2460Y142358D01*
X-2331Y142275D01*
X-2201Y142191D01*
X-2192Y142182D01*
X-2174Y142173D01*
X-2137Y142145D01*
X-2091Y142099D01*
X-2044Y142053D01*
X-1980Y141988D01*
X-1915Y141914D01*
X-1841Y141840D01*
X-1767Y141748D01*
X-1693Y141637D01*
X-1610Y141526D01*
X-1536Y141406D01*
X-1471Y141267D01*
X-1397Y141128D01*
X-1342Y140980D01*
X-1286Y140814D01*
X-2118Y140620D01*
Y140629D01*
X-2128Y140647D01*
X-2146Y140684D01*
X-2165Y140731D01*
X-2183Y140786D01*
X-2211Y140860D01*
X-2285Y141008D01*
X-2377Y141174D01*
X-2488Y141341D01*
X-2627Y141498D01*
X-2775Y141637D01*
X-2793Y141655D01*
X-2849Y141692D01*
X-2941Y141738D01*
X-3061Y141803D01*
X-3219Y141859D01*
X-3394Y141914D01*
X-3607Y141951D01*
X-3838Y141960D01*
X-3912D01*
X-3958Y141951D01*
X-4023D01*
X-4097Y141942D01*
X-4272Y141914D01*
X-4467Y141877D01*
X-4670Y141812D01*
X-4883Y141720D01*
X-5077Y141600D01*
X-5086D01*
X-5095Y141581D01*
X-5160Y141535D01*
X-5243Y141461D01*
X-5345Y141350D01*
X-5465Y141211D01*
X-5576Y141054D01*
X-5678Y140860D01*
X-5770Y140647D01*
Y140638D01*
X-5780Y140620D01*
X-5789Y140592D01*
X-5798Y140546D01*
X-5817Y140490D01*
X-5835Y140426D01*
X-5863Y140268D01*
X-5900Y140084D01*
X-5937Y139880D01*
X-5955Y139658D01*
X-5964Y139418D01*
Y139409D01*
Y139381D01*
Y139335D01*
Y139279D01*
X-5955Y139214D01*
Y139131D01*
X-5946Y139039D01*
X-5937Y138937D01*
X-5909Y138715D01*
X-5863Y138475D01*
X-5807Y138234D01*
X-5733Y137994D01*
Y137985D01*
X-5724Y137966D01*
X-5706Y137938D01*
X-5687Y137892D01*
X-5632Y137781D01*
X-5548Y137652D01*
X-5447Y137504D01*
X-5317Y137347D01*
X-5169Y137208D01*
X-4994Y137079D01*
X-4984D01*
X-4966Y137069D01*
X-4938Y137051D01*
X-4901Y137032D01*
X-4855Y137014D01*
X-4800Y136986D01*
X-4670Y136931D01*
X-4504Y136875D01*
X-4319Y136829D01*
X-4115Y136792D01*
X-3903Y136783D01*
X-3838D01*
X-3783Y136792D01*
X-3718D01*
X-3653Y136801D01*
X-3487Y136838D01*
X-3293Y136884D01*
X-3098Y136959D01*
X-2895Y137060D01*
X-2793Y137116D01*
X-2701Y137190D01*
X-2691Y137199D01*
X-2682Y137208D01*
X-2655Y137236D01*
X-2618Y137264D01*
X-2581Y137310D01*
X-2534Y137365D01*
X-2479Y137421D01*
X-2433Y137495D01*
X-2377Y137578D01*
X-2313Y137670D01*
X-2257Y137763D01*
X-2201Y137874D01*
X-2155Y137994D01*
X-2109Y138123D01*
X-2063Y138262D01*
X-2026Y138410D01*
X-1175Y138197D01*
Y138188D01*
X-1185Y138151D01*
X-1203Y138096D01*
X-1231Y138022D01*
X-1259Y137938D01*
X-1295Y137837D01*
X-1342Y137726D01*
X-1397Y137606D01*
X-1527Y137347D01*
X-1693Y137088D01*
X-1795Y136959D01*
X-1896Y136829D01*
X-2007Y136718D01*
X-2137Y136607D01*
X-2146Y136598D01*
X-2165Y136579D01*
X-2211Y136561D01*
X-2257Y136524D01*
X-2331Y136478D01*
X-2405Y136432D01*
X-2507Y136385D01*
X-2608Y136339D01*
X-2729Y136284D01*
X-2858Y136237D01*
X-2997Y136191D01*
X-3145Y136145D01*
X-3302Y136108D01*
X-3468Y136089D01*
X-3644Y136071D01*
X-3829Y136062D01*
X-3930D01*
X-4004Y136071D01*
X-4088D01*
X-4189Y136080D01*
X-4300Y136099D01*
X-4430Y136117D01*
X-4698Y136163D01*
X-4975Y136237D01*
X-5253Y136339D01*
X-5382Y136404D01*
X-5511Y136478D01*
X-5521Y136487D01*
X-5539Y136496D01*
X-5576Y136524D01*
X-5613Y136561D01*
X-5669Y136598D01*
X-5733Y136653D01*
X-5807Y136718D01*
X-5881Y136792D01*
X-5955Y136875D01*
X-6038Y136959D01*
X-6205Y137171D01*
X-6362Y137421D01*
X-6501Y137698D01*
Y137707D01*
X-6519Y137735D01*
X-6528Y137781D01*
X-6556Y137837D01*
X-6575Y137911D01*
X-6602Y138003D01*
X-6639Y138105D01*
X-6667Y138216D01*
X-6695Y138336D01*
X-6732Y138475D01*
X-6778Y138761D01*
X-6815Y139085D01*
X-6834Y139418D01*
Y139427D01*
Y139464D01*
Y139520D01*
X-6824Y139584D01*
Y139677D01*
X-6815Y139769D01*
X-6806Y139889D01*
X-6787Y140009D01*
X-6741Y140278D01*
X-6676Y140574D01*
X-6584Y140869D01*
X-6454Y141156D01*
X-6445Y141165D01*
X-6436Y141193D01*
X-6417Y141230D01*
X-6381Y141276D01*
X-6344Y141341D01*
X-6297Y141415D01*
X-6177Y141581D01*
X-6020Y141766D01*
X-5835Y141951D01*
X-5622Y142136D01*
X-5373Y142293D01*
X-5364Y142302D01*
X-5336Y142312D01*
X-5299Y142330D01*
X-5253Y142358D01*
X-5179Y142386D01*
X-5105Y142413D01*
X-5012Y142450D01*
X-4911Y142487D01*
X-4800Y142524D01*
X-4679Y142561D01*
X-4421Y142617D01*
X-4125Y142663D01*
X-3819Y142682D01*
X-3727D01*
X-3662Y142672D01*
D02*
G37*
G36*
X10520Y136173D02*
X9633D01*
X7155Y142570D01*
X8080D01*
X9744Y137920D01*
Y137911D01*
X9753Y137892D01*
X9762Y137865D01*
X9781Y137828D01*
X9790Y137772D01*
X9808Y137717D01*
X9855Y137578D01*
X9910Y137421D01*
X9966Y137245D01*
X10077Y136875D01*
Y136884D01*
X10086Y136903D01*
X10095Y136931D01*
X10104Y136968D01*
X10132Y137069D01*
X10178Y137208D01*
X10225Y137365D01*
X10280Y137541D01*
X10345Y137726D01*
X10419Y137920D01*
X12157Y142570D01*
X13017D01*
X10520Y136173D01*
D02*
G37*
G36*
X45894D02*
X44932D01*
X44184Y138114D01*
X41502D01*
X40809Y136173D01*
X39912D01*
X42353Y142570D01*
X43278D01*
X45894Y136173D01*
D02*
G37*
G36*
X39293Y141812D02*
X35511D01*
Y139862D01*
X39052D01*
Y139103D01*
X35511D01*
Y136931D01*
X39441D01*
Y136173D01*
X34661D01*
Y142570D01*
X39293D01*
Y141812D01*
D02*
G37*
G36*
X31249Y142561D02*
X31332D01*
X31526Y142552D01*
X31730Y142524D01*
X31952Y142497D01*
X32155Y142450D01*
X32257Y142423D01*
X32340Y142395D01*
X32349D01*
X32359Y142386D01*
X32414Y142358D01*
X32497Y142321D01*
X32599Y142256D01*
X32710Y142173D01*
X32830Y142062D01*
X32941Y141933D01*
X33052Y141785D01*
Y141775D01*
X33061Y141766D01*
X33098Y141711D01*
X33135Y141618D01*
X33191Y141498D01*
X33237Y141359D01*
X33283Y141193D01*
X33311Y141017D01*
X33320Y140823D01*
Y140814D01*
Y140795D01*
Y140758D01*
X33311Y140712D01*
Y140647D01*
X33302Y140583D01*
X33265Y140426D01*
X33209Y140241D01*
X33135Y140047D01*
X33024Y139852D01*
X32950Y139760D01*
X32876Y139667D01*
X32867Y139658D01*
X32858Y139649D01*
X32830Y139621D01*
X32793Y139593D01*
X32747Y139557D01*
X32691Y139520D01*
X32617Y139473D01*
X32543Y139418D01*
X32451Y139372D01*
X32349Y139325D01*
X32238Y139270D01*
X32118Y139224D01*
X31979Y139187D01*
X31841Y139140D01*
X31684Y139113D01*
X31517Y139085D01*
X31536Y139076D01*
X31573Y139057D01*
X31628Y139020D01*
X31702Y138983D01*
X31869Y138882D01*
X31952Y138817D01*
X32026Y138761D01*
X32044Y138743D01*
X32090Y138697D01*
X32164Y138623D01*
X32257Y138530D01*
X32359Y138401D01*
X32479Y138262D01*
X32599Y138096D01*
X32728Y137911D01*
X33829Y136173D01*
X32775D01*
X31933Y137504D01*
Y137513D01*
X31915Y137532D01*
X31896Y137559D01*
X31869Y137596D01*
X31804Y137698D01*
X31721Y137828D01*
X31619Y137966D01*
X31517Y138114D01*
X31416Y138253D01*
X31323Y138382D01*
X31314Y138392D01*
X31286Y138428D01*
X31240Y138484D01*
X31175Y138549D01*
X31036Y138687D01*
X30962Y138752D01*
X30889Y138808D01*
X30879Y138817D01*
X30861Y138826D01*
X30824Y138845D01*
X30768Y138872D01*
X30713Y138900D01*
X30648Y138928D01*
X30500Y138974D01*
X30491D01*
X30472Y138983D01*
X30435D01*
X30389Y138993D01*
X30324Y139002D01*
X30250D01*
X30149Y139011D01*
X29058D01*
Y136173D01*
X28207D01*
Y142570D01*
X31175D01*
X31249Y142561D01*
D02*
G37*
G36*
X27514Y136173D02*
X26552D01*
X25803Y138114D01*
X23122D01*
X22429Y136173D01*
X21532D01*
X23973Y142570D01*
X24897D01*
X27514Y136173D01*
D02*
G37*
G36*
X18425Y141812D02*
X14644D01*
Y139862D01*
X18185D01*
Y139103D01*
X14644D01*
Y136931D01*
X18573D01*
Y136173D01*
X13793D01*
Y142570D01*
X18425D01*
Y141812D01*
D02*
G37*
G36*
X6323Y136173D02*
X5472D01*
Y142570D01*
X6323D01*
Y136173D01*
D02*
G37*
G36*
X4455Y141812D02*
X2347D01*
Y136173D01*
X1497D01*
Y141812D01*
X-611D01*
Y142570D01*
X4455D01*
Y141812D01*
D02*
G37*
G36*
X-7268Y136173D02*
X-8230D01*
X-8978Y138114D01*
X-11660D01*
X-12353Y136173D01*
X-13250D01*
X-10809Y142570D01*
X-9885D01*
X-7268Y136173D01*
D02*
G37*
G36*
X-7174Y17510D02*
X-7109D01*
X-6934Y17492D01*
X-6740Y17464D01*
X-6536Y17418D01*
X-6314Y17362D01*
X-6111Y17288D01*
X-6102D01*
X-6083Y17279D01*
X-6055Y17260D01*
X-6018Y17242D01*
X-5926Y17196D01*
X-5806Y17112D01*
X-5667Y17020D01*
X-5528Y16900D01*
X-5399Y16761D01*
X-5279Y16604D01*
Y16595D01*
X-5270Y16586D01*
X-5251Y16558D01*
X-5233Y16530D01*
X-5186Y16438D01*
X-5131Y16317D01*
X-5066Y16170D01*
X-5020Y15994D01*
X-4974Y15809D01*
X-4955Y15605D01*
X-5769Y15541D01*
Y15550D01*
Y15568D01*
X-5778Y15596D01*
X-5787Y15642D01*
X-5815Y15744D01*
X-5852Y15883D01*
X-5907Y16031D01*
X-5991Y16179D01*
X-6092Y16317D01*
X-6222Y16447D01*
X-6240Y16456D01*
X-6287Y16493D01*
X-6379Y16549D01*
X-6499Y16604D01*
X-6656Y16659D01*
X-6841Y16715D01*
X-7072Y16752D01*
X-7331Y16761D01*
X-7461D01*
X-7516Y16752D01*
X-7590Y16743D01*
X-7757Y16724D01*
X-7941Y16687D01*
X-8127Y16641D01*
X-8302Y16567D01*
X-8376Y16521D01*
X-8450Y16475D01*
X-8468Y16465D01*
X-8505Y16428D01*
X-8561Y16364D01*
X-8616Y16290D01*
X-8681Y16188D01*
X-8737Y16077D01*
X-8774Y15948D01*
X-8792Y15800D01*
Y15781D01*
Y15744D01*
X-8783Y15679D01*
X-8764Y15605D01*
X-8737Y15513D01*
X-8690Y15421D01*
X-8635Y15328D01*
X-8552Y15236D01*
X-8543Y15226D01*
X-8496Y15199D01*
X-8459Y15171D01*
X-8422Y15152D01*
X-8367Y15125D01*
X-8302Y15088D01*
X-8219Y15060D01*
X-8127Y15023D01*
X-8025Y14986D01*
X-7905Y14940D01*
X-7775Y14903D01*
X-7627Y14857D01*
X-7461Y14820D01*
X-7276Y14773D01*
X-7267D01*
X-7230Y14764D01*
X-7174Y14755D01*
X-7109Y14736D01*
X-7026Y14718D01*
X-6924Y14690D01*
X-6823Y14662D01*
X-6712Y14635D01*
X-6471Y14570D01*
X-6240Y14505D01*
X-6129Y14468D01*
X-6028Y14431D01*
X-5935Y14404D01*
X-5861Y14367D01*
X-5852D01*
X-5834Y14357D01*
X-5806Y14339D01*
X-5769Y14320D01*
X-5667Y14265D01*
X-5547Y14191D01*
X-5408Y14089D01*
X-5270Y13978D01*
X-5140Y13849D01*
X-5029Y13710D01*
X-5020Y13692D01*
X-4983Y13645D01*
X-4946Y13562D01*
X-4891Y13451D01*
X-4844Y13322D01*
X-4798Y13165D01*
X-4770Y12989D01*
X-4761Y12804D01*
Y12795D01*
Y12786D01*
Y12758D01*
Y12721D01*
X-4780Y12619D01*
X-4798Y12490D01*
X-4835Y12342D01*
X-4881Y12185D01*
X-4955Y12018D01*
X-5057Y11842D01*
Y11833D01*
X-5066Y11824D01*
X-5112Y11769D01*
X-5177Y11685D01*
X-5270Y11593D01*
X-5390Y11482D01*
X-5538Y11362D01*
X-5704Y11251D01*
X-5898Y11149D01*
X-5907D01*
X-5926Y11140D01*
X-5954Y11131D01*
X-5991Y11112D01*
X-6046Y11094D01*
X-6111Y11066D01*
X-6259Y11029D01*
X-6435Y10983D01*
X-6647Y10936D01*
X-6878Y10909D01*
X-7128Y10899D01*
X-7276D01*
X-7350Y10909D01*
X-7433D01*
X-7526Y10918D01*
X-7636Y10927D01*
X-7868Y10964D01*
X-8108Y11001D01*
X-8348Y11066D01*
X-8579Y11149D01*
X-8589D01*
X-8607Y11158D01*
X-8635Y11177D01*
X-8672Y11195D01*
X-8783Y11251D01*
X-8912Y11334D01*
X-9060Y11445D01*
X-9217Y11574D01*
X-9365Y11732D01*
X-9504Y11907D01*
Y11917D01*
X-9523Y11935D01*
X-9532Y11963D01*
X-9560Y12000D01*
X-9578Y12046D01*
X-9606Y12101D01*
X-9671Y12240D01*
X-9735Y12416D01*
X-9791Y12610D01*
X-9828Y12832D01*
X-9846Y13063D01*
X-9051Y13137D01*
Y13128D01*
Y13118D01*
X-9042Y13091D01*
Y13054D01*
X-9023Y12970D01*
X-8996Y12850D01*
X-8959Y12730D01*
X-8922Y12591D01*
X-8857Y12462D01*
X-8792Y12342D01*
X-8783Y12333D01*
X-8755Y12296D01*
X-8709Y12231D01*
X-8635Y12166D01*
X-8543Y12083D01*
X-8441Y12000D01*
X-8302Y11917D01*
X-8154Y11842D01*
X-8145D01*
X-8136Y11833D01*
X-8108Y11824D01*
X-8080Y11815D01*
X-7988Y11787D01*
X-7868Y11750D01*
X-7720Y11713D01*
X-7553Y11685D01*
X-7368Y11667D01*
X-7165Y11658D01*
X-7082D01*
X-6989Y11667D01*
X-6878Y11676D01*
X-6749Y11695D01*
X-6601Y11713D01*
X-6453Y11750D01*
X-6314Y11796D01*
X-6296Y11805D01*
X-6250Y11824D01*
X-6185Y11861D01*
X-6102Y11898D01*
X-6018Y11963D01*
X-5926Y12027D01*
X-5834Y12101D01*
X-5760Y12194D01*
X-5750Y12203D01*
X-5732Y12240D01*
X-5704Y12286D01*
X-5667Y12360D01*
X-5630Y12434D01*
X-5602Y12527D01*
X-5584Y12628D01*
X-5575Y12739D01*
Y12749D01*
Y12795D01*
X-5584Y12850D01*
X-5593Y12924D01*
X-5621Y12998D01*
X-5649Y13091D01*
X-5695Y13183D01*
X-5760Y13266D01*
X-5769Y13276D01*
X-5797Y13303D01*
X-5834Y13340D01*
X-5898Y13396D01*
X-5972Y13451D01*
X-6074Y13516D01*
X-6194Y13581D01*
X-6333Y13636D01*
X-6342Y13645D01*
X-6388Y13655D01*
X-6462Y13682D01*
X-6508Y13692D01*
X-6573Y13710D01*
X-6638Y13738D01*
X-6721Y13756D01*
X-6814Y13784D01*
X-6924Y13812D01*
X-7035Y13840D01*
X-7165Y13877D01*
X-7313Y13914D01*
X-7470Y13951D01*
X-7479D01*
X-7507Y13960D01*
X-7553Y13969D01*
X-7609Y13987D01*
X-7683Y14006D01*
X-7766Y14024D01*
X-7951Y14080D01*
X-8154Y14145D01*
X-8367Y14209D01*
X-8552Y14274D01*
X-8635Y14311D01*
X-8709Y14348D01*
X-8718D01*
X-8727Y14357D01*
X-8783Y14394D01*
X-8866Y14440D01*
X-8959Y14514D01*
X-9069Y14598D01*
X-9180Y14699D01*
X-9291Y14820D01*
X-9384Y14949D01*
X-9393Y14967D01*
X-9421Y15014D01*
X-9458Y15088D01*
X-9495Y15180D01*
X-9532Y15300D01*
X-9569Y15439D01*
X-9596Y15587D01*
X-9606Y15744D01*
Y15753D01*
Y15763D01*
Y15790D01*
Y15827D01*
X-9587Y15920D01*
X-9569Y16040D01*
X-9541Y16179D01*
X-9495Y16336D01*
X-9430Y16493D01*
X-9338Y16650D01*
Y16659D01*
X-9328Y16669D01*
X-9282Y16724D01*
X-9217Y16798D01*
X-9134Y16891D01*
X-9023Y16992D01*
X-8885Y17103D01*
X-8718Y17205D01*
X-8533Y17297D01*
X-8524D01*
X-8505Y17307D01*
X-8478Y17316D01*
X-8441Y17334D01*
X-8395Y17353D01*
X-8330Y17371D01*
X-8191Y17408D01*
X-8015Y17445D01*
X-7812Y17482D01*
X-7599Y17510D01*
X-7359Y17519D01*
X-7239D01*
X-7174Y17510D01*
D02*
G37*
G36*
X15949Y13719D02*
Y11010D01*
X15099D01*
Y13719D01*
X12630Y17408D01*
X13656D01*
X14914Y15467D01*
Y15458D01*
X14932Y15439D01*
X14951Y15411D01*
X14969Y15374D01*
X15006Y15328D01*
X15043Y15273D01*
X15126Y15134D01*
X15228Y14967D01*
X15339Y14783D01*
X15459Y14589D01*
X15570Y14385D01*
Y14394D01*
X15579Y14413D01*
X15598Y14440D01*
X15625Y14477D01*
X15653Y14524D01*
X15690Y14579D01*
X15773Y14718D01*
X15875Y14884D01*
X15995Y15079D01*
X16134Y15291D01*
X16282Y15522D01*
X17512Y17408D01*
X18501D01*
X15949Y13719D01*
D02*
G37*
G36*
X12621Y11010D02*
X11659D01*
X10910Y12952D01*
X8229D01*
X7536Y11010D01*
X6639D01*
X9080Y17408D01*
X10004D01*
X12621Y11010D01*
D02*
G37*
G36*
X3181Y11769D02*
X6334D01*
Y11010D01*
X2330D01*
Y17408D01*
X3181D01*
Y11769D01*
D02*
G37*
G36*
X-832Y17399D02*
X-675Y17390D01*
X-508Y17381D01*
X-351Y17362D01*
X-212Y17344D01*
X-194D01*
X-129Y17325D01*
X-46Y17307D01*
X65Y17279D01*
X185Y17233D01*
X315Y17177D01*
X454Y17112D01*
X574Y17039D01*
X592Y17029D01*
X629Y17002D01*
X685Y16946D01*
X759Y16881D01*
X842Y16798D01*
X925Y16687D01*
X1017Y16567D01*
X1091Y16428D01*
X1101Y16410D01*
X1119Y16364D01*
X1156Y16280D01*
X1193Y16170D01*
X1221Y16040D01*
X1258Y15892D01*
X1276Y15726D01*
X1286Y15550D01*
Y15541D01*
Y15513D01*
Y15476D01*
X1276Y15411D01*
X1267Y15347D01*
X1258Y15263D01*
X1239Y15171D01*
X1221Y15069D01*
X1156Y14857D01*
X1119Y14746D01*
X1064Y14625D01*
X999Y14505D01*
X934Y14394D01*
X851Y14283D01*
X759Y14172D01*
X749Y14163D01*
X731Y14145D01*
X703Y14117D01*
X657Y14089D01*
X601Y14043D01*
X527Y13997D01*
X435Y13941D01*
X333Y13895D01*
X213Y13840D01*
X74Y13784D01*
X-74Y13738D01*
X-249Y13701D01*
X-434Y13664D01*
X-637Y13636D01*
X-869Y13618D01*
X-1109Y13608D01*
X-2745D01*
Y11010D01*
X-3596D01*
Y17408D01*
X-970D01*
X-832Y17399D01*
D02*
G37*
G36*
X-11057Y11010D02*
X-11908D01*
Y17408D01*
X-11057D01*
Y11010D01*
D02*
G37*
G36*
X-15874Y17399D02*
X-15689Y17390D01*
X-15504Y17371D01*
X-15319Y17344D01*
X-15162Y17316D01*
X-15153D01*
X-15135Y17307D01*
X-15107D01*
X-15070Y17288D01*
X-14968Y17260D01*
X-14839Y17214D01*
X-14691Y17149D01*
X-14534Y17066D01*
X-14376Y16974D01*
X-14229Y16854D01*
X-14219Y16844D01*
X-14210Y16835D01*
X-14182Y16807D01*
X-14145Y16780D01*
X-14053Y16687D01*
X-13942Y16558D01*
X-13822Y16401D01*
X-13692Y16216D01*
X-13572Y16003D01*
X-13470Y15763D01*
Y15753D01*
X-13461Y15735D01*
X-13443Y15698D01*
X-13433Y15642D01*
X-13406Y15578D01*
X-13387Y15504D01*
X-13369Y15421D01*
X-13341Y15319D01*
X-13313Y15217D01*
X-13295Y15097D01*
X-13248Y14838D01*
X-13221Y14552D01*
X-13211Y14237D01*
Y14228D01*
Y14209D01*
Y14163D01*
Y14117D01*
X-13221Y14052D01*
Y13978D01*
X-13230Y13803D01*
X-13258Y13599D01*
X-13285Y13386D01*
X-13332Y13165D01*
X-13387Y12943D01*
Y12933D01*
X-13396Y12915D01*
X-13406Y12887D01*
X-13415Y12850D01*
X-13452Y12749D01*
X-13507Y12619D01*
X-13563Y12471D01*
X-13637Y12323D01*
X-13729Y12166D01*
X-13822Y12018D01*
X-13831Y12000D01*
X-13868Y11954D01*
X-13923Y11889D01*
X-13997Y11805D01*
X-14081Y11713D01*
X-14182Y11621D01*
X-14284Y11519D01*
X-14404Y11436D01*
X-14423Y11427D01*
X-14460Y11399D01*
X-14524Y11362D01*
X-14617Y11315D01*
X-14728Y11260D01*
X-14857Y11214D01*
X-15005Y11158D01*
X-15172Y11112D01*
X-15190D01*
X-15218Y11103D01*
X-15246Y11094D01*
X-15338Y11084D01*
X-15467Y11066D01*
X-15615Y11047D01*
X-15791Y11029D01*
X-15985Y11020D01*
X-16198Y11010D01*
X-18500D01*
Y17408D01*
X-16041D01*
X-15874Y17399D01*
D02*
G37*
G36*
X-15329Y9611D02*
X-15246Y9601D01*
X-15144Y9592D01*
X-15042Y9583D01*
X-14922Y9555D01*
X-14672Y9500D01*
X-14395Y9416D01*
X-14256Y9361D01*
X-14127Y9296D01*
X-13997Y9213D01*
X-13868Y9130D01*
X-13859Y9121D01*
X-13840Y9111D01*
X-13803Y9084D01*
X-13757Y9037D01*
X-13711Y8991D01*
X-13646Y8926D01*
X-13581Y8852D01*
X-13507Y8778D01*
X-13433Y8686D01*
X-13360Y8575D01*
X-13276Y8464D01*
X-13202Y8344D01*
X-13138Y8205D01*
X-13064Y8067D01*
X-13008Y7919D01*
X-12953Y7752D01*
X-13785Y7558D01*
Y7567D01*
X-13794Y7586D01*
X-13813Y7623D01*
X-13831Y7669D01*
X-13850Y7724D01*
X-13877Y7799D01*
X-13951Y7946D01*
X-14044Y8113D01*
X-14155Y8279D01*
X-14293Y8436D01*
X-14441Y8575D01*
X-14460Y8594D01*
X-14515Y8631D01*
X-14608Y8677D01*
X-14728Y8741D01*
X-14885Y8797D01*
X-15061Y8852D01*
X-15273Y8889D01*
X-15504Y8899D01*
X-15578D01*
X-15625Y8889D01*
X-15689D01*
X-15763Y8880D01*
X-15939Y8852D01*
X-16133Y8816D01*
X-16336Y8751D01*
X-16549Y8658D01*
X-16743Y8538D01*
X-16753D01*
X-16762Y8520D01*
X-16827Y8473D01*
X-16910Y8399D01*
X-17011Y8288D01*
X-17132Y8150D01*
X-17243Y7993D01*
X-17344Y7799D01*
X-17437Y7586D01*
Y7577D01*
X-17446Y7558D01*
X-17455Y7530D01*
X-17464Y7484D01*
X-17483Y7429D01*
X-17501Y7364D01*
X-17529Y7207D01*
X-17566Y7022D01*
X-17603Y6819D01*
X-17622Y6597D01*
X-17631Y6356D01*
Y6347D01*
Y6319D01*
Y6273D01*
Y6217D01*
X-17622Y6153D01*
Y6070D01*
X-17612Y5977D01*
X-17603Y5875D01*
X-17576Y5653D01*
X-17529Y5413D01*
X-17474Y5173D01*
X-17400Y4932D01*
Y4923D01*
X-17391Y4905D01*
X-17372Y4877D01*
X-17354Y4831D01*
X-17298Y4720D01*
X-17215Y4590D01*
X-17113Y4442D01*
X-16984Y4285D01*
X-16836Y4146D01*
X-16660Y4017D01*
X-16651D01*
X-16632Y4008D01*
X-16605Y3989D01*
X-16568Y3971D01*
X-16522Y3952D01*
X-16466Y3925D01*
X-16336Y3869D01*
X-16170Y3814D01*
X-15985Y3767D01*
X-15782Y3730D01*
X-15569Y3721D01*
X-15504D01*
X-15449Y3730D01*
X-15384D01*
X-15319Y3740D01*
X-15153Y3777D01*
X-14959Y3823D01*
X-14765Y3897D01*
X-14561Y3999D01*
X-14460Y4054D01*
X-14367Y4128D01*
X-14358Y4137D01*
X-14349Y4146D01*
X-14321Y4174D01*
X-14284Y4202D01*
X-14247Y4248D01*
X-14201Y4304D01*
X-14145Y4359D01*
X-14099Y4433D01*
X-14044Y4516D01*
X-13979Y4609D01*
X-13923Y4701D01*
X-13868Y4812D01*
X-13822Y4932D01*
X-13776Y5062D01*
X-13729Y5200D01*
X-13692Y5348D01*
X-12842Y5136D01*
Y5127D01*
X-12851Y5089D01*
X-12869Y5034D01*
X-12897Y4960D01*
X-12925Y4877D01*
X-12962Y4775D01*
X-13008Y4664D01*
X-13064Y4544D01*
X-13193Y4285D01*
X-13360Y4026D01*
X-13461Y3897D01*
X-13563Y3767D01*
X-13674Y3656D01*
X-13803Y3546D01*
X-13813Y3536D01*
X-13831Y3518D01*
X-13877Y3499D01*
X-13923Y3462D01*
X-13997Y3416D01*
X-14071Y3370D01*
X-14173Y3324D01*
X-14275Y3277D01*
X-14395Y3222D01*
X-14524Y3176D01*
X-14663Y3129D01*
X-14811Y3083D01*
X-14968Y3046D01*
X-15135Y3028D01*
X-15310Y3009D01*
X-15495Y3000D01*
X-15597D01*
X-15671Y3009D01*
X-15754D01*
X-15856Y3018D01*
X-15967Y3037D01*
X-16096Y3056D01*
X-16364Y3102D01*
X-16642Y3176D01*
X-16919Y3277D01*
X-17048Y3342D01*
X-17178Y3416D01*
X-17187Y3425D01*
X-17206Y3435D01*
X-17243Y3462D01*
X-17280Y3499D01*
X-17335Y3536D01*
X-17400Y3592D01*
X-17474Y3656D01*
X-17548Y3730D01*
X-17622Y3814D01*
X-17705Y3897D01*
X-17871Y4110D01*
X-18029Y4359D01*
X-18167Y4636D01*
Y4646D01*
X-18186Y4674D01*
X-18195Y4720D01*
X-18223Y4775D01*
X-18241Y4849D01*
X-18269Y4942D01*
X-18306Y5043D01*
X-18334Y5154D01*
X-18361Y5274D01*
X-18398Y5413D01*
X-18444Y5700D01*
X-18482Y6023D01*
X-18500Y6356D01*
Y6365D01*
Y6402D01*
Y6458D01*
X-18491Y6523D01*
Y6615D01*
X-18482Y6708D01*
X-18472Y6828D01*
X-18454Y6948D01*
X-18408Y7216D01*
X-18343Y7512D01*
X-18250Y7808D01*
X-18121Y8094D01*
X-18112Y8104D01*
X-18103Y8131D01*
X-18084Y8168D01*
X-18047Y8214D01*
X-18010Y8279D01*
X-17964Y8353D01*
X-17844Y8520D01*
X-17686Y8705D01*
X-17501Y8889D01*
X-17289Y9074D01*
X-17039Y9232D01*
X-17030Y9241D01*
X-17002Y9250D01*
X-16965Y9269D01*
X-16919Y9296D01*
X-16845Y9324D01*
X-16771Y9352D01*
X-16679Y9389D01*
X-16577Y9426D01*
X-16466Y9463D01*
X-16346Y9500D01*
X-16087Y9555D01*
X-15791Y9601D01*
X-15486Y9620D01*
X-15394D01*
X-15329Y9611D01*
D02*
G37*
G36*
X-804Y3111D02*
X-1682D01*
X-5029Y8131D01*
Y3111D01*
X-5843D01*
Y9509D01*
X-4974D01*
X-1618Y4479D01*
Y9509D01*
X-804D01*
Y3111D01*
D02*
G37*
G36*
X15099Y9500D02*
X15182D01*
X15376Y9490D01*
X15579Y9463D01*
X15801Y9435D01*
X16005Y9389D01*
X16106Y9361D01*
X16190Y9333D01*
X16199D01*
X16208Y9324D01*
X16263Y9296D01*
X16347Y9259D01*
X16448Y9195D01*
X16559Y9111D01*
X16680Y9000D01*
X16790Y8871D01*
X16901Y8723D01*
Y8714D01*
X16911Y8705D01*
X16948Y8649D01*
X16985Y8557D01*
X17040Y8436D01*
X17086Y8298D01*
X17133Y8131D01*
X17160Y7956D01*
X17170Y7761D01*
Y7752D01*
Y7734D01*
Y7697D01*
X17160Y7651D01*
Y7586D01*
X17151Y7521D01*
X17114Y7364D01*
X17059Y7179D01*
X16985Y6985D01*
X16874Y6791D01*
X16800Y6698D01*
X16726Y6606D01*
X16717Y6597D01*
X16707Y6587D01*
X16680Y6560D01*
X16643Y6532D01*
X16596Y6495D01*
X16541Y6458D01*
X16467Y6412D01*
X16393Y6356D01*
X16300Y6310D01*
X16199Y6264D01*
X16088Y6208D01*
X15968Y6162D01*
X15829Y6125D01*
X15690Y6079D01*
X15533Y6051D01*
X15367Y6023D01*
X15385Y6014D01*
X15422Y5996D01*
X15478Y5959D01*
X15552Y5922D01*
X15718Y5820D01*
X15801Y5755D01*
X15875Y5700D01*
X15894Y5681D01*
X15940Y5635D01*
X16014Y5561D01*
X16106Y5469D01*
X16208Y5339D01*
X16328Y5200D01*
X16448Y5034D01*
X16578Y4849D01*
X17678Y3111D01*
X16624D01*
X15783Y4442D01*
Y4452D01*
X15764Y4470D01*
X15746Y4498D01*
X15718Y4535D01*
X15653Y4636D01*
X15570Y4766D01*
X15468Y4905D01*
X15367Y5052D01*
X15265Y5191D01*
X15172Y5321D01*
X15163Y5330D01*
X15136Y5367D01*
X15089Y5422D01*
X15024Y5487D01*
X14886Y5626D01*
X14812Y5691D01*
X14738Y5746D01*
X14729Y5755D01*
X14710Y5764D01*
X14673Y5783D01*
X14618Y5811D01*
X14562Y5838D01*
X14497Y5866D01*
X14350Y5912D01*
X14340D01*
X14322Y5922D01*
X14285D01*
X14239Y5931D01*
X14174Y5940D01*
X14100D01*
X13998Y5949D01*
X12907D01*
Y3111D01*
X12057D01*
Y9509D01*
X15024D01*
X15099Y9500D01*
D02*
G37*
G36*
X10725Y8751D02*
X6944D01*
Y6800D01*
X10485D01*
Y6042D01*
X6944D01*
Y3869D01*
X10873D01*
Y3111D01*
X6093D01*
Y9509D01*
X10725D01*
Y8751D01*
D02*
G37*
G36*
X5206D02*
X3098D01*
Y3111D01*
X2247D01*
Y8751D01*
X139D01*
Y9509D01*
X5206D01*
Y8751D01*
D02*
G37*
G36*
X-7156D02*
X-10937D01*
Y6800D01*
X-7396D01*
Y6042D01*
X-10937D01*
Y3869D01*
X-7008D01*
Y3111D01*
X-11788D01*
Y9509D01*
X-7156D01*
Y8751D01*
D02*
G37*
%LPC*%
G36*
X42797Y141905D02*
Y141896D01*
X42788Y141877D01*
Y141840D01*
X42769Y141803D01*
X42760Y141738D01*
X42741Y141674D01*
X42704Y141517D01*
X42658Y141332D01*
X42593Y141128D01*
X42529Y140906D01*
X42446Y140675D01*
X41752Y138808D01*
X43916D01*
X43250Y140564D01*
Y140574D01*
X43241Y140601D01*
X43222Y140647D01*
X43204Y140703D01*
X43176Y140768D01*
X43148Y140851D01*
X43120Y140943D01*
X43083Y141036D01*
X43010Y141248D01*
X42936Y141470D01*
X42861Y141692D01*
X42797Y141905D01*
D02*
G37*
G36*
X31073Y141859D02*
X29058D01*
Y139741D01*
X30962D01*
X31073Y139751D01*
X31203Y139760D01*
X31351Y139769D01*
X31499Y139788D01*
X31647Y139815D01*
X31776Y139852D01*
X31795Y139862D01*
X31832Y139880D01*
X31887Y139908D01*
X31961Y139945D01*
X32044Y140000D01*
X32127Y140065D01*
X32211Y140148D01*
X32275Y140241D01*
X32285Y140250D01*
X32303Y140287D01*
X32331Y140342D01*
X32368Y140416D01*
X32396Y140499D01*
X32423Y140592D01*
X32442Y140703D01*
X32451Y140814D01*
Y140823D01*
Y140832D01*
X32442Y140888D01*
X32432Y140971D01*
X32414Y141082D01*
X32368Y141193D01*
X32312Y141322D01*
X32229Y141443D01*
X32118Y141563D01*
X32100Y141572D01*
X32053Y141609D01*
X31979Y141655D01*
X31859Y141711D01*
X31721Y141766D01*
X31536Y141812D01*
X31323Y141849D01*
X31073Y141859D01*
D02*
G37*
G36*
X24417Y141905D02*
Y141896D01*
X24407Y141877D01*
Y141840D01*
X24389Y141803D01*
X24380Y141738D01*
X24361Y141674D01*
X24324Y141517D01*
X24278Y141332D01*
X24213Y141128D01*
X24148Y140906D01*
X24065Y140675D01*
X23372Y138808D01*
X25535D01*
X24870Y140564D01*
Y140574D01*
X24860Y140601D01*
X24842Y140647D01*
X24823Y140703D01*
X24796Y140768D01*
X24768Y140851D01*
X24740Y140943D01*
X24703Y141036D01*
X24629Y141248D01*
X24555Y141470D01*
X24481Y141692D01*
X24417Y141905D01*
D02*
G37*
G36*
X-10365D02*
Y141896D01*
X-10375Y141877D01*
Y141840D01*
X-10393Y141803D01*
X-10402Y141738D01*
X-10421Y141674D01*
X-10458Y141517D01*
X-10504Y141332D01*
X-10569Y141128D01*
X-10633Y140906D01*
X-10717Y140675D01*
X-11410Y138808D01*
X-9247D01*
X-9912Y140564D01*
Y140574D01*
X-9922Y140601D01*
X-9940Y140647D01*
X-9959Y140703D01*
X-9986Y140768D01*
X-10014Y140851D01*
X-10042Y140943D01*
X-10079Y141036D01*
X-10153Y141248D01*
X-10227Y141470D01*
X-10301Y141692D01*
X-10365Y141905D01*
D02*
G37*
G36*
X9523Y16743D02*
Y16733D01*
X9514Y16715D01*
Y16678D01*
X9496Y16641D01*
X9486Y16576D01*
X9468Y16511D01*
X9431Y16354D01*
X9385Y16170D01*
X9320Y15966D01*
X9255Y15744D01*
X9172Y15513D01*
X8479Y13645D01*
X10642D01*
X9976Y15402D01*
Y15411D01*
X9967Y15439D01*
X9949Y15485D01*
X9930Y15541D01*
X9902Y15605D01*
X9875Y15689D01*
X9847Y15781D01*
X9810Y15874D01*
X9736Y16086D01*
X9662Y16308D01*
X9588Y16530D01*
X9523Y16743D01*
D02*
G37*
G36*
X-915Y16650D02*
X-2745D01*
Y14367D01*
X-1026D01*
X-961Y14376D01*
X-896D01*
X-822Y14385D01*
X-647Y14404D01*
X-453Y14440D01*
X-258Y14496D01*
X-83Y14570D01*
X0Y14616D01*
X65Y14672D01*
X84Y14690D01*
X121Y14727D01*
X176Y14801D01*
X241Y14894D01*
X305Y15014D01*
X361Y15162D01*
X398Y15328D01*
X417Y15522D01*
Y15532D01*
Y15541D01*
Y15587D01*
X407Y15670D01*
X389Y15763D01*
X370Y15864D01*
X333Y15985D01*
X278Y16095D01*
X213Y16206D01*
X204Y16216D01*
X176Y16253D01*
X130Y16299D01*
X74Y16364D01*
X-9Y16428D01*
X-101Y16484D01*
X-203Y16539D01*
X-323Y16586D01*
X-332D01*
X-369Y16595D01*
X-425Y16604D01*
X-499Y16623D01*
X-610Y16632D01*
X-749Y16641D01*
X-915Y16650D01*
D02*
G37*
G36*
X-16170D02*
X-17649D01*
Y11769D01*
X-16133D01*
X-16068Y11778D01*
X-15930Y11787D01*
X-15773Y11796D01*
X-15606Y11815D01*
X-15440Y11842D01*
X-15301Y11880D01*
X-15282Y11889D01*
X-15236Y11898D01*
X-15172Y11926D01*
X-15088Y11963D01*
X-14996Y12018D01*
X-14904Y12074D01*
X-14811Y12138D01*
X-14719Y12212D01*
X-14709Y12231D01*
X-14672Y12268D01*
X-14617Y12333D01*
X-14552Y12425D01*
X-14478Y12545D01*
X-14395Y12684D01*
X-14321Y12841D01*
X-14256Y13017D01*
Y13026D01*
X-14247Y13044D01*
X-14238Y13072D01*
X-14229Y13109D01*
X-14219Y13155D01*
X-14201Y13220D01*
X-14182Y13285D01*
X-14164Y13359D01*
X-14136Y13544D01*
X-14108Y13756D01*
X-14090Y13997D01*
X-14081Y14256D01*
Y14265D01*
Y14302D01*
Y14348D01*
X-14090Y14422D01*
Y14505D01*
X-14099Y14598D01*
X-14108Y14709D01*
X-14118Y14820D01*
X-14164Y15069D01*
X-14219Y15328D01*
X-14303Y15568D01*
X-14358Y15689D01*
X-14413Y15790D01*
Y15800D01*
X-14432Y15818D01*
X-14450Y15846D01*
X-14469Y15883D01*
X-14543Y15975D01*
X-14635Y16086D01*
X-14756Y16206D01*
X-14894Y16327D01*
X-15051Y16428D01*
X-15218Y16511D01*
X-15236Y16521D01*
X-15282Y16530D01*
X-15366Y16558D01*
X-15486Y16586D01*
X-15634Y16604D01*
X-15819Y16632D01*
X-15930Y16641D01*
X-16050D01*
X-16170Y16650D01*
D02*
G37*
G36*
X14923Y8797D02*
X12907D01*
Y6680D01*
X14812D01*
X14923Y6689D01*
X15052Y6698D01*
X15200Y6708D01*
X15348Y6726D01*
X15496Y6754D01*
X15625Y6791D01*
X15644Y6800D01*
X15681Y6819D01*
X15736Y6846D01*
X15810Y6883D01*
X15894Y6939D01*
X15977Y7003D01*
X16060Y7087D01*
X16125Y7179D01*
X16134Y7188D01*
X16152Y7225D01*
X16180Y7281D01*
X16217Y7355D01*
X16245Y7438D01*
X16273Y7530D01*
X16291Y7641D01*
X16300Y7752D01*
Y7761D01*
Y7771D01*
X16291Y7826D01*
X16282Y7909D01*
X16263Y8020D01*
X16217Y8131D01*
X16162Y8261D01*
X16078Y8381D01*
X15968Y8501D01*
X15949Y8510D01*
X15903Y8547D01*
X15829Y8594D01*
X15709Y8649D01*
X15570Y8705D01*
X15385Y8751D01*
X15172Y8788D01*
X14923Y8797D01*
D02*
G37*
%LPD*%
D10*
X2372Y0D02*
G03*
X2372Y0I-2372J0D01*
G01*
X161700D02*
G03*
X161700Y0I-161700J0D01*
G01*
D147*
X-68750Y150000D02*
G03*
X-68750Y-150000I68750J-150000D01*
G01*
X68750D02*
G03*
X68750Y150000I-68750J150000D01*
G01*
X-68748Y-150004D02*
X68746D01*
X-68748Y149996D02*
X68746D01*
M02*
