G04*
G04 #@! TF.GenerationSoftware,Altium Limited,Altium Designer,20.1.7 (139)*
G04*
G04 Layer_Color=32768*
%FSLAX44Y44*%
%MOMM*%
G71*
G04*
G04 #@! TF.SameCoordinates,99CDB543-8891-4245-8F14-29871282C811*
G04*
G04*
G04 #@! TF.FilePolarity,Positive*
G04*
G01*
G75*
%ADD10C,0.1000*%
%ADD148C,0.0500*%
D10*
X-28750Y-24850D02*
Y-19650D01*
X-31350Y-22250D02*
X-26150D01*
X-82000Y-23000D02*
X-76000D01*
X-79000Y-26000D02*
Y-20000D01*
X-83000Y-31750D02*
Y-14250D01*
X-75000Y-31750D02*
Y-14250D01*
X-83000Y-31750D02*
X-75000D01*
X-83000Y-14250D02*
X-75000D01*
X-70000Y-22750D02*
X-64000D01*
X-67000Y-25750D02*
Y-19750D01*
X-63000Y-14000D02*
X-63000Y-31500D01*
X-71000D02*
Y-14000D01*
X-63000D01*
X-71000Y-31500D02*
X-63000D01*
X-113500Y20750D02*
X-105500D01*
X-113500Y38250D02*
X-105500D01*
X-113500Y20750D02*
Y38250D01*
X-105500Y20750D02*
Y38250D01*
X-109500Y26500D02*
Y32500D01*
X-112500Y29500D02*
X-106500D01*
X-107250Y-20000D02*
Y-12000D01*
X-89750Y-20000D02*
Y-12000D01*
X-107250D02*
X-89750D01*
X-107250Y-20000D02*
X-89750D01*
X-101500Y-16000D02*
X-95500D01*
X-98500Y-19000D02*
Y-13000D01*
X-119500Y-4500D02*
X-111500D01*
X-119500Y13000D02*
X-111500D01*
X-119500Y-4500D02*
Y13000D01*
X-111500Y-4500D02*
Y13000D01*
X-115500Y1250D02*
Y7250D01*
X-118500Y4250D02*
X-112500D01*
X-84964Y101330D02*
X-78536Y93670D01*
X-85580Y94286D02*
X-77920Y100714D01*
X-100000Y29500D02*
X-94000D01*
X-97000Y26500D02*
Y32500D01*
X-101000Y20750D02*
Y38250D01*
X-93000Y20750D02*
Y38250D01*
X-101000Y20750D02*
X-93000D01*
X-101000Y38250D02*
X-93000D01*
X-43350Y-22250D02*
X-38150D01*
X-40750Y-24850D02*
Y-19650D01*
X-20338Y71912D02*
X-16661Y75588D01*
X-20338D02*
X-16661Y71912D01*
X9025Y109124D02*
X16096Y102053D01*
X9025D02*
X16096Y109124D01*
X26273Y96200D02*
X29950Y92523D01*
X26273Y92523D02*
X29950Y96200D01*
X-3838Y88412D02*
X-161Y92088D01*
X-3838D02*
X-161Y88412D01*
X34662Y87838D02*
X38338Y84162D01*
X34662Y84162D02*
X38338Y87838D01*
X43050Y79477D02*
X46727Y75800D01*
X43050Y75800D02*
X46727Y79477D01*
X9910Y34060D02*
X16981Y26989D01*
X9910D02*
X16981Y34060D01*
X13446Y-20387D02*
X64358Y30524D01*
X-37466D02*
X13446Y81436D01*
X64358Y30524D01*
X-37466D02*
X13446Y-20387D01*
X72098Y70958D02*
X76341Y75201D01*
X72098Y75200D02*
X76341Y70958D01*
X64490Y61510D02*
X68733Y57267D01*
X64490Y57267D02*
X68733Y61510D01*
X50662Y65161D02*
X54338Y68839D01*
X50662D02*
X54338Y65161D01*
X-12200Y80273D02*
X-8523Y83950D01*
X-12200D02*
X-8523Y80273D01*
X-137580Y43794D02*
X-127920Y41206D01*
X-134044Y37670D02*
X-131456Y47330D01*
X-147011Y21673D02*
X-141989Y20327D01*
X-145173Y18489D02*
X-143827Y23511D01*
X-128212Y64344D02*
X-126788Y69656D01*
X-130156Y67712D02*
X-124844Y66288D01*
X-140756Y64858D02*
X-117091Y58517D01*
X-137909Y75483D02*
X-114244Y69142D01*
X-117091Y58517D02*
X-114244Y69142D01*
X-140756Y64858D02*
X-137909Y75483D01*
X-127000Y-36000D02*
Y-25000D01*
X-102500Y-36000D02*
Y-25000D01*
X-127000D02*
X-102500D01*
X-127000Y-36000D02*
X-102500D01*
X-117500Y-30500D02*
X-112000D01*
X-114750Y-33250D02*
Y-27750D01*
X-125750Y-81500D02*
X-114750D01*
X-125750Y-106000D02*
X-114750D01*
Y-81500D01*
X-125750Y-106000D02*
Y-81500D01*
X-120250Y-96500D02*
Y-91000D01*
X-123000Y-93750D02*
X-117500D01*
X-106530Y-82000D02*
X-71000D01*
X-106530Y-122500D02*
Y-82000D01*
Y-122500D02*
X-71000D01*
Y-82000D01*
X-71100Y-97150D02*
X-65900D01*
X-68500Y-99750D02*
Y-94550D01*
X-113750Y-115000D02*
X-102750D01*
X-113750Y-90500D02*
X-102750D01*
X-113750Y-115000D02*
Y-90500D01*
X-102750Y-115000D02*
Y-90500D01*
X-108250Y-105500D02*
Y-100000D01*
X-111000Y-102750D02*
X-105500D01*
X-91350Y-123000D02*
X-86150D01*
X-88750Y-125600D02*
Y-120400D01*
X-64250Y-62750D02*
Y-51750D01*
X-88750D02*
X-88750Y-62750D01*
X-64250D01*
X-88750Y-51750D02*
X-64250D01*
X-79250Y-57250D02*
X-73750D01*
X-76500Y-60000D02*
Y-54500D01*
X104509Y-74880D02*
X107491Y-70620D01*
X103870Y-71259D02*
X108130Y-74241D01*
X91161Y-92838D02*
X94838Y-89162D01*
X91161Y-89162D02*
X94838Y-92838D01*
X99577Y-101032D02*
X103254Y-97355D01*
X99577D02*
X103254Y-101032D01*
X107827Y-109532D02*
X111504Y-105855D01*
X107827Y-105855D02*
X111503Y-109532D01*
X-38850Y-135250D02*
X-33650D01*
X-36250Y-132650D02*
X-36250Y-137850D01*
X-30030Y-143530D02*
Y-107970D01*
X5530D01*
Y-143530D02*
Y-107970D01*
X-30030Y-143530D02*
X5530D01*
X-45089Y47912D02*
X-41411Y51589D01*
X-45089D02*
X-41411Y47912D01*
X89000Y-45000D02*
Y-34000D01*
X64500Y-45000D02*
Y-34000D01*
Y-45000D02*
X89000D01*
X64500Y-34000D02*
X89000D01*
X74000Y-39500D02*
X79500D01*
X76750Y-42250D02*
Y-36750D01*
X-53589Y39662D02*
X-49911Y43338D01*
X-53589D02*
X-49911Y39662D01*
X-46844Y63023D02*
X-30227Y46406D01*
X-39773Y70094D02*
X-23156Y53477D01*
X-30227Y46406D02*
X-23156Y53477D01*
X-46844Y63023D02*
X-39773Y70094D01*
X-38182Y61432D02*
X-31818Y55068D01*
X-38182D02*
X-31818Y61432D01*
X-28871Y64129D02*
X-24629Y68371D01*
X-28871Y68371D02*
X-24629Y64129D01*
X-41000Y-84250D02*
X-30000D01*
X-41000Y-59750D02*
X-30000D01*
X-41000Y-84250D02*
Y-59750D01*
X-30000Y-84250D02*
Y-59750D01*
X-35500Y-74750D02*
Y-69250D01*
X-38250Y-72000D02*
X-32750D01*
X-46977Y15300D02*
X-43300Y18977D01*
X-46977D02*
X-43300Y15300D01*
X-62200Y30773D02*
X-58523Y34450D01*
X-62200Y34450D02*
X-58523Y30773D01*
X-68647Y16174D02*
X-61576Y9103D01*
X-68647D02*
X-61576Y16174D01*
X-68518Y66607D02*
X-64982Y62393D01*
X-68857Y62732D02*
X-64643Y66268D01*
X-72599Y52413D02*
X-53831Y68161D01*
X-79669Y60839D02*
X-60901Y76587D01*
X-53831Y68161D01*
X-79669Y60839D02*
X-72599Y52413D01*
X-49671Y135242D02*
X-46329Y131258D01*
X-49992Y131579D02*
X-46008Y134921D01*
X66000Y-63000D02*
X76000D01*
X71000Y-68000D02*
Y-58000D01*
X33150Y-69650D02*
X38350D01*
X35750Y-72250D02*
Y-67050D01*
X21400Y-69650D02*
X26600D01*
X24000Y-72250D02*
Y-67050D01*
X122500Y-1750D02*
Y25250D01*
X157500D01*
Y-1750D02*
Y25250D01*
X122500Y-1750D02*
X157500D01*
X44900Y-69650D02*
X50100D01*
X47500Y-72250D02*
Y-67050D01*
X-17000Y-76250D02*
X-7000D01*
X-12000Y-81250D02*
Y-71250D01*
X6750Y-82000D02*
X17750D01*
X6750Y-57500D02*
X17750D01*
X6750Y-82000D02*
Y-57500D01*
X17750Y-82000D02*
Y-57500D01*
X12250Y-72500D02*
Y-67000D01*
X9500Y-69750D02*
X15000D01*
X143327Y-72171D02*
X152562Y-46800D01*
X110438Y-60201D02*
X143327Y-72171D01*
X110438Y-60201D02*
X119673Y-34829D01*
X152562Y-46800D01*
X103541Y-86869D02*
X123201Y-100635D01*
X136967Y-80976D01*
X117307Y-67210D02*
X136967Y-80976D01*
X103541Y-86869D02*
X117307Y-67210D01*
X-69500Y-143500D02*
X-42500D01*
X-69500D02*
Y-108500D01*
X-42500D01*
Y-143500D02*
Y-108500D01*
X83187Y-103028D02*
X97495Y-125925D01*
X67813Y-144472D02*
X97495Y-125925D01*
X53505Y-121575D02*
X67813Y-144472D01*
X53505Y-121575D02*
X83187Y-103028D01*
X12000Y-132950D02*
Y-127750D01*
X9400Y-130350D02*
X14600D01*
X18000Y-144000D02*
Y-111500D01*
X52750D01*
X52750Y-144000D01*
X18000Y-144000D02*
X52750Y-144000D01*
X129250Y-26750D02*
Y-2750D01*
Y-26750D02*
X153250D01*
Y-2750D01*
X129250D02*
X153250D01*
X115350Y-10500D02*
X120550D01*
X117950Y-13100D02*
Y-7900D01*
X115500Y-22250D02*
X120700D01*
X118100Y-24850D02*
Y-19650D01*
X110250Y1500D02*
X115450D01*
X112850Y-1100D02*
Y4100D01*
X-57250Y-48850D02*
Y-43650D01*
X-59850Y-46250D02*
X-54650D01*
D148*
X-33750Y-31750D02*
X-23750Y-31750D01*
X-33750Y-12750D02*
X-23750D01*
X-33750Y-31750D02*
Y-12750D01*
X-23750Y-31750D02*
Y-12750D01*
X-91368Y52878D02*
X-36136Y99223D01*
X-127364Y95777D02*
X-72132Y142122D01*
X-36136Y99223D01*
X-127364Y95777D02*
X-91368Y52878D01*
X-109000Y-9500D02*
X-87000D01*
Y20000D01*
X-109000D02*
X-87000D01*
X-109000Y-9500D02*
Y20000D01*
X-35750Y-31750D02*
Y-12750D01*
X-45750Y-31750D02*
Y-12750D01*
X-35750D01*
X-45750Y-31750D02*
X-35750D01*
X-28753Y76932D02*
X-15318Y63497D01*
X-21682Y84003D02*
X-8247Y70568D01*
X-15318Y63497D02*
X-8247Y70568D01*
X-28753Y76932D02*
X-21682Y84003D01*
X-7238Y104175D02*
X13975Y125388D01*
X11147Y85790D02*
X32360Y107003D01*
X-7238Y104175D02*
X11147Y85790D01*
X13975Y125388D02*
X32360Y107003D01*
X17858Y91179D02*
X31293Y104614D01*
X24929Y84108D02*
X38364Y97543D01*
X17858Y91179D02*
X24929Y84108D01*
X31293Y104614D02*
X38364Y97543D01*
X-12253Y93432D02*
X1182Y79997D01*
X-5182Y100503D02*
X8253Y87068D01*
X1182Y79997D02*
X8253Y87068D01*
X-12253Y93432D02*
X-5182Y100503D01*
X26247Y82818D02*
X39682Y96253D01*
X33318Y75747D02*
X46753Y89182D01*
X26247Y82818D02*
X33318Y75747D01*
X39682Y96253D02*
X46753Y89182D01*
X34636Y74457D02*
X48071Y87892D01*
X41707Y67386D02*
X55142Y80821D01*
X34636Y74457D02*
X41707Y67386D01*
X48071Y87892D02*
X55142Y80821D01*
X65734Y70251D02*
X71391Y64594D01*
X77048Y81564D02*
X82705Y75908D01*
X65734Y70251D02*
X77048Y81564D01*
X71391Y64594D02*
X82705Y75908D01*
X58126Y62217D02*
X63783Y67874D01*
X69440Y50903D02*
X75097Y56560D01*
X63783Y67874D02*
X75097Y56560D01*
X58126Y62217D02*
X69440Y50903D01*
X55682Y77253D02*
X62753Y70182D01*
X42247Y63818D02*
X49318Y56747D01*
X62753Y70182D01*
X42247Y63818D02*
X55682Y77253D01*
X72388Y90339D02*
X91480Y71247D01*
X126835Y106603D01*
X107743Y125695D02*
X126835Y106603D01*
X72388Y90339D02*
X107743Y125695D01*
X-20614Y85293D02*
X-7179Y71858D01*
X-13543Y92364D02*
X-108Y78929D01*
X-7179Y71858D02*
X-108Y78929D01*
X-20614Y85293D02*
X-13543Y92364D01*
X-153571Y30479D02*
X-144771Y63321D01*
X-120729Y21679D02*
X-111929Y54521D01*
X-144771Y63321D02*
X-111929Y54521D01*
X-153571Y30479D02*
X-120729Y21679D01*
X-136618Y13712D02*
X-134030Y23371D01*
X-154970Y18629D02*
X-152382Y28288D01*
X-154970Y18629D02*
X-136618Y13712D01*
X-152382Y28288D02*
X-134030Y23371D01*
X-63500Y-106650D02*
Y-87650D01*
X-73500Y-106650D02*
Y-87650D01*
X-63500D01*
X-73500Y-106650D02*
X-63500D01*
X-79250Y-128000D02*
Y-118000D01*
X-98250Y-128000D02*
Y-118000D01*
Y-128000D02*
X-79250D01*
X-98250Y-118000D02*
X-79250D01*
X-114853Y60630D02*
X-85876Y52866D01*
X-96228Y14229D02*
X-85876Y52866D01*
X-96228Y14229D02*
X-72080Y7758D01*
X-92139Y-67101D02*
X-72080Y7758D01*
X-169413Y-46395D02*
X-92139Y-67101D01*
X-169413Y-46395D02*
X-149354Y28464D01*
X-125206Y21993D01*
X-114853Y60630D01*
X96455Y-77664D02*
X104647Y-83400D01*
X107353Y-62100D02*
X115545Y-67836D01*
X96455Y-77664D02*
X107353Y-62100D01*
X104647Y-83400D02*
X115545Y-67836D01*
X82747Y-94182D02*
X89818Y-101253D01*
X96182Y-80747D02*
X103253Y-87818D01*
X82747Y-94182D02*
X96182Y-80747D01*
X89818Y-101253D02*
X103253Y-87818D01*
X91162Y-102375D02*
X98233Y-109447D01*
X104597Y-88940D02*
X111668Y-96011D01*
X91162Y-102375D02*
X104597Y-88940D01*
X98233Y-109447D02*
X111668Y-96011D01*
X99412Y-110875D02*
X106483Y-117947D01*
X112847Y-97440D02*
X119918Y-104511D01*
X99412Y-110875D02*
X112847Y-97440D01*
X106483Y-117947D02*
X119918Y-104511D01*
X-41250Y-144750D02*
Y-125750D01*
X-31250Y-144750D02*
Y-125750D01*
X-41250Y-144750D02*
X-31250D01*
X-41250Y-125750D02*
X-31250D01*
X-53503Y52932D02*
X-40068Y39497D01*
X-46432Y60003D02*
X-32997Y46568D01*
X-40068Y39497D02*
X-32997Y46568D01*
X-53503Y52932D02*
X-46432Y60003D01*
X-62003Y44682D02*
X-48568Y31247D01*
X-54932Y51753D02*
X-41497Y38318D01*
X-48568Y31247D02*
X-41497Y38318D01*
X-62003Y44682D02*
X-54932Y51753D01*
X-29578Y74735D02*
X-18265Y63422D01*
X-35235Y69078D02*
X-23922Y57765D01*
X-35235Y69078D02*
X-29578Y74735D01*
X-23922Y57765D02*
X-18265Y63422D01*
X-55392Y20321D02*
X-41957Y6886D01*
X-48321Y27392D02*
X-34886Y13957D01*
X-41957Y6886D02*
X-34886Y13957D01*
X-55392Y20321D02*
X-48321Y27392D01*
X-63543Y42864D02*
X-50108Y29429D01*
X-70614Y35793D02*
X-57179Y22358D01*
X-70614Y35793D02*
X-63543Y42864D01*
X-57179Y22358D02*
X-50108Y29429D01*
X-84910Y15467D02*
X-67940Y32438D01*
X-62283Y-7160D02*
X-45312Y9810D01*
X-67940Y32438D02*
X-45312Y9810D01*
X-84910Y15467D02*
X-62283Y-7160D01*
X-45724Y122759D02*
X-38063Y129186D01*
X-57937Y137313D02*
X-50276Y143741D01*
X-57937Y137313D02*
X-45724Y122759D01*
X-50276Y143741D02*
X-38063Y129186D01*
X54000Y-80000D02*
Y-46000D01*
X88000Y-80000D02*
Y-46000D01*
X54000Y-80000D02*
X88000D01*
X54000Y-46000D02*
X88000D01*
X40750Y-79150D02*
Y-60150D01*
X30750Y-79150D02*
Y-60150D01*
X40750D01*
X30750Y-79150D02*
X40750Y-79150D01*
X29000Y-79150D02*
Y-60150D01*
X19000Y-79150D02*
Y-60150D01*
X29000D01*
X19000Y-79150D02*
X29000D01*
X52500D02*
Y-60150D01*
X42500Y-79150D02*
Y-60150D01*
X52500D01*
X42500Y-79150D02*
X52500D01*
X5000Y-93250D02*
Y-59250D01*
X-29000Y-93250D02*
Y-59250D01*
X5000D01*
X-29000Y-93250D02*
X5000D01*
X7000Y-139850D02*
X17000Y-139850D01*
X7000Y-120850D02*
X17000Y-120850D01*
X7000Y-139850D02*
Y-120850D01*
X17000Y-139850D02*
Y-120850D01*
X108450Y-15500D02*
Y-5500D01*
X127450Y-15500D02*
Y-5500D01*
X108450D02*
X127450D01*
X108450Y-15500D02*
X127450D01*
X108600Y-27250D02*
Y-17250D01*
X127600Y-27250D02*
Y-17250D01*
X108600D02*
X127600D01*
X108600Y-27250D02*
X127600D01*
X103350Y-3500D02*
Y6500D01*
X122350Y-3500D02*
Y6500D01*
X103350D02*
X122350D01*
X103350Y-3500D02*
X122350D01*
X-90750Y-52200D02*
Y-31700D01*
Y-52200D02*
X-63250D01*
Y-31700D01*
X-90750D02*
X-63250D01*
X-62250Y-55750D02*
X-52250Y-55750D01*
X-62250Y-36750D02*
X-52250D01*
X-62250Y-55750D02*
X-62250Y-36750D01*
X-52250Y-55750D02*
Y-36750D01*
X-136500Y-37000D02*
X-94000D01*
Y-73000D02*
Y-37000D01*
X-136500Y-73000D02*
X-94000D01*
X-136500D02*
Y-37000D01*
M02*
